<svg width="176" height="278" viewBox="0 0 176 278" fill="none" xmlns="http://www.w3.org/2000/svg">
<path d="M93.4437 39.88C91.3557 43.5576 100.205 51.87 107.58 49.6344C111.24 44.1833 118.217 31.6771 116.839 25.261C115.117 17.2408 118.705 14.2081 119.556 9.72126C120.407 5.23441 113.032 7.47004 107.242 9.90192C101.451 12.3338 95.5317 36.2023 93.4437 39.88Z" stroke="#E3E3E3"/>
<path d="M134.666 20.4491C130.167 9.97252 124.434 11.2875 122.129 13.2546C120.098 16.6331 116.269 24.1144 117.202 27.0116C118.135 29.9088 115.259 39.695 113.704 44.2259C112.016 46.2037 109.983 51.139 115.356 55.0584C122.072 59.9576 140.291 33.5449 134.666 20.4491Z" stroke="#E3E3E3"/>
<path d="M125.866 11.3355C122.726 13.2976 119.858 11.5343 117.477 9.57243C115.6 8.02606 113.024 7.82365 111.027 9.21206C86.6058 26.1958 91.877 43.7267 97.8803 50.6102C103.457 57.0042 106.046 47.6803 112.53 53.4075C114.235 54.9137 116.608 55.6858 118.646 54.6738C151.221 38.4957 131.678 7.70404 125.866 11.3355Z" stroke="#E3E3E3"/>
<path d="M93.4437 39.88C91.3557 43.5576 100.205 51.87 107.58 49.6344C111.24 44.1833 118.217 31.6771 116.839 25.261C115.117 17.2408 118.705 14.2081 119.556 9.72126C120.407 5.23441 113.032 7.47004 107.242 9.90192C101.451 12.3338 95.5317 36.2023 93.4437 39.88Z" stroke="#E3E3E3"/>
<path d="M134.666 20.4491C130.167 9.97252 124.434 11.2875 122.129 13.2546C120.098 16.6331 116.269 24.1144 117.202 27.0116C118.135 29.9088 115.259 39.695 113.704 44.2259C112.016 46.2037 109.983 51.139 115.356 55.0584C122.072 59.9576 140.291 33.5449 134.666 20.4491Z" stroke="#E3E3E3"/>
<path d="M125.866 11.3355C122.726 13.2976 119.858 11.5343 117.477 9.57243C115.6 8.02606 113.024 7.82365 111.027 9.21206C86.6058 26.1958 91.877 43.7267 97.8803 50.6102C103.457 57.0042 106.046 47.6803 112.53 53.4075C114.235 54.9137 116.608 55.6858 118.646 54.6738C151.221 38.4957 131.678 7.70404 125.866 11.3355Z" stroke="#E3E3E3"/>
<path d="M65.7608 156.307C62.6655 155.051 58.4606 162.752 61.5983 168.257C66.3025 170.557 76.8027 174.73 81.1701 173.021C86.6293 170.885 89.5656 173.37 92.993 173.584C96.4205 173.799 93.2828 168.293 90.3289 164.038C87.3749 159.783 68.8561 157.562 65.7608 156.307Z" stroke="#E3E3E3"/>
<path d="M88.3254 186.387C94.9938 181.849 92.8613 177.528 90.9614 175.934C88.0947 174.693 81.884 172.464 79.976 173.477C78.0679 174.49 70.3826 173.231 66.7785 172.474C64.9976 171.36 61.002 170.272 59.2664 174.835C57.0968 180.539 79.99 192.059 88.3254 186.387Z" stroke="#E3E3E3"/>
<path d="M93.1211 178.645C91.3248 176.697 91.6077 174.627 92.324 172.778C93.1677 170.599 92.9185 168.196 91.2744 166.579C74.1242 149.708 62.626 155.507 58.8956 160.82C55.6407 165.456 61.774 166.708 60.3168 171.412C59.6305 173.627 59.2427 176.138 60.677 177.928C78.9496 200.741 96.9174 182.763 93.1211 178.645Z" stroke="#E3E3E3"/>
<path d="M65.7608 156.307C62.6655 155.051 58.4606 162.752 61.5983 168.257C66.3025 170.557 76.8027 174.73 81.1701 173.021C86.6293 170.885 89.5656 173.37 92.993 173.584C96.4205 173.799 93.2828 168.293 90.3289 164.038C87.3749 159.783 68.8561 157.562 65.7608 156.307Z" stroke="#E3E3E3"/>
<path d="M88.3254 186.387C94.9938 181.849 92.8613 177.528 90.9614 175.934C88.0947 174.693 81.884 172.464 79.976 173.477C78.0679 174.49 70.3826 173.231 66.7785 172.474C64.9976 171.36 61.002 170.272 59.2664 174.835C57.0968 180.539 79.99 192.059 88.3254 186.387Z" stroke="#E3E3E3"/>
<path d="M93.1211 178.645C91.3248 176.697 91.6077 174.627 92.324 172.778C93.1677 170.599 92.9185 168.196 91.2744 166.579C74.1242 149.708 62.626 155.507 58.8956 160.82C55.6407 165.456 61.774 166.708 60.3168 171.412C59.6305 173.627 59.2427 176.138 60.677 177.928C78.9496 200.741 96.9174 182.763 93.1211 178.645Z" stroke="#E3E3E3"/>
<path d="M42.7445 96.8557C45.9433 92.6159 47.6134 82.1861 28.7039 74.386C9.79435 66.5859 4.30216 73.5508 3.91976 78.0083C4.86412 83.6141 8.81662 95.6718 17.0718 99.0559C27.3907 103.286 36.4953 110.252 38.0427 104.54C39.2807 99.9694 36.1122 95.9906 34.3732 94.5725C30.0598 94.1039 19.7518 83.767 21.0477 87.8707C22.4659 92.3614 35.3839 92.0954 42.7445 96.8557Z" stroke="#E3E3E3"/>
<path d="M142.922 155.208C144.492 160.723 151.058 168.76 164.756 156.788C178.454 144.815 175.978 135.543 173.027 132.404C168.695 129.727 158.54 125.684 152.575 130.924C145.118 137.474 136.278 141.223 139.598 146.19C142.254 150.163 146.418 149.834 148.168 149.173C150.376 145.619 162.098 142.913 158.664 141.493C154.905 139.939 149.459 151.63 142.922 155.208Z" stroke="#E3E3E3"/>
<path d="M87.4404 136.097C86.3416 134.694 83.9468 132.638 83.1581 135.638C82.1723 139.389 76.8548 141.536 85.5609 153.337C94.2669 165.139 105.614 167.845 105.325 166.849C105.036 165.854 114.495 166.605 111.389 161.101C108.282 155.597 102.492 150.594 101.837 150.612C101.182 150.629 95.1885 148.497 95.6394 151.35C96.0904 154.203 99.1679 149.537 98.3508 147.696C97.5338 145.856 94.9417 142.773 94.2233 143.222C93.5049 143.671 88.4903 145.237 90.8709 145.317C93.2515 145.397 94.5755 143.786 93.5189 142.095C92.4623 140.404 84.6088 133.164 85.4539 131.852M87.4404 136.097C89.2576 137.051 93.068 139.242 93.7724 140.369C94.4767 141.496 97.6108 139.407 99.0898 138.222C98.7376 137.658 97.4205 137.149 94.9697 139.621C93.3428 141.813 98.4916 145.257 99.5481 146.948C100.605 148.639 102.562 142.714 101.365 143.462C100.168 144.21 100.985 146.05 100.957 149.203C100.929 152.355 107.141 150.041 106.106 152.647C105.07 155.253 109.529 155.994 112.776 159.059C116.023 162.124 116.987 154.076 117.417 152.632C117.847 151.188 101.09 127.568 92.3488 126.368C83.6081 125.169 86.299 130.541 85.4539 131.852M87.4404 136.097C85.8838 134.849 83.0606 131.859 84.2212 129.88C85.672 127.406 96.469 124.969 105.076 134.481C113.684 143.993 119.446 153.323 117.931 155.053C116.416 156.784 115.396 158.989 112.297 159.358C109.818 159.653 110.161 163.044 110.642 164.702C109.628 166.381 107.106 169.419 105.135 168.144C102.67 166.549 82.8354 158.567 80.7922 147.305C78.7491 136.042 79.4488 133.254 82.8199 133.498C85.5167 133.694 85.6996 132.483 85.4539 131.852" stroke="#E3E3E3"/>
<path d="M22.9656 170.379C21.2908 170.589 18.4896 171.669 20.6827 174.307C23.4242 177.605 22.8912 184.169 36.7394 182.928C50.5877 181.688 57.8989 172.204 56.9281 171.871C55.9574 171.537 60.7772 162.698 54.7405 162.338C48.7037 161.978 41.9046 164.569 41.6297 165.224C41.3547 165.879 36.8971 170.452 39.5135 171.779C42.1299 173.106 39.5382 167.183 37.6177 166.844C35.6972 166.506 31.9393 167.143 32.0018 168.128C32.0643 169.114 31.173 175.019 32.2936 172.726C33.4142 170.434 32.6351 168.132 30.7353 168.122C28.8355 168.112 19.2285 171.344 18.491 169.699M22.9656 170.379C24.5778 169.184 28.1189 166.794 29.3854 166.801C30.6519 166.808 30.2684 162.428 29.9184 160.237C29.2851 160.234 28.2711 161.214 29.2812 165.159C30.4187 168.12 35.6138 165.192 37.5135 165.202C39.4132 165.212 35.2595 159.609 35.3637 161.251C35.4679 162.893 37.3884 163.231 40.0465 165.215C42.7046 167.199 43.4917 159.652 45.2416 162.288C46.9915 164.924 49.591 160.997 53.6238 159.705C57.6566 158.413 51.2654 152.469 50.2322 151.151C49.1989 149.832 21.7775 151.658 16.895 159.512C12.0125 167.366 17.7536 168.053 18.491 169.699M22.9656 170.379C21.22 171.136 17.4379 172.057 16.2746 169.687C14.8205 166.725 17.5322 154.59 29.3973 152.026C41.2624 149.462 51.7153 149.583 52.5111 152.147C53.3069 154.712 54.7235 157.084 53.6655 160.362C52.819 162.984 55.8432 164.751 57.461 165.307C58.4345 167.347 59.8933 171.713 57.9404 172.861C55.4994 174.296 39.9642 188.855 29.5194 183.875C19.0747 178.895 17.0219 176.476 18.7203 173.312C20.079 170.78 19.1336 169.848 18.491 169.699" stroke="#E3E3E3"/>
<path d="M127.126 224.503C125.871 228.504 113.86 227.708 110.494 220.848C111.971 214.508 116.323 200.993 121.907 197.653C128.887 193.479 128.66 188.827 131.338 185.175C134.016 181.524 137.382 188.384 139.534 194.227C141.686 200.07 128.381 220.502 127.126 224.503Z" stroke="#E3E3E3"/>
<path d="M113.342 181.472C123.981 177.651 126.904 182.697 127.036 185.698C125.959 189.456 123.124 197.291 120.392 198.573C117.66 199.856 112.509 208.559 110.275 212.75C109.982 215.312 107.778 220.123 101.303 218.877C93.209 217.32 100.042 186.249 113.342 181.472Z" stroke="#E3E3E3"/>
<path d="M125.901 181.691C126.599 185.282 129.796 186.176 132.819 186.578C135.229 186.899 137.135 188.643 137.48 191.05C141.661 220.215 125.393 228.241 116.346 228.542C107.95 228.822 112.936 220.66 104.445 219.814C102.181 219.588 99.9968 218.38 99.3485 216.2C89.0844 181.667 124.605 175.024 125.901 181.691Z" stroke="#E3E3E3"/>
<path d="M127.126 224.503C125.871 228.504 113.86 227.708 110.494 220.848C111.971 214.508 116.323 200.993 121.907 197.653C128.887 193.479 128.66 188.827 131.338 185.175C134.016 181.524 137.382 188.384 139.534 194.227C141.686 200.07 128.381 220.502 127.126 224.503Z" stroke="#E3E3E3"/>
<path d="M113.342 181.472C123.981 177.651 126.904 182.697 127.036 185.698C125.959 189.456 123.124 197.291 120.392 198.573C117.66 199.856 112.509 208.559 110.275 212.75C109.982 215.312 107.778 220.123 101.303 218.877C93.209 217.32 100.042 186.249 113.342 181.472Z" stroke="#E3E3E3"/>
<path d="M125.901 181.691C126.599 185.282 129.796 186.176 132.819 186.578C135.229 186.899 137.135 188.643 137.48 191.05C141.661 220.215 125.393 228.241 116.346 228.542C107.95 228.822 112.936 220.66 104.445 219.814C102.181 219.588 99.9968 218.38 99.3485 216.2C89.0844 181.667 124.605 175.024 125.901 181.691Z" stroke="#E3E3E3"/>
<path d="M67.9171 196.835C67.1115 193.623 75.2519 190.557 80.2242 194.397C81.8333 199.333 84.4814 210.218 82.2012 214.271C79.3509 219.336 81.3849 222.562 81.1226 225.956C80.8602 229.351 75.888 225.511 72.1179 222.023C68.3478 218.536 68.7226 200.047 67.9171 196.835Z" stroke="#E3E3E3"/>
<path d="M94.3362 223.14C88.9609 229.061 85.0121 226.371 83.7096 224.286C82.8866 221.3 81.555 214.894 82.813 213.161C84.071 211.427 83.8947 203.708 83.6493 200.065C82.801 198.162 82.2844 194.089 87.0042 193.015C92.9039 191.672 101.055 215.738 94.3362 223.14Z" stroke="#E3E3E3"/>
<path d="M86.0739 226.78C84.4179 224.759 82.3609 224.74 80.4547 225.181C78.178 225.707 75.8348 225.13 74.4629 223.276C60.2908 204.126 67.5665 193.645 73.2954 190.717C78.2846 188.167 78.6777 194.327 83.4651 193.579C85.7565 193.221 88.2978 193.181 89.8702 194.851C109.708 215.927 89.5916 231.074 86.0739 226.78Z" stroke="#E3E3E3"/>
<path d="M67.9171 196.835C67.1115 193.623 75.2519 190.557 80.2242 194.397C81.8333 199.333 84.4814 210.218 82.2012 214.271C79.3509 219.336 81.3849 222.562 81.1226 225.956C80.8602 229.351 75.888 225.511 72.1179 222.023C68.3478 218.536 68.7226 200.047 67.9171 196.835Z" stroke="#E3E3E3"/>
<path d="M94.3362 223.14C88.9609 229.061 85.0121 226.371 83.7096 224.286C82.8866 221.3 81.555 214.894 82.813 213.161C84.071 211.427 83.8947 203.708 83.6493 200.065C82.801 198.162 82.2844 194.089 87.0042 193.015C92.9039 191.672 101.055 215.738 94.3362 223.14Z" stroke="#E3E3E3"/>
<path d="M86.0739 226.78C84.4179 224.759 82.3609 224.74 80.4547 225.181C78.178 225.707 75.8348 225.13 74.4629 223.276C60.2908 204.126 67.5665 193.645 73.2954 190.717C78.2846 188.167 78.6777 194.327 83.4651 193.579C85.7565 193.221 88.2978 193.181 89.8702 194.851C109.708 215.927 89.5916 231.074 86.0739 226.78Z" stroke="#E3E3E3"/>
<path d="M73.6587 139.932C74.8461 145.062 72.1528 155.182 51.8798 154.622C31.6067 154.061 29.4408 145.538 30.892 141.346C34.008 136.649 42.4506 127.322 51.2925 127.586C62.3449 127.915 73.4008 125.277 72.4986 131.076C71.7768 135.714 67.3024 138.04 65.1554 138.624C61.0596 137.309 47.5544 142.515 50.3831 139.32C53.4786 135.825 65.0719 141.275 73.6587 139.932Z" stroke="#E3E3E3"/>
<path d="M67.4107 206.588C65.6633 211.999 58.879 219.735 45.7209 207.397C32.5629 195.059 35.338 185.958 38.3704 182.949C42.7556 180.447 52.9582 176.793 58.6874 182.192C65.8489 188.94 74.4789 192.962 71.0167 197.768C68.2468 201.613 64.1326 201.143 62.4217 200.427C60.3569 196.829 48.8353 193.741 52.288 192.453C56.0662 191.043 61.0566 202.816 67.4107 206.588Z" stroke="#E3E3E3"/>
<path d="M85.1217 243.601C82.906 242.899 79.3073 240.84 82.638 238.227C86.8013 234.96 87.0533 226.857 105.447 232.063C123.841 237.268 132.252 250.724 130.9 250.869C129.549 251.014 134.712 263.023 126.561 261.846C118.41 260.669 109.671 255.71 109.399 254.842C109.127 253.974 103.821 247.236 107.526 246.325C111.231 245.415 106.882 251.907 104.256 251.804C101.63 251.701 96.6826 249.924 96.9117 248.746C97.1407 247.568 96.815 240.167 97.9805 243.247C99.146 246.327 97.7616 248.911 95.2117 248.416C92.6618 247.92 80.2508 241.431 79.0191 243.23M85.1217 243.601C87.1083 245.482 91.5065 249.326 93.2064 249.656C94.9063 249.987 93.7467 255.196 92.9544 257.759C92.1045 257.594 90.8885 256.135 92.8247 251.62C94.7868 248.333 101.325 253.272 103.874 253.768C106.424 254.263 100.027 259.949 100.408 257.985C100.79 256.022 103.416 256.124 107.274 254.429C111.132 252.733 111.076 262.097 113.812 259.368C116.547 256.639 119.456 262.096 124.676 264.741C129.895 267.386 120.446 272.886 118.866 274.209C117.285 275.532 80.7699 265.989 75.3774 255.158C69.9848 244.327 77.7874 245.029 79.0191 243.23M85.1217 243.601C82.8915 242.216 77.9538 240.088 76.0442 242.652C73.6571 245.856 75.5071 261.297 91.0458 267.579C106.584 273.86 120.624 276.507 122.07 273.609C123.515 270.712 125.765 268.213 124.828 263.955C124.079 260.549 128.396 259.214 130.648 258.972C132.255 256.759 134.855 251.853 132.404 249.938C129.341 247.546 110.646 225.736 95.9015 228.984C81.1568 232.232 78.0467 234.617 79.8589 238.909C81.3086 242.343 79.9031 243.22 79.0191 243.23" stroke="#E3E3E3"/>
<path d="M118.844 160.071C117.206 160.415 114.231 160.307 115.436 157.126C116.942 153.149 114.323 147.168 127.706 143.861C141.089 140.554 151.004 147.085 150.201 147.711C149.399 148.336 156.77 155.068 151.227 157.354C145.684 159.64 138.474 159.405 138.005 158.88C137.536 158.354 131.881 155.506 133.905 153.417C135.93 151.329 135.412 157.719 133.721 158.656C132.03 159.593 128.301 160.209 128.042 159.265C127.782 158.321 125.04 153.072 126.831 154.86C128.621 156.647 128.634 159.057 126.856 159.68C125.079 160.302 115.029 160.373 114.869 162.153M118.844 160.071C120.741 160.672 124.832 161.768 126.017 161.353C127.202 160.938 128.257 165.168 128.635 167.335C128.043 167.542 126.776 166.951 126.45 162.927C126.56 159.784 132.375 160.851 134.153 160.229C135.931 159.606 133.846 166.2 133.413 164.627C132.981 163.054 134.672 162.117 136.523 159.399C138.375 156.681 141.549 163.502 142.339 160.467C143.128 157.431 146.833 160.272 151.03 160.182C155.228 160.092 151.155 167.727 150.612 169.297C150.069 170.866 123.773 178.006 116.661 172.218C109.548 166.431 114.708 163.934 114.869 162.153M118.844 160.071C116.963 159.925 113.12 160.282 112.795 162.88C112.388 166.126 118.846 176.627 130.797 175.201C142.748 173.775 152.508 170.287 152.427 167.626C152.345 164.965 152.907 162.284 150.857 159.553C149.217 157.368 151.482 154.735 152.819 153.692C153.074 151.466 153.032 146.901 150.831 146.455C148.079 145.898 128.816 137.264 120.632 145.304C112.447 153.343 111.304 156.274 113.917 158.692C116.008 160.627 115.423 161.806 114.869 162.153" stroke="#E3E3E3"/>
</svg>
