<svg width="317" height="299" viewBox="0 0 317 299" fill="none" xmlns="http://www.w3.org/2000/svg">
<g opacity="0.8">
<path d="M139.403 82.8284C145.149 79.72 140.361 61.5874 128.869 58.479C119.613 62.6236 100.237 73.2959 96.7897 82.8284C92.4804 94.7441 85.2984 95.7803 80.5103 100.961C75.7223 106.142 87.2136 109.25 96.7897 110.804C106.366 112.359 133.658 85.9369 139.403 82.8284Z" stroke="#E3E3E3"/>
<path d="M69.4981 74.5393C66.8168 91.9465 75.4034 94.9168 80.0318 94.2261C85.4582 91.463 96.5983 84.7971 97.7474 80.2381C98.8966 75.679 110.675 65.214 116.421 60.5513C120.251 59.3425 126.954 54.5417 123.124 45.0091C118.336 33.0934 72.8497 52.7802 69.4981 74.5393Z" stroke="#E3E3E3"/>
<path d="M73.566 93.6813C80.1778 93.6813 82.2391 99.9063 83.7725 104.945C84.4805 107.272 86.6375 108.773 89.0681 108.698C136.923 107.215 144.64 79.2919 142.376 65.1412C140.203 51.5671 128.18 63.3388 124.97 47.4335C124.52 45.2031 122.816 43.3221 120.558 43.0466C62.5761 35.9741 62.8522 93.6813 73.566 93.6813Z" stroke="#E3E3E3"/>
<path d="M139.403 82.8284C145.149 79.72 140.361 61.5874 128.869 58.479C119.613 62.6236 100.237 73.2959 96.7897 82.8284C92.4804 94.7441 85.2984 95.7803 80.5103 100.961C75.7223 106.142 87.2136 109.25 96.7897 110.804C106.366 112.359 133.658 85.9369 139.403 82.8284Z" stroke="#E3E3E3"/>
<path d="M69.4981 74.5393C66.8168 91.9465 75.4034 94.9168 80.0318 94.2261C85.4582 91.463 96.5983 84.7971 97.7474 80.2381C98.8966 75.679 110.675 65.214 116.421 60.5513C120.251 59.3425 126.954 54.5417 123.124 45.0091C118.336 33.0934 72.8497 52.7802 69.4981 74.5393Z" stroke="#E3E3E3"/>
<path d="M73.566 93.6813C80.1778 93.6813 82.2391 99.9063 83.7725 104.945C84.4805 107.272 86.6375 108.773 89.0681 108.698C136.923 107.215 144.64 79.2919 142.376 65.1412C140.203 51.5671 128.18 63.3388 124.97 47.4335C124.52 45.2031 122.816 43.3221 120.558 43.0466C62.5761 35.9741 62.8522 93.6813 73.566 93.6813Z" stroke="#E3E3E3"/>
<path d="M62.8914 143.865C65.9185 148.043 77.7297 141.398 78.1258 131.618C73.8462 124.755 63.5069 110.693 56.3872 109.356C47.4875 107.686 45.6746 102.028 41.3604 98.9411C37.0461 95.8545 36.65 105.635 37.0366 113.627C37.4232 121.618 59.8644 139.686 62.8914 143.865Z" stroke="#E3E3E3"/>
<path d="M57.9552 85.9912C45.5056 86.4768 44.7616 93.8835 45.9459 97.5262C48.6853 101.499 54.9964 109.503 58.3252 109.737C61.654 109.972 70.6904 117.913 74.7924 121.854C76.2132 124.771 80.557 129.467 86.5659 124.91C94.077 119.214 73.5172 85.3841 57.9552 85.9912Z" stroke="#E3E3E3"/>
<path d="M45.3354 92.2068C46.2674 97.1516 42.9346 99.7638 39.8585 101.718C37.8896 102.969 36.9161 105.246 37.4124 107.499C45.8035 145.594 66.1733 147.551 75.5789 143.573C84.321 139.875 75.3305 132.349 84.1452 127.31C86.1502 126.164 87.6779 124.115 87.4704 121.828C83.1824 74.5878 43.7081 83.5734 45.3354 92.2068Z" stroke="#E3E3E3"/>
<path d="M62.8914 143.865C65.9185 148.043 77.7297 141.398 78.1258 131.618C73.8462 124.755 63.5069 110.693 56.3872 109.356C47.4875 107.686 45.6746 102.028 41.3604 98.9411C37.0461 95.8545 36.65 105.635 37.0366 113.627C37.4232 121.618 59.8644 139.686 62.8914 143.865Z" stroke="#E3E3E3"/>
<path d="M57.9552 85.9912C45.5056 86.4768 44.7616 93.8835 45.9459 97.5262C48.6853 101.499 54.9964 109.503 58.3252 109.737C61.654 109.972 70.6904 117.913 74.7924 121.854C76.2132 124.771 80.557 129.467 86.5659 124.91C94.077 119.214 73.5172 85.3841 57.9552 85.9912Z" stroke="#E3E3E3"/>
<path d="M45.3354 92.2068C46.2674 97.1516 42.9346 99.7638 39.8585 101.718C37.8896 102.969 36.9161 105.246 37.4124 107.499C45.8035 145.594 66.1733 147.551 75.5789 143.573C84.321 139.875 75.3305 132.349 84.1452 127.31C86.1502 126.164 87.6779 124.115 87.4704 121.828C83.1824 74.5878 43.7081 83.5734 45.3354 92.2068Z" stroke="#E3E3E3"/>
<path d="M109.786 199.212C102.125 202.148 91.3996 214.444 109.786 240.14C128.172 265.837 141.068 261.209 145.217 255.682C148.569 247.566 153.261 228.535 145.217 217.345C135.162 203.357 128.938 186.779 122.235 192.996C116.872 197.969 117.766 205.775 118.883 209.056C124.15 213.2 129.192 235.179 130.853 228.743C132.671 221.699 115.531 211.474 109.786 199.212Z" stroke="#E3E3E3"/>
<path d="M75.0782 160.194C77.5354 151.684 75.5136 135.781 47.7694 140.252C20.0251 144.723 15.6796 158.896 16.9749 165.423C20.4586 172.475 30.4518 186.085 42.5553 184.103C57.6847 181.627 72.3346 183.952 72.0504 174.728C71.8231 167.349 66.0996 164.371 63.2663 163.805C57.4648 166.653 39.8933 160.603 43.2303 165.275C46.882 170.387 63.5851 159.53 75.0782 160.194Z" stroke="#E3E3E3"/>
<path d="M39.6024 77.5785C40.018 81.1758 42.0959 87.2913 47.0829 82.9745C53.3166 77.5785 65.7841 79.602 63.2906 49.9239C60.7971 20.2458 42.7193 3.38326 42.0959 5.40677C41.4725 7.43027 24.6414 -4.03612 24.018 8.77941C23.3947 21.5949 28.3817 36.4341 29.6284 37.1086C30.8752 37.7831 39.6024 47.9006 42.0959 42.5046C44.5894 37.1086 33.3687 41.8303 32.7453 45.8771C32.1219 49.9239 33.3687 58.0181 35.2388 58.0181C37.1089 58.0181 48.3297 60.7161 43.966 58.0181C39.6024 55.3201 35.2388 56.6691 35.2388 60.7161C35.2388 64.7632 41.4725 85.6727 38.3557 87.0217M39.6024 77.5785C37.3167 73.9812 32.7453 66.1122 32.7453 63.4141C32.7453 60.7161 24.4336 60.941 20.2778 61.3906C20.2778 62.7396 22.1479 65.033 29.6284 63.4141C35.2388 61.3906 29.6284 49.9239 29.6284 45.8771C29.6284 41.8303 19.031 49.9239 22.1479 49.9239C25.2648 49.9239 25.8882 45.8771 29.6284 40.4811C33.3687 35.0851 19.031 32.3871 24.018 29.0146C29.005 25.642 21.5245 19.5715 19.031 10.803C16.5375 2.03449 5.31678 14.85 2.82328 16.8735C0.329785 18.897 4.07003 77.5784 19.031 89.0452C33.992 100.512 35.2388 88.3707 38.3557 87.0217M39.6024 77.5785C41.0569 81.4007 42.8439 89.5848 38.3557 91.7432C32.7453 94.4412 9.68041 87.0217 4.69341 61.3906C-0.29359 35.7596 -0.167565 13.501 4.69341 12.152C9.55438 10.803 14.044 8.105 20.2778 10.803C25.2648 12.9614 28.5894 6.756 29.6284 3.38349C33.4913 1.58485 41.7669 -0.933245 43.966 3.38349C46.7149 8.77941 74.5114 43.8536 65.1608 65.4376C55.8101 87.0217 51.2379 91.069 45.2128 87.0217C40.3927 83.7839 38.633 85.6726 38.3557 87.0217" stroke="#E3E3E3"/>
<path d="M133.977 142.042C136.343 143.138 140.896 144.017 140.183 138.765C139.291 132.201 145.362 124.039 126.206 114.329C107.05 104.618 89.7097 111.056 90.7084 112.288C91.7071 113.519 78.1574 121.154 85.7707 126.567C93.3839 131.98 104.411 134.151 105.308 133.518C106.204 132.885 115.787 130.543 113.446 126.663C111.105 122.782 109.651 132.664 111.89 134.679C114.129 136.694 119.573 138.936 120.298 137.594C121.022 136.252 127.024 129.246 123.679 131.332C120.335 133.418 119.471 137.072 121.951 138.64C124.432 140.208 139.663 143.837 139.282 146.596M133.977 142.042C130.887 142.289 124.292 142.52 122.639 141.474C120.985 140.429 117.902 146.48 116.567 149.637C117.394 150.159 119.524 149.706 121.431 143.711C122.365 138.901 113.163 138.484 110.682 136.916C108.202 135.348 109.056 146.088 110.264 143.851C111.472 141.615 109.233 139.6 107.375 134.825C105.517 130.05 98.3077 139.293 98.173 134.408C98.0384 129.522 91.4191 132.538 85.0786 130.929C78.7381 129.321 82.245 142.338 82.519 144.912C82.7931 147.485 120.209 167.539 133.034 161.247C145.859 154.955 138.901 149.355 139.282 146.596M133.977 142.042C136.883 142.48 142.592 144.369 142.176 148.426C141.655 153.497 128.171 167.173 110.529 160.82C92.8868 154.466 79.2931 145.751 80.3498 141.74C81.4065 137.73 81.4926 133.462 85.5617 130.035C88.817 127.293 86.3019 122.502 84.6374 120.45C85.0318 116.981 86.6951 110.067 90.193 110.162C94.5653 110.28 126.833 103.925 136.439 118.998C146.045 134.071 146.754 138.92 141.939 141.676C138.087 143.88 138.562 145.874 139.282 146.596" stroke="#E3E3E3"/>
</g>
<path d="M268.992 216.043C267.037 222.276 248.324 221.036 243.08 210.349C245.382 200.471 252.162 179.415 260.861 174.213C271.736 167.709 271.382 160.461 275.554 154.772C279.726 149.084 284.97 159.771 288.323 168.874C291.676 177.978 270.947 209.81 268.992 216.043Z" stroke="#E3E3E3"/>
<path d="M247.516 149.004C264.092 143.05 268.646 150.912 268.851 155.588C267.174 161.441 262.757 173.649 258.501 175.647C254.245 177.645 246.219 191.204 242.739 197.733C242.283 201.724 238.849 209.22 228.761 207.279C216.151 204.853 226.796 156.446 247.516 149.004Z" stroke="#E3E3E3"/>
<path d="M267.083 149.345C268.345 155.835 274.849 156.671 280.088 157.215C282.507 157.466 284.392 159.297 284.782 161.697C292.458 208.956 266.52 221.859 252.197 222.336C238.458 222.794 247.719 208.745 231.494 208.629C229.218 208.612 227.047 207.299 226.345 205.135C208.34 149.568 265.039 138.828 267.083 149.345Z" stroke="#E3E3E3"/>
<path d="M268.992 216.043C267.037 222.276 248.324 221.036 243.08 210.349C245.382 200.471 252.162 179.415 260.861 174.213C271.736 167.709 271.382 160.461 275.554 154.772C279.726 149.084 284.97 159.771 288.323 168.874C291.676 177.978 270.947 209.81 268.992 216.043Z" stroke="#E3E3E3"/>
<path d="M247.516 149.004C264.092 143.05 268.646 150.912 268.851 155.588C267.174 161.441 262.757 173.649 258.501 175.647C254.245 177.645 246.219 191.204 242.739 197.733C242.283 201.724 238.849 209.22 228.761 207.279C216.151 204.853 226.796 156.446 247.516 149.004Z" stroke="#E3E3E3"/>
<path d="M267.083 149.345C268.345 155.835 274.849 156.671 280.088 157.215C282.507 157.466 284.392 159.297 284.782 161.697C292.458 208.956 266.52 221.859 252.197 222.336C238.458 222.794 247.719 208.745 231.494 208.629C229.218 208.612 227.047 207.299 226.345 205.135C208.34 149.568 265.039 138.828 267.083 149.345Z" stroke="#E3E3E3"/>
<path d="M176.748 172.938C175.493 167.933 188.175 163.156 195.922 169.139C198.429 176.83 202.554 193.788 199.002 200.102C194.561 207.993 197.73 213.019 197.321 218.308C196.913 223.597 189.166 217.614 183.293 212.18C177.419 206.747 178.003 177.942 176.748 172.938Z" stroke="#E3E3E3"/>
<path d="M217.908 213.919C209.533 223.144 203.381 218.953 201.352 215.705C200.07 211.053 197.995 201.073 199.955 198.372C201.915 195.671 201.64 183.645 201.258 177.969C199.936 175.006 199.132 168.66 206.485 166.986C215.676 164.893 228.376 202.388 217.908 213.919Z" stroke="#E3E3E3"/>
<path d="M205.035 219.591C201.846 215.699 197.703 216.573 194.228 217.673C192.004 218.377 189.635 217.66 188.228 215.831C164.439 184.916 176.033 168.054 185.127 163.406C193.579 159.086 193.564 170.81 203.091 167.297C205.258 166.498 207.809 166.645 209.428 168.274C242.86 201.924 210.603 226.387 205.035 219.591Z" stroke="#E3E3E3"/>
<path d="M176.748 172.938C175.493 167.933 188.175 163.156 195.922 169.139C198.429 176.83 202.554 193.788 199.002 200.102C194.561 207.993 197.73 213.019 197.321 218.308C196.913 223.597 189.166 217.614 183.293 212.18C177.419 206.747 178.003 177.942 176.748 172.938Z" stroke="#E3E3E3"/>
<path d="M217.908 213.919C209.533 223.144 203.381 218.953 201.352 215.705C200.07 211.053 197.995 201.073 199.955 198.372C201.915 195.671 201.64 183.645 201.258 177.969C199.936 175.006 199.132 168.66 206.485 166.986C215.676 164.893 228.376 202.388 217.908 213.919Z" stroke="#E3E3E3"/>
<path d="M205.035 219.591C201.846 215.699 197.703 216.573 194.228 217.673C192.004 218.377 189.635 217.66 188.228 215.831C164.439 184.916 176.033 168.054 185.127 163.406C193.579 159.086 193.564 170.81 203.091 167.297C205.258 166.498 207.809 166.645 209.428 168.274C242.86 201.924 210.603 226.387 205.035 219.591Z" stroke="#E3E3E3"/>
<path d="M185.692 84.2847C187.542 92.2775 183.346 108.045 151.761 107.171C120.177 106.298 116.802 93.0187 119.063 86.4883C123.918 79.171 137.071 64.6392 150.846 65.0503C168.066 65.5642 185.29 61.454 183.885 70.4877C182.76 77.7146 175.789 81.3385 172.444 82.2471C166.063 80.1983 145.023 88.3089 149.43 83.3322C154.252 77.8861 172.314 86.3777 185.692 84.2847Z" stroke="#E3E3E3"/>
<path d="M175.959 188.133C173.237 196.562 162.667 208.615 142.167 189.393C121.668 170.171 125.991 155.991 130.715 151.304C137.547 147.406 153.443 141.713 162.368 150.124C173.526 160.638 186.971 166.903 181.577 174.391C177.262 180.381 170.852 179.649 168.186 178.534C164.97 172.928 147.019 168.117 152.398 166.11C158.285 163.914 166.06 182.256 175.959 188.133Z" stroke="#E3E3E3"/>
<path d="M203.551 245.797C200.099 244.703 194.493 241.496 199.682 237.424C206.168 232.335 206.561 219.71 235.218 227.821C263.875 235.931 276.978 256.895 274.873 257.12C272.767 257.346 280.812 276.056 268.113 274.223C255.414 272.389 241.799 264.662 241.375 263.31C240.95 261.957 232.684 251.46 238.457 250.042C244.229 248.624 237.453 258.737 233.362 258.577C229.27 258.417 221.563 255.649 221.92 253.813C222.276 251.977 221.769 240.448 223.585 245.246C225.401 250.044 223.244 254.07 219.271 253.298C215.299 252.526 195.963 242.417 194.044 245.219M203.551 245.797C206.646 248.727 213.499 254.716 216.147 255.231C218.795 255.746 216.989 263.862 215.754 267.855C214.43 267.598 212.536 265.325 215.552 258.291C218.609 253.169 228.795 260.865 232.767 261.637C236.74 262.409 226.773 271.267 227.367 268.208C227.962 265.148 232.053 265.308 238.064 262.666C244.075 260.024 243.987 274.613 248.249 270.362C252.511 266.11 257.043 274.611 265.175 278.732C273.306 282.853 258.585 291.422 256.123 293.484C253.661 295.545 196.771 280.677 188.37 263.803C179.969 246.928 192.125 248.021 194.044 245.219M203.551 245.797C200.077 243.64 192.384 240.324 189.409 244.318C185.69 249.311 188.572 273.367 212.781 283.153C236.989 292.94 258.863 297.063 261.115 292.549C263.366 288.034 266.872 284.142 265.413 277.508C264.245 272.201 270.971 270.121 274.48 269.745C276.983 266.296 281.034 258.653 277.216 255.671C272.443 251.943 243.318 217.964 220.346 223.025C197.374 228.085 192.529 231.801 195.352 238.488C197.611 243.837 195.421 245.204 194.044 245.219" stroke="#E3E3E3"/>
<path d="M256.09 115.661C253.538 116.197 248.904 116.028 250.78 111.072C253.126 104.877 249.047 95.5583 269.896 90.4064C290.746 85.2544 306.193 95.4285 304.943 96.4037C303.693 97.3788 315.178 107.866 306.542 111.427C297.906 114.989 286.673 114.624 285.942 113.805C285.211 112.987 276.4 108.549 279.554 105.295C282.708 102.041 281.902 111.996 279.267 113.456C276.632 114.916 270.824 115.875 270.419 114.405C270.015 112.934 265.744 104.757 268.533 107.542C271.323 110.327 271.343 114.081 268.573 115.051C265.803 116.021 250.146 116.131 249.897 118.905M256.09 115.661C259.046 116.597 265.419 118.305 267.265 117.659C269.112 117.012 270.754 123.602 271.345 126.978C270.421 127.301 268.448 126.38 267.939 120.11C268.111 115.213 277.171 116.877 279.941 115.907C282.71 114.937 279.462 125.21 278.788 122.759C278.114 120.308 280.749 118.848 283.634 114.614C286.518 110.379 291.463 121.007 292.694 116.277C293.924 111.547 299.695 115.975 306.235 115.834C312.775 115.693 306.429 127.588 305.583 130.034C304.737 132.48 263.769 143.602 252.688 134.586C241.607 125.569 249.647 121.679 249.897 118.905M256.09 115.661C253.16 115.434 247.172 115.99 246.665 120.037C246.031 125.095 256.094 141.454 274.713 139.232C293.332 137.011 308.538 131.577 308.41 127.432C308.283 123.286 309.159 119.109 305.965 114.854C303.41 111.449 306.939 107.348 309.022 105.723C309.418 102.254 309.353 95.1429 305.924 94.4482C301.637 93.5798 271.626 80.1281 258.875 92.6538C246.124 105.18 244.343 109.745 248.415 113.513C251.672 116.527 250.76 118.364 249.897 118.905" stroke="#E3E3E3"/>
</svg>
