<svg xmlns="http://www.w3.org/2000/svg" width="332" height="116" fill="none" viewBox="0 0 332 116"><path stroke="#EEEDE3" d="M51.1335 102.672C48.3906 102.672 49.5963 94.6274 50.7826 89.5097C50.9424 88.8203 50.3705 88.1714 49.6661 88.2402C41.6204 89.0259 26.782 88.6367 25.365 81.5064C23.4795 72.0185 26.736 71.8195 29.7645 66.9097C36.0672 56.692 54.9046 58.1518 65.5891 61.8009C76.2736 65.4501 74.3881 69.0993 75.0166 77.8573C75.6452 86.6154 84.4441 102.672 86.9581 99.0226C89.4721 95.3735 191.918 99.0226 187.518 99.0226C183.999 99.0226 186.052 93.6705 187.518 90.9944C187.518 90.9944 231.777 84.6524 219.572 88.0749C213.531 89.7687 209.39 93.9136 203.859 90.9944C196.946 87.3454 204.608 75.6929 210.773 72.0185C218.79 67.24 228.94 74.9377 230.885 85.1557C232.225 92.1962 230.247 97.5721 225.857 102.672C218.173 111.598 206.373 104.861 198.203 99.0226C190.032 93.184 196.946 89.5347 198.203 77.8573C199.46 66.1799 210.506 65.7414 219.572 66.9097C229.287 68.1616 236.485 74.2045 239.055 85.1557C240.817 92.6613 240.502 98.5869 236.541 104.861C231.768 112.422 225.131 112.798 217.058 112.889C206.189 113.012 196.317 102.672 191.918 99.0226C187.518 95.3735 190.29 88.0806 191.918 81.5064C194.047 72.9051 197.083 67.5234 203.859 63.2606C210.779 58.908 223.252 59.5774 230.885 61.8009C239.139 64.2053 242.198 75.6677 242.198 75.6677C242.198 75.6677 243.642 95.2273 251.625 97.5628C256.247 98.9148 254.768 97.5628 263.567 94.6435C272.366 91.7241 294.992 94.6435 296.878 93.1839C298.763 91.7243 294.992 81.5064 289.964 81.5064C284.936 81.5064 261.053 80.7767 257.282 85.1557C253.511 89.5347 271.109 88.0749 276.766 88.0749C282.422 88.0749 294.992 88.0749 298.135 81.5064C301.277 74.938 294.992 75.6677 293.107 70.559C291.221 65.4502 294.364 56.692 294.992 51.5833C295.621 46.4745 275.508 48.6639 266.709 48.6639C257.91 48.6639 205.745 20.9374 198.203 15.0915C190.661 9.24552 125.297 17.2809 127.811 19.4705C130.325 21.6601 137.238 26.7689 137.238 23.8495C137.238 20.9302 174.32 21.6599 183.119 21.6599C191.918 21.6599 228.999 46.4743 230.885 48.6639C232.77 50.8536 256.653 51.5833 259.796 48.6639C262.938 45.7446 195.06 14.3616 187.518 15.0915C179.976 15.8213 189.404 41.3656 189.404 45.0148C189.404 48.6639 228.371 46.4743 230.885 45.0148C233.399 43.5552 194.432 23.8495 189.404 26.7689C184.376 29.6882 183.119 45.0148 187.518 48.6639C191.918 52.3131 180.605 92.4539 176.205 90.9944C171.806 89.5349 106.442 92.4539 108.956 90.9944C111.47 89.5349 111.47 58.8816 110.213 51.5833C108.956 44.2849 125.297 48.6639 127.811 48.6639C130.325 48.6639 137.867 30.418 141.638 23.8495C145.409 17.281 185.633 23.8495 185.633 26.7689C185.633 29.6882 181.862 42.8253 180.605 45.0148C179.348 47.2043 139.752 44.2849 132.839 45.0148C125.925 45.7446 107.699 39.9059 106.442 37.7164C105.436 35.9648 118.593 24.8226 125.297 19.4705C126.973 20.2003 130.953 22.0979 133.467 23.8495C136.61 26.039 127.811 50.8534 123.411 46.4743C119.012 42.0952 82.6518 43.177 56.7901 46.4743C38.4154 48.8171 14.6805 56.692 10.281 56.692C5.8815 56.692 4.62449 78.5871 2.11049 75.6677C0.0992857 73.3322 1.27249 85.8854 2.11049 92.4539C4.834 90.9942 11.1609 88.0749 14.6805 88.0749C19.08 88.0749 20.9655 85.1556 19.7085 81.5064C18.4515 77.8573 10.281 82.2363 4.62449 81.5064C-1.03202 80.7766 1.48199 84.4258 2.11049 88.0749C2.73899 91.724 7.1385 88.0749 10.281 88.0749C12.795 88.0749 13.0045 90.9942 12.795 92.4539C17.823 91.7241 28.2561 91.7242 29.7645 97.5628C31.65 104.861 49.912 119.494 62.4466 112.889C68.9284 109.474 72.8006 105.418 75.0166 97.5628C78.5714 84.963 72.5841 73.0101 62.4466 66.9097C52.5222 60.9374 41.6244 62.3526 34.164 72.0185C26.3008 82.2064 25.4426 97.853 34.164 107.051C39.2807 112.447 51.1335 118.203 51.1335 112.889C51.1335 107.051 53.0072 105.684 51.1335 102.672ZM51.1335 102.672C54.9045 102.672 63.2785 99.644 65.5891 92.4539C67.6089 86.1687 66.6262 80.2989 62.4466 75.6677C57.297 69.9615 49.8442 70.6015 44.2201 75.6677C38.9444 80.4199 37.1523 87.2608 39.192 94.6435C40.5747 99.6477 48.4837 98.4111 51.1335 102.672ZM151.5 6.99992C180.895 3.99992 242.072 -1.10008 251.625 2.49992M224 12.9999C241.167 11.3332 278.1 8.49988 288.5 10.4999M270 37.7164C288.333 35.2836 326.2 31.8777 331 37.7164" opacity=".8"/></svg>