<svg width="733" height="615" viewBox="0 0 733 615" fill="none" xmlns="http://www.w3.org/2000/svg">
<path d="M330.558 150.054C323.246 155.785 311.876 145.025 307.104 138.928L290.643 138.306C295.237 142.082 305.485 152.246 309.728 162.692C315.032 175.749 271.244 173.185 265.316 176.601C260.574 179.335 230.747 173.779 216.426 170.659C190.452 184.051 138.437 211.379 138.172 213.554C132.3 216.518 120.455 223.262 120.058 226.523C119.662 229.784 98.3476 246.41 87.74 254.315C85.2441 252.173 78.834 250.488 73.1601 260.886C67.4862 271.284 46.3512 262.247 36.4929 256.429C35.1348 256.264 32.9379 258.466 35.0142 268.593C37.6098 281.253 77.3153 283.389 83.4447 289.651C89.574 295.913 107.43 307.737 110.807 302.631C114.184 297.525 128.462 304.777 134.096 315.116C138.603 323.387 161.654 318.926 172.616 315.661C177.186 312.079 188.877 306.604 199.08 313.361C211.835 321.807 234.445 283.181 238.11 287.047C241.774 290.914 255.404 258.146 256.064 252.71C256.725 247.275 272.417 220.218 275.133 220.548C277.849 220.879 299.34 202.804 300.001 197.367C300.529 193.018 311.918 174.91 317.546 166.4L331.86 184.69C338.54 193.225 332.379 221.991 328.464 235.306C324.641 225.188 315.365 204.752 308.846 203.96C300.698 202.969 316.241 233.821 313.525 233.491C310.809 233.16 274.638 224.626 270.93 232.451C267.223 240.276 301.67 240.324 303.89 244.732C305.666 248.259 292.444 255.753 285.611 259.059C296.684 254.889 318.663 247.907 318.003 253.342C317.342 258.778 337.866 256.216 348.21 254.256C345.939 252.077 342.861 249.34 339.771 246.957C347.042 246.509 355.959 244.874 361.919 243.511C363.442 242.317 365.058 238.1 359.332 230.783C355.287 225.614 348.006 225.339 343.664 226.226C344.536 218.619 336.539 195.56 339.182 192.476C342.394 188.729 375.995 241.084 378.216 245.492C380.436 249.9 357.954 276.128 357.294 281.564C356.633 287 324.479 313.433 318.056 320.927C311.633 328.421 282.82 338.711 288.619 347.691C294.418 356.671 275.386 399.869 274.725 405.305C274.064 410.741 237.42 428.768 232.276 448.415C228.16 464.133 217.69 462.594 212.969 459.86C211.788 462.015 213.501 466.821 229.798 468.801C250.168 471.278 254.573 469.055 253.71 464.812C252.848 460.57 279.312 458.27 285.937 460.455C292.562 462.639 294.544 446.33 307.794 450.699C321.044 455.068 358.226 409.939 368.228 407.017C378.23 404.095 369.79 314.804 365.019 308.707C360.248 302.61 374.581 275.391 375.903 264.518C377.225 253.645 385.574 264.314 396.274 266.994C404.833 269.138 417.527 296.223 422.804 309.498C418.729 310.97 415.555 312.442 415.432 313.456C415.102 316.173 407.614 309.748 399.135 311.475C390.657 313.202 387.977 323.91 378.801 320.036C371.46 316.937 408.531 347.555 402.988 347.801C420.661 372.475 408.559 390.405 418.733 388.332C427.248 397.643 452.009 381.344 451.514 385.42C451.117 388.681 445.792 390.701 443.178 391.304C440.132 393.691 432.343 398.812 425.56 400.194C417.081 401.922 402.675 407.067 384.525 408.998C366.375 410.929 364.263 439.634 363.718 444.12C363.173 448.606 354.83 460.554 351.784 462.942C348.737 465.33 346.827 503.714 355.177 514.383C361.857 522.919 348.478 558.162 340.953 574.716C345.125 570.626 354.794 562.883 360.094 564.63C365.394 566.378 386.32 541.614 396.12 529.014C399.473 516.55 407.841 491.547 414.492 491.252C421.142 490.957 436.404 466.149 443.204 453.782C445.248 456.708 447.417 458.956 448.664 459.548C452.573 461.402 462.281 472.236 460.133 489.904C458.415 504.038 466.978 524.295 471.474 532.657C476.686 535.13 486.977 541.162 486.449 545.511C485.92 549.86 492.883 575.715 496.431 588.099L498.248 573.149C499.239 564.994 504.635 554.617 504.966 551.899C505.296 549.181 511.848 529.29 517.445 528.591C523.043 527.892 544.609 429.836 534.772 431.399C524.935 432.961 524.238 427.36 517.081 418.215C509.924 409.07 510.053 396.674 504.29 398.732C499.68 400.378 481.852 386.81 473.514 379.82C481.953 378.419 500.188 378.064 505.612 387.859C512.392 400.103 540.224 386.55 549.069 393.142C557.915 399.734 618.881 363.011 627.36 361.284C635.838 359.556 648.539 300.418 656.688 301.408C661.601 302.005 663.813 287.729 666.682 273.204C668.844 272.239 670.514 271.207 671.517 270.111C679.464 261.423 712.681 248.911 712.314 240.591C711.947 232.272 682.768 234.241 674.16 248.366C670.743 253.972 668.57 263.642 666.682 273.204C655.135 278.354 629.528 281.605 616.24 282.7C594.261 289.682 549.739 308.267 547.493 326.751C544.684 349.855 513.687 366.774 503.19 373.773C492.692 380.772 469.073 371.005 468.872 361.327C468.67 351.648 476.488 355.357 482.251 353.299C488.013 351.241 502.254 347.455 516.661 342.311C531.067 337.166 514.863 311.751 510.789 311.256C506.715 310.761 474.948 300.004 457.825 304.818C448.275 307.503 441.722 306.692 437.116 305.127C433.464 303.886 431.035 302.172 429.306 301.352C425.397 299.497 397.228 247.803 403.027 256.783C408.826 265.762 447.053 280.063 457.055 277.142C465.057 274.804 432.274 258.039 414.883 249.949C427.558 251.49 454.883 256.466 462.781 264.046C472.654 273.521 525.747 267.562 526.738 259.408C527.729 251.253 559.387 228.898 568.233 235.49C577.078 242.081 610.315 184.06 616.537 166.887C621.514 153.148 653.162 141.457 668.364 137.329L634.413 133.202C627.237 135.548 609.222 140.897 594.57 143.53C576.255 146.82 563.996 134.296 558.765 143.315C554.581 150.53 530.729 166.111 519.326 173C512.316 173.987 498.096 177.591 497.303 184.114C496.312 192.268 477.666 198.277 466.802 196.956C455.938 195.636 454.12 210.586 447.367 220.798C440.613 231.01 404.845 241.833 392.292 243.065C379.739 244.298 333.347 172.459 337.054 164.635C340.761 156.811 357.92 163.034 380.512 169.917C398.441 169.799 435.751 166.704 441.551 155.271L448.139 146.417C465.042 143.415 499.925 135.335 504.242 127.033C509.638 116.656 530.834 112.336 538.983 113.327C547.131 114.317 573.595 112.018 574.421 105.222C575.081 99.7859 609.932 85.1738 627.275 78.5473C617.206 78.2428 593.331 76.6279 578.385 72.6045C559.703 67.5753 544.966 75.438 535.46 74.2825C525.954 73.127 502.041 77.116 480.349 85.5124C458.656 93.9088 468.658 90.9872 453.426 102.927C444.167 110.185 430.82 113.378 423.605 114.989C430.367 107.584 436.793 79.7618 445.003 70.1827C452.711 61.1898 458.125 52.9294 459.869 49.9233C452.075 53.5731 434.554 60.9135 426.816 61.0763C417.145 61.2799 389.267 97.8866 387.45 112.836C385.633 127.786 339.697 142.89 330.558 150.054Z" fill="#874D4D"/>
<path d="M465.733 387.149C473.386 392.216 464.907 393.945 464.411 398.021C463.916 402.097 452.133 431.007 441.966 435.288C435.043 438.203 438.841 447.537 443.204 453.782M443.204 453.782C445.248 456.708 447.417 458.956 448.664 459.548C452.573 461.402 462.281 472.236 460.133 489.904C458.415 504.038 466.978 524.295 471.474 532.657C476.685 535.13 486.977 541.162 486.449 545.511C485.92 549.86 492.883 575.715 496.431 588.099C496.706 585.834 497.455 579.672 498.248 573.149C499.239 564.994 504.635 554.617 504.966 551.899C505.296 549.181 511.848 529.29 517.445 528.591C523.043 527.892 544.609 429.836 534.772 431.399C524.935 432.961 524.238 427.36 517.081 418.215C509.924 409.07 510.053 396.674 504.29 398.732C499.68 400.378 481.852 386.81 473.514 379.82C481.953 378.419 500.188 378.064 505.612 387.859C512.392 400.103 540.224 386.55 549.069 393.142C557.915 399.734 618.881 363.011 627.36 361.284C635.838 359.556 648.539 300.418 656.688 301.408C664.836 302.399 665.553 262.49 674.16 248.366C682.768 234.241 711.947 232.272 712.314 240.591C712.681 248.911 679.464 261.423 671.517 270.111C665.16 277.061 632.017 281.399 616.24 282.7C594.261 289.682 549.739 308.267 547.493 326.751C544.684 349.855 513.687 366.774 503.19 373.773C492.692 380.772 469.073 371.005 468.872 361.327C468.67 351.648 476.488 355.357 482.251 353.299C488.013 351.241 502.254 347.455 516.661 342.311C531.067 337.166 514.863 311.751 510.789 311.256C506.715 310.761 474.948 300.004 457.825 304.818C448.275 307.503 441.722 306.692 437.116 305.127M443.204 453.782C436.404 466.149 421.142 490.957 414.492 491.252C407.841 491.547 399.473 516.55 396.12 529.014C386.32 541.614 365.394 566.378 360.094 564.63C354.794 562.883 345.125 570.626 340.953 574.716C348.478 558.162 361.857 522.919 355.177 514.383C346.827 503.714 348.737 465.33 351.783 462.942C354.83 460.554 363.173 448.606 363.718 444.12C364.263 439.634 366.375 410.929 384.525 408.998C402.675 407.067 417.081 401.922 425.56 400.194C432.343 398.812 440.132 393.691 443.178 391.304C445.792 390.701 451.117 388.681 451.514 385.42C452.009 381.344 427.248 397.643 418.733 388.332C408.559 390.405 420.661 372.475 402.988 347.801C408.531 347.555 371.46 316.937 378.801 320.036C387.977 323.91 390.657 313.202 399.135 311.475C407.614 309.748 415.102 316.173 415.432 313.456C415.555 312.442 418.729 310.97 422.804 309.498M437.116 305.127C433.464 303.886 431.035 302.172 429.306 301.352C425.397 299.497 397.228 247.803 403.027 256.783C408.826 265.762 447.053 280.063 457.055 277.142C465.057 274.804 432.274 258.039 414.883 249.949C427.558 251.49 454.883 256.466 462.781 264.046C472.654 273.521 525.747 267.562 526.738 259.408C527.729 251.253 559.387 228.898 568.233 235.49C577.078 242.081 610.315 184.06 616.537 166.887C621.514 153.148 653.162 141.457 668.364 137.329L634.413 133.202C627.237 135.548 609.222 140.897 594.57 143.53C576.255 146.82 563.996 134.296 558.765 143.315C554.581 150.53 530.729 166.111 519.326 173C512.316 173.987 498.096 177.591 497.303 184.114C496.312 192.268 477.666 198.277 466.802 196.956C455.938 195.636 454.12 210.586 447.367 220.798C440.613 231.01 404.845 241.833 392.292 243.065C379.739 244.297 333.347 172.459 337.054 164.635C340.761 156.811 357.92 163.034 380.512 169.917C398.441 169.799 435.751 166.704 441.551 155.271L448.139 146.417C465.042 143.415 499.925 135.335 504.242 127.033C509.638 116.656 530.834 112.336 538.983 113.327C547.131 114.317 573.595 112.018 574.421 105.222C575.081 99.7859 609.932 85.1738 627.275 78.5473C617.206 78.2428 593.331 76.6279 578.385 72.6045C559.703 67.5753 544.966 75.438 535.46 74.2825C525.954 73.1269 502.041 77.116 480.349 85.5124C458.656 93.9088 468.658 90.9872 453.426 102.927C438.193 114.867 411.895 115.808 420.043 116.798C428.191 117.789 435.368 81.4239 445.003 70.1827C452.711 61.1898 458.125 52.9294 459.869 49.9233C452.075 53.5731 434.554 60.9135 426.816 61.0763C417.145 61.2798 389.267 97.8866 387.45 112.836C385.633 127.786 339.697 142.89 330.558 150.054C323.246 155.785 311.876 145.025 307.104 138.928L290.643 138.306C295.237 142.082 305.485 152.246 309.728 162.692C315.032 175.749 271.244 173.185 265.316 176.601C260.574 179.335 230.747 173.779 216.426 170.659C190.452 184.051 138.437 211.379 138.172 213.554C132.3 216.518 120.455 223.262 120.059 226.523C119.662 229.784 98.3476 246.41 87.7399 254.315C85.2441 252.173 78.834 250.488 73.1601 260.886C67.4862 271.284 46.3511 262.247 36.4929 256.429C35.1348 256.264 32.9378 258.466 35.0142 268.593C37.6098 281.253 77.3153 283.389 83.4446 289.651C89.574 295.913 107.43 307.737 110.807 302.631C114.184 297.525 128.462 304.777 134.096 315.116C138.603 323.387 161.654 318.926 172.616 315.661C177.186 312.079 188.877 306.604 199.08 313.361C211.835 321.807 234.445 283.181 238.11 287.047C241.774 290.914 255.404 258.146 256.064 252.71C256.725 247.275 272.417 220.218 275.133 220.548C277.849 220.879 299.34 202.804 300.001 197.367C300.529 193.018 311.918 174.91 317.546 166.4C319.534 168.941 325.18 176.155 331.86 184.69C338.54 193.225 332.379 221.991 328.464 235.306C324.641 225.188 315.365 204.752 308.846 203.96C300.698 202.969 316.241 233.821 313.525 233.491C310.809 233.16 274.638 224.626 270.93 232.451C267.223 240.276 301.67 240.324 303.89 244.732C305.666 248.259 292.444 255.753 285.611 259.059C296.684 254.889 318.663 247.907 318.003 253.342C317.342 258.778 337.866 256.216 348.21 254.256C341.628 247.94 328.265 236.937 327.473 243.46C326.68 249.984 350.107 246.212 361.919 243.511C363.442 242.317 365.058 238.1 359.332 230.783C352.175 221.638 334.887 227.812 341.677 228.637C348.468 229.463 335.971 196.223 339.182 192.476C342.394 188.729 375.995 241.084 378.216 245.492C380.436 249.9 357.954 276.128 357.294 281.564C356.633 287 324.479 313.433 318.056 320.927C311.633 328.421 282.82 338.711 288.619 347.691C294.418 356.671 275.386 399.869 274.725 405.305C274.064 410.741 237.42 428.768 232.276 448.415C228.16 464.133 217.69 462.594 212.969 459.86C211.788 462.015 213.501 466.821 229.798 468.801C250.168 471.278 254.573 469.055 253.71 464.812C252.848 460.57 279.312 458.27 285.937 460.455C292.562 462.639 294.544 446.33 307.794 450.699C321.044 455.068 358.226 409.939 368.228 407.017C378.23 404.095 369.79 314.804 365.019 308.707C360.248 302.61 374.581 275.391 375.903 264.518C377.225 253.645 385.574 264.314 396.274 266.994C404.833 269.138 417.527 296.223 422.804 309.498M437.116 305.127C433.316 306.125 427.469 307.812 422.804 309.498" stroke="#874D4D"/>
</svg>
