<svg xmlns="http://www.w3.org/2000/svg" width="409" height="475" fill="none" viewBox="0 0 409 475"><path stroke="#874D4D" d="M270 398.016C275.5 403.516 283 405.016 284.5 404.516C286 404.016 296.5 419.016 299 417.516C301.5 416.016 311 412.516 314 417.516C317 422.516 321 431.516 328 431.016C335 430.516 341.5 431.016 345 431.016C348.5 431.016 362 438.016 363 434.516C364 431.016 382.5 428.016 387.5 428.516C392.5 429.016 408.5 432.016 408.5 434.516C408.5 437.016 405.5 420.016 396.5 417.516C387.5 415.016 386 404.016 385.5 401.016C385 398.016 365.5 375.516 360 378.516C354.5 381.516 353.5 383.016 345 378.516C336.5 374.016 324.5 363.016 314 365.016C303.5 367.016 304 359.016 299 361.016C294 363.016 280.5 372.516 279.5 374.516C278.5 376.516 273.5 382.016 270 382.016M273 387.516C279.5 386.016 275 382.016 291 382.016C303.8 382.016 310.333 375.016 312 371.516L301 382.016C305.333 381.016 314 379.616 314 382.016C314 385.016 330 404.516 328 407.516C326 410.516 313.5 382.016 317.5 382.016C320.7 382.016 334.167 387.349 340.5 390.016L355.5 398.016C356.833 397.516 361.2 399.316 368 410.516"/><path stroke="#874D4D" d="M260.5 296.016C268.5 292.016 284.9 284.416 286.5 286.016C288.1 287.616 300.167 284.683 306 283.016C315.5 284.516 334.5 287.916 334.5 289.516C334.5 291.516 348 303.516 349.5 303.516C350.7 303.516 366.667 326.849 374.5 338.516C376.167 345.016 380.1 358.416 382.5 360.016C384.9 361.616 385.833 373.349 386 379.016C389 383.849 394.5 393.716 392.5 394.516C390 395.516 386 382.016 382.5 382.016C379 382.016 372 374.016 370.5 376.516C369 379.016 356.5 381.516 353 379.016C349.5 376.516 315 358.016 313 360.016C311 362.016 284.5 341.516 286.5 338.516C288.5 335.516 276.5 322.516 276 317.516C275.5 312.516 264.5 303.516 262.5 303.516M268 299.016C271 299.016 293 304.016 294 301.516C295 299.016 307 335.016 310 338.516C312.4 341.316 304 319.683 299.5 308.516C301 306.849 304.4 303.516 306 303.516C308 303.516 311 312.016 319.5 312.016C328 312.016 342.5 305.016 346 308.516C348.8 311.316 326.833 309.683 315.5 308.516C318.5 313.683 325.5 324.016 329.5 324.016C334.5 324.016 346 333.016 346 338.516C346 344.016 345 357.516 351 361.516C355.8 364.716 346.667 344.183 341.5 333.516"/><path stroke="#874D4D" d="M220 286.516C216.667 283.016 209.1 276.316 205.5 277.516C201 279.016 188 283.516 185 281.516C182.6 279.916 173.667 287.182 169.5 291.016C167 293.682 161.1 299.016 157.5 299.016C153 299.016 140.5 321.016 143 322.016C145.5 323.016 143 337.516 140 338.516C137 339.516 141 345.016 134.5 346.516C128 348.016 116.5 352.516 117 354.516C117.5 356.516 129 361.016 134.5 361.016C140 361.016 151.501 354.016 157.5 357.516C163.5 361.016 188 339.516 192 343.016C196 346.516 196.5 334.016 201 333.016C205.5 332.016 206.5 316.516 211.5 314.016C216.5 311.516 220 300.016 220 296.516"/><path stroke="#874D4D" d="M213.5 287.016C207.667 285.183 195.9 282.616 195.5 287.016C195 292.516 194.5 315.516 197.5 316.016C199.9 316.416 195.167 298.849 192.5 290.016C188.167 292.016 179.5 296.716 179.5 299.516C179.5 303.016 167.5 308.016 167 312.016C166.5 316.016 169 320.516 170.5 330.516C171.7 338.516 171 321.516 170.5 312.016C165.833 316.849 156.6 326.916 157 328.516C157.5 330.516 164 346.516 160.5 347.516C157.7 348.316 159.333 332.849 160.5 325.016"/><path stroke="#874D4D" d="M243.5 448.016C243.637 453.82 253.717 457.42 257.5 453.016C261 448.94 258.27 441.055 253 440.016C248.241 439.078 243.385 443.167 243.5 448.016ZM243.5 432.016C239.683 427.654 230.199 434.816 230.999 440.016C231.999 446.516 239.5 444.516 241.5 443.516C243.1 442.716 246.501 435.446 243.5 432.016ZM246 430.016C246.333 435.016 252.45 440.867 256 437.516C259.035 434.65 257.876 428.565 254 427.016C250.901 425.777 245.666 425.016 246 430.016ZM260 432.016C263.59 431.74 266.178 428.612 266 425.016C265.779 420.564 259.755 417.116 256 419.516C253.938 420.833 253.057 422.57 253 425.016C252.908 428.881 256.145 432.312 260 432.016ZM243.5 428.516C239.307 428.001 235.644 423.311 237.5 419.516C238.691 417.079 240.793 416.199 243.5 416.016C247.282 415.759 251.059 417.75 251.5 421.516C251.982 425.639 247.62 429.021 243.5 428.516ZM241.5 412.016C239.5 415.182 235.997 417.616 232.5 416.016C228.557 414.212 230.5 406.849 230.999 405.016C231.499 403.182 243.5 408.849 241.5 412.016ZM238.5 404.516C240.166 401.682 242.126 398.149 246 398.016C250.847 397.849 255.702 402.974 254 407.516C252.742 410.872 249.572 412.309 246 412.016C241.871 411.677 236.834 407.349 238.5 404.516ZM243.5 392.016C247.644 391.776 251.982 389.139 251.5 385.016C251.059 381.25 247.285 379.719 243.5 379.516C239.387 379.295 234.962 380.923 234.5 385.016C234 389.44 239.054 392.273 243.5 392.016ZM260 403.016C264.505 404.574 269.005 400.678 270 396.016C270.912 391.746 269.24 387.057 265 386.016C260.898 385.008 257.44 388.045 256 392.016C254.441 396.313 255.68 401.522 260 403.016ZM264 416.516C267.616 418.399 273.017 417.473 274 413.516C274.934 409.754 271.354 406.423 267.5 406.016C264.103 405.657 260.411 407.125 260 410.516C259.661 413.312 261.502 415.215 264 416.516Z"/><path stroke="#874D4D" d="M226.999 412.016C219.999 412.849 205.999 414.916 205.999 416.516C205.999 418.516 177.999 415.516 178.999 412.016C179.999 408.516 174.5 403.516 169 403.516C163.5 403.516 161 396.516 161 394.516C161 392.516 152 384.516 146.5 384.016C142.1 383.616 140.666 377.182 140.5 374.016C140 370.516 138.3 363.516 135.5 363.516C132 363.516 119.5 349.516 121 347.016C122.5 344.516 115.5 335.016 112.5 333.516C109.5 332.016 135.5 335.516 135.5 333.516M226.999 400.016C224.666 395.516 218.6 386.516 213 386.516C205.999 386.516 209 358.516 213 361.016C216.2 363.016 212 380.182 209.5 388.516L187.5 371.516C177.5 372.849 158.199 375.916 161 377.516C163.8 379.116 178.833 371.516 186 367.516C187.5 362.682 189.6 353.016 186 353.016C182.4 353.016 187.833 364.016 191 369.516M234 374.016C222.833 361.849 200.2 337.916 199 339.516"/><path stroke="#874D4D" d="M240.5 445.516C240.5 453.849 240.5 470.716 240.5 471.516C240.5 472.516 247.5 475.516 247.5 471.516C247.5 467.516 244.5 455.516 246 454.516"/><path stroke="#874D4D" d="M252 324.516C254.921 321.242 261.534 326.128 261.5 330.516C261.469 334.392 257.532 338.612 254 337.016M252 324.516C250.419 326.288 250.743 328.154 251 330.516C251.303 333.295 251.452 335.865 254 337.016M252 324.516L251 319.516M254 337.016L253.691 349.569M246 366.516C248 353.016 250.8 325.116 246 321.516M253.691 349.569C249.488 350.427 247.545 356.123 249.5 360.016C250.117 361.245 250.98 362.312 252 363.081M253.691 349.569C253.793 349.549 253.896 349.531 254 349.516C258.239 348.906 261.651 353.236 261.5 357.516C261.394 360.495 260.3 362.994 257.5 364.016C255.511 364.742 253.57 364.265 252 363.081M252 363.081V367.165M252 367.165C252.336 367.26 252.67 367.377 253 367.516C257.589 369.445 259.184 376.667 255.5 380.016C251.926 383.265 245.49 381.417 243.5 377.016C242.454 374.703 242.329 372.768 243.5 370.516C245.13 367.381 248.676 366.223 252 367.165ZM263.5 374.016C263.393 370.497 265.124 367.516 268.5 366.516C272.886 365.216 277.533 369.441 277.5 374.016C277.47 378.022 274.506 381.516 270.5 381.516C266.493 381.516 263.621 378.02 263.5 374.016Z"/><path stroke="#874D4D" d="M249 276.016C250.167 274.349 253 271.216 255 272.016C257.5 273.016 279.5 264.516 279.5 263.016C279.5 261.516 290.5 247.016 292.5 247.516C294.5 248.016 294 237.516 292.5 234.016C291 230.516 290.5 227.016 292.5 225.516M236.5 274.516C238.5 272.849 242.2 269.316 241 268.516C239.8 267.716 240.5 253.183 241 246.016C243.833 240.849 249.9 230.516 251.5 230.516C253.5 230.516 260.5 225.516 259.5 223.516M246.5 268.516C247 266.183 248.7 261.016 251.5 259.016C254.3 257.016 251 247.849 249 243.516C249.5 246.349 251.4 252.416 255 254.016C258.6 255.616 270.833 253.016 276.5 251.516C269.333 252.683 255 255.416 255 257.016C255 259.016 257.5 241.516 261 240.516C264.5 239.516 270 234.516 276.5 235.516C281.7 236.316 264.333 241.183 255 243.516"/><path stroke="#874D4D" d="M224 228.516C232.667 229.516 250.1 230.916 250.5 228.516C251 225.516 256 223.016 259.5 223.016C263 223.016 269 219.016 271 220.016C273 221.016 279 223.016 283 223.016C287 223.016 298 226.016 299 223.016C300 220.016 303 217.516 308 217.516C313 217.516 321.5 214.016 322.5 211.016C323.5 208.016 327 205.016 329.5 205.016C332 205.016 354.5 187.016 352 184.016C349.5 181.016 347 191.516 337.5 189.516C328 187.516 317.5 182.516 316 184.016C314.5 185.516 310 177.016 308 180.516C306 184.016 300 169.016 294 171.016C289.2 172.616 275.667 171.682 269.5 171.016C264.5 174.182 254.6 180.516 255 180.516C255.5 180.516 236 190.016 237.5 192.516C238.7 194.516 234.667 196.682 232.5 197.516C228.667 204.516 221.3 218.816 222.5 220.016M235 211.016C249 211.016 249 215.016 252 217.516C254.4 219.516 244.333 212.682 239 209.016C239.833 206.849 242.4 202.416 246 202.016C250.5 201.516 262 189.016 261.5 186.516C261.1 184.516 253 198.016 249 205.016C254.5 199.849 267 190.116 273 192.516C280.5 195.516 287 208.016 291.5 205.016C295.1 202.616 278.333 196.682 269.5 194.016C277.667 191.016 295 185.916 299 189.516"/><path stroke="#874D4D" d="M232.5 281.516C229.722 284.912 234.116 290.827 238.5 291.016C241.974 291.165 245.352 288.989 245.5 285.516C245.654 281.919 242.087 279.834 238.5 279.516C236.04 279.298 234.064 279.604 232.5 281.516ZM238.5 297.516C239.659 294.588 242.486 292.606 245.5 293.516C248.594 294.45 249.954 297.928 249 301.016C247.887 304.619 242.963 306.849 240 304.516C237.804 302.786 237.471 300.115 238.5 297.516ZM241.5 310.016C239.772 313.452 241.715 318.336 245.5 319.016C249.044 319.652 252.328 316.612 252.5 313.016C252.653 309.817 250.679 306.902 247.5 306.516C244.807 306.189 242.719 307.592 241.5 310.016ZM230.5 310.016C229.38 313.183 232.254 316.152 235.5 317.016C238.876 317.914 242.742 316.426 243.5 313.016C244.373 309.086 239.477 305.894 235.5 306.516C233.145 306.884 231.295 307.769 230.5 310.016ZM257.5 293.516C259.92 294.956 261.638 296.703 261.5 299.516C261.303 303.532 255.234 307.249 252.5 304.516C249.767 301.782 248.234 300.249 245.5 297.516C242.767 294.782 253.255 290.99 257.5 293.516ZM228.5 297.516C226.557 299.591 225.119 302.031 226.5 304.516C228.207 307.588 232.227 305.797 235.5 304.516C238.34 303.404 240.765 302.476 241.5 299.516C242.738 294.531 232.012 293.767 228.5 297.516ZM226.5 283.516C222.66 285.231 219.454 290.615 222.5 293.516C224.762 295.67 227.701 294.904 230.5 293.516C233.8 291.878 236.979 288.89 235.5 285.516C234.055 282.218 229.788 282.048 226.5 283.516Z"/><path stroke="#874D4D" d="M227.5 260.516C231.167 264.849 238.1 273.616 236.5 274.016M229 271.016C228.666 269.349 227.499 266.016 225.5 266.016M195.5 241.516C189.167 245.183 176.5 253.316 176.5 256.516C176.5 260.516 170 272.016 170 274.016C170 276.016 166 283.516 164 283.516C162 283.516 165 294.016 160 294.516C155 295.016 137 321.516 139 323.516C141 325.516 130.5 313.016 130 305.016C129.5 297.016 127 291.016 130 289.516C133 288.016 141 281.016 141.5 278.516C142 276.016 144.5 271.516 148 269.516C151.5 267.516 145 257.016 148 255.016C151 253.016 161 246.016 160 243.516C159 241.016 161.5 236.516 164 236.516M227.5 274.016C224.111 274.442 220.185 279.581 223 281.516C224.958 282.861 226.975 281.758 229 280.516C230.898 279.352 233.163 278.141 232.5 276.016C231.873 274.008 229.586 273.754 227.5 274.016ZM227.5 250.016C231.588 251.461 236.346 247.849 236.5 243.516C236.658 239.066 231.7 235.038 227.5 236.516C224.434 237.595 222.889 240.268 223 243.516C223.105 246.601 224.589 248.987 227.5 250.016ZM210 253.016C213.3 252.522 216.528 253.01 218 250.016C220.011 245.925 214.242 243.183 210 241.516C206.365 240.087 202.828 238.823 200 241.516C197.03 244.344 197.188 249.031 200 252.016C202.69 254.873 206.118 253.596 210 253.016ZM208.5 238.016C211.655 238.402 214.37 238.875 216.5 236.516C219.955 232.69 213.654 226.103 208.5 226.016C204.074 225.941 198.964 229.212 200 233.516C200.878 237.168 204.772 237.56 208.5 238.016Z"/><path stroke="#874D4D" d="M160 179.016C158.5 179.016 144 180.516 144 184.016C144 187.516 136.5 190.016 132 193.516C127.5 197.016 122.5 209.516 123 211.016C123.5 212.516 120.5 221.516 116.5 224.516C112.5 227.516 109.5 244.016 110.5 246.016C111.5 248.016 109.5 258.516 113 263.016C116.5 267.516 118.5 282.016 116.5 284.016C114.5 286.016 108 289.016 107 291.516C106 294.016 105.5 299.016 107 299.016C108.5 299.016 116 290.516 120.5 293.016C124.1 295.016 132.333 286.183 136 281.516C138.333 277.016 143.5 268.016 145.5 268.016C148 268.016 144 252.016 145.5 250.516C147 249.016 157 250.516 157 243.516C157 236.516 154 235.516 160 233.016C166 230.516 163 226.516 163 224.516C163 222.516 160 220.516 163 218.516C166 216.516 158 204.516 163 202.516C168 200.516 166 197.516 164.5 195.516C163.3 193.916 163 187.183 163 184.016M158.5 184.016C155.5 185.516 151.5 200.016 148.5 202.516C145.5 205.016 161 225.516 157 214.016C153.8 204.816 147 202.516 144 202.516C142.667 204.349 139.2 209.216 136 214.016C132 220.016 120 241.516 119 235.016C118.2 229.816 130 221.849 136 218.516C132.833 224.016 127.2 236.116 130 240.516C133.5 246.016 139.5 258.516 140.5 254.516C141.3 251.316 130.5 243.849 125 240.516M160 173.516C161.833 177.683 165.9 185.616 167.5 184.016C169.1 182.416 166.167 173.016 164.5 168.516C168.333 168.349 176 167.516 176 165.516C176 163.016 164.5 161.016 163 162.516C161.5 164.016 167.5 150.516 163 150.516C158.5 150.516 155 161.516 156 163.516C156.8 165.116 149 162.849 145 161.516L156 171.016C153.5 171.349 148.5 172.716 148.5 175.516C148.5 178.316 156.167 175.349 160 173.516Z"/><path stroke="#874D4D" d="M196 174.016C195.667 176.849 195.8 182.816 199 184.016C203 185.516 205 176.016 202 174.016C199 172.016 193 170.016 200.5 170.516C208 171.016 214 169.016 213 168.016C212.2 167.216 203.333 166.016 199 165.516C202.667 163.349 209.4 158.416 207 156.016C204 153.016 193 157.516 194.5 161.516C196 165.516 180.5 150.516 180.5 156.016C180.5 161.516 187 163.016 189 165.516C190.6 167.516 186.333 172.016 184 174.016H194.5M146.5 116.016C150.5 119.349 158.7 125.616 159.5 124.016C160.3 122.416 156.166 118.016 154 116.016C156.333 117.182 161.5 118.816 163.5 116.016C165.5 113.216 158 111.516 154 111.016C157 107.016 161.2 99.6158 154 102.016C146.8 104.416 146 109.016 146.5 111.016C144 107.682 138.6 101.516 137 103.516C135.4 105.516 139.666 109.349 142 111.016L137 116.016H146.5Z"/><path stroke="#874D4D" d="M175.5 171.016C179.667 176.683 188.6 187.716 191 186.516C194 185.016 201.5 203.516 197 204.516C192.5 205.516 193 214.516 194 216.016C194.8 217.216 192.333 222.516 191 225.016C190 228.016 188.3 234.416 189.5 236.016C191 238.016 181.5 240.516 183 247.016C184.2 252.216 187.833 254.516 189.5 255.016C185.333 252.349 177 245.916 177 241.516C177 236.016 168.5 239.516 169 234.016C169.5 228.516 169 229.516 166 225.016C163 220.516 165 210.516 164.5 206.516C164 202.516 166 194.016 169 193.016C172 192.016 177 182.516 175.5 180.516C174 178.516 167.5 168.016 166 167.516M180 184.516C179.5 190.016 174 194.516 180 199.516C186 204.516 193 213.016 189.5 214.516C186.7 215.716 182 202.349 180 195.516C180 198.849 179.1 206.916 175.5 212.516C171 219.516 166.5 227.016 169 225.016C171 223.416 174.167 212.016 175.5 206.516"/><path stroke="#874D4D" d="M207.5 155.016C210.5 155.683 216.7 156.216 217.5 153.016C218.5 149.016 221.5 146.016 224.5 148.016C227.5 150.016 239.5 139.516 239.5 136.516C239.5 133.516 240 130.016 241.5 129.516C243 129.016 243.5 121.516 246.5 121.516C249.5 121.516 240 121.016 246.5 117.016C253 113.016 256.5 106.516 256.5 104.516C256.5 102.516 252 88.5159 258 87.0159C262.8 85.8159 265.333 82.8492 266 81.5159C260.5 84.3492 248.5 90.0159 244.5 90.0159C239.5 90.0159 229.5 90.0159 231 93.0159C232.5 96.0159 213 95.5159 212.5 100.016C212 104.516 199.5 110.516 196 115.016C192.5 119.516 190 134.516 185 136.516C181 138.116 178.667 140.849 178 142.016M161 145.016C163.333 142.349 168.6 137.316 171 138.516C173.4 139.716 169 134.683 166.5 132.016C168.667 130.849 173.5 129.516 175.5 133.516C177.5 137.516 176.333 142.849 175.5 145.016C178.667 143.016 185.3 139.616 186.5 142.016C187.7 144.416 181.333 146.016 178 146.516C178.833 147.516 180 150.216 178 153.016C176 155.816 172.5 147.849 171 143.516L161 145.016Z"/><path stroke="#874D4D" d="M190.5 136.516C189.5 131.849 190.3 122.616 201.5 123.016C215.5 123.516 236 123.016 235.5 123.016C235.1 123.016 211.667 125.016 200 126.016C201.833 121.682 206.7 112.816 211.5 112.016C213.033 111.76 214.306 111.341 215.5 110.859M215.5 110.859C218.979 109.455 221.8 107.516 228.5 107.516C237.5 107.516 247.5 108.016 244.5 105.016C242.1 102.616 224.167 107.911 215.5 110.859Z"/><path stroke="#874D4D" d="M157.5 152.516C155.5 150.516 152.1 145.916 154.5 143.516C157.5 140.516 165 124.516 170.5 124.516C176 124.516 190.5 116.016 191 112.516C191.4 109.716 194.833 103.682 196.5 101.016C195.333 101.516 192.1 103.116 188.5 105.516C184 108.516 170.5 109.516 170.5 112.516C170.5 115.516 172 106.016 177 101.016C182 96.0158 180.5 99.5158 184.5 92.0158C188.5 84.5158 191 76.0158 191 72.5158C191 69.0158 194.5 64.0158 193.5 57.0158C192.7 51.4158 193.166 42.6825 193.5 39.0158C190.333 45.0158 183.5 57.0158 181.5 57.0158C179 57.0158 177 66.5158 177 69.5158C177 72.5158 174.5 80.0158 170.5 81.5158C167.3 82.7158 162.833 95.0158 161 101.016L157.5 103.016M149.5 124.516C151 133.016 152.5 139.516 149.5 140.516C146.5 141.516 122.5 121.516 123.5 117.016C124.5 112.516 130 100.016 134 98.0158C138 96.0158 143.5 96.0158 143.5 92.0158C143.5 88.0158 146.5 81.5158 149.5 81.5158C151.9 81.5158 153.833 76.5158 154.5 74.0158C157.5 70.1825 164.2 62.2158 167 61.0158C170.5 59.5158 166.5 54.5158 168.5 48.0158C170.1 42.8158 172.833 36.5158 174 34.0158V21.5158C171.833 26.8492 166.2 37.8158 161 39.0158C154.5 40.5158 132 50.0158 134 53.5158C136 57.0158 126.5 67.5158 123.5 67.5158C120.5 67.5158 116 86.5158 119 90.5158C121.4 93.7158 122 103.849 122 108.516C119.833 101.849 115.2 89.2158 114 92.0158C112.5 95.5158 116 110.016 119 112.516C122 115.016 104.5 102.516 104 101.016C103.779 100.352 103.264 99.3957 102.975 98.0158M74.5 84.0158C73.0003 81.0158 71.9996 84.0158 70.5 84.0158C69.0004 84.0158 58 87.0158 56 90.5158C54.6381 92.8991 51.4215 91.1093 49.3497 89.251M49.3497 89.251C48.379 88.3802 47.6595 87.4944 47.5 87.0158C47 85.5158 43.5 81.5158 37 81.5158C31.8 81.5158 24.8333 77.5158 22 75.5158C21.3333 73.5158 19.6 69.5158 18 69.5158C16.4 69.5158 7.33333 65.8492 3 64.0158C3.83333 64.0158 6.1 64.0158 8.5 64.0158C11.5 64.0158 15.5 62.5158 16.5 62.5158C17.5 62.5158 25 61.0158 25.5 59.0158C26 57.0158 62.4999 53.5158 61.4999 57.0158C60.4999 60.5158 62.4999 61.0158 65.4999 64.0158C68.4999 67.0158 72.9996 67.5158 71.9996 69.5158C71.1996 71.1158 75.333 78.1825 77.4996 81.5158C78.3797 78.5158 79.3117 71.9158 75.9997 69.5158C71.8598 66.5158 77.9997 57.0158 75.9997 53.5158C73.9997 50.0158 89.9997 29.5158 90.9997 26.5158C91.9997 23.5158 114 21.5158 114 18.5158C114 15.5158 128.5 17.0158 134 14.5158C139.5 12.0158 141.5 1.51582 138.5 1.01582C135.5 0.51582 129.5 12.0158 126 14.5158C123.2 16.5158 120.166 28.3492 119 34.0158C115.5 41.6825 106.8 57.0158 99.9997 57.0158C91.4997 57.0158 83.9999 67.5158 80.9999 71.0158C77.9999 74.5158 80.4999 83.5158 83.9999 84.0158C87.4999 84.5158 86.4999 81.5158 87.4999 79.5158C88.4999 77.5158 90.4999 72.5158 92.9999 67.5158C95.4999 62.5158 104 69.5158 104 71.0158C104 72.5158 106.5 84.5158 104 90.5158C102.605 93.8623 102.611 96.2756 102.975 98.0158M49.3497 89.251C44.5665 91.1726 34.9 95.6158 34.5 98.0158C34.1 100.416 24.6667 102.349 20 103.016C15 106.016 5.1 112.516 5.5 114.516C5.9 116.516 2.66667 119.682 1 121.016C7.33333 119.016 20.7 115.716 23.5 118.516C27 122.016 41 123.016 42 122.016C43 121.016 47.6995 118.516 49.3497 118.516C51 118.516 61.5 119.016 63 112.516C64.5 106.016 67 101.016 68 98.0158C68.8 95.6158 70.9998 93.0158 71.9996 92.0158C72.3332 91.0942 73.3002 89.251 74.5 89.251C75.9997 89.251 68.9993 97.5158 71.9996 101.016C70.7999 104.616 86.8333 120.516 95 128.016C95.3333 126.016 95.8 121.316 95 118.516C94 115.016 98.0003 114.516 99 111.516C99.9997 108.516 98.0003 105.516 99 105.516C99.3728 105.516 100.046 104.429 100.76 103.016M102.975 98.0158C102.446 99.3504 101.577 101.397 100.76 103.016M100.76 103.016C105.34 105.516 114.6 111.316 115 114.516C115.5 118.516 119 122.016 115 122.016C111 122.016 100.5 126.016 98.5 124.016C96.5 122.016 64.5001 115.016 63 118.516C61.4999 122.016 43.5 133.516 44.5 138.516C45.5 143.516 39.5 143.516 40 146.016C40.5 148.516 38.5 158.016 37 157.516C35.5 157.016 34.5 158.516 34.5 166.016C34.5 172.016 36.1667 172.849 37 172.516C36.2168 170.682 36.1202 166.816 42 166.016C49.3497 165.016 57.5001 152.516 59.5 152.516C61.4999 152.516 77.9999 147.516 80.9999 150.016C83.9999 152.516 89 142.516 92 140.516C95 138.516 106 128.016 108 128.016C110 128.016 120.499 121.016 122 122.016C123.5 123.016 141 137.516 139.5 138.516C138 139.516 126.5 133.516 126.5 136.016C126.5 138.516 129.5 132.516 126.5 129.516C124.1 127.116 122.5 127.516 122 128.016C120.5 132.182 118.1 140.516 120.5 140.516C122.9 140.516 119.5 135.182 117.5 132.516C116.333 136.182 114.5 143.516 116.5 143.516C118.5 143.516 115 151.182 113 155.016C114.5 152.682 117.8 148.216 119 149.016C120.5 150.016 118.999 162.516 122 161.516C125 160.516 123.5 147.016 123.5 146.016C123.5 145.016 134 152.016 134 149.016C134 146.616 127 142.349 123.5 140.516C128.5 139.682 139.2 138.716 142 141.516C144.8 144.316 147.167 146.682 148 147.516C144.667 149.182 137.6 152.516 136 152.516C134 152.516 126.5 159.516 126.5 160.516C126.5 161.516 115.999 166.016 114 166.016C112 166.016 99.5196 169.516 100.76 171.016C102 172.516 87 179.016 89.5 184.016C91.5 188.016 88.9999 192.016 87.4999 193.516C85.8332 197.349 83.2 205.516 86 207.516C89.5 210.016 91.5001 215.516 89.5 216.516C87.4999 217.516 90.9997 224.516 92.9999 227.016C95 229.516 94.0248 244.016 98.5 245.516C102.08 246.716 102.975 246.016 102.975 245.516C101.3 241.682 98.9553 233.616 102.975 232.016C106.995 230.416 106.667 228.016 106 227.016C109.333 223.516 116.3 216.516 117.5 216.516C118.7 216.516 121.667 212.516 123 210.516M142 184.016C141.5 178.682 140.8 167.616 142 166.016C143.5 164.016 144.5 148.016 149 150.516C152.6 152.516 155.833 156.682 157 158.516"/><path stroke="#874D4D" d="M196 204.516C197.333 208.683 200.7 216.916 203.5 216.516M207 209.516C211.833 211.349 221 215.316 219 216.516C217 217.716 213.725 222.266 210 221.016C205.6 219.539 202.167 207.683 207 209.516ZM217.5 221.016C220.416 221.91 222.505 223.966 222.5 227.016C222.496 229.562 221.116 231.1 219 232.516C216.079 234.47 212.671 234.8 210 232.516C205.926 229.031 212.374 219.443 217.5 221.016ZM219 236.516C222.441 236.206 224.488 239.599 225 243.016C225.43 245.887 224.991 248.526 222.5 250.016C218.809 252.223 213.882 247.314 214 243.016C214.088 239.815 215.81 236.803 219 236.516ZM228.5 253.516C231.145 256.697 228.968 262.345 225 263.516C221.974 264.409 218.84 263.372 217.5 260.516C216.312 257.985 217.038 255.508 219 253.516C221.603 250.873 226.128 250.663 228.5 253.516Z"/><path stroke="#874D4D" d="M63.0004 77.0159C59.6671 73.8492 52.5004 67.6159 50.5004 68.0159C48.0004 68.5159 34.0004 76.5159 37.5004 75.0159C41.0004 73.5159 50.0002 65.5159 48.0002 65.0159C46.4002 64.6159 40.3337 64.8492 37.5004 65.0159C33.3337 66.5159 25.6002 69.9159 28.0002 71.5159C30.4002 73.1159 35.3337 66.5159 37.5004 63.0159M72 89.0159C65.8333 90.8492 53.8 95.0159 55 97.0159C56.2 99.0159 53.8333 102.183 52.5 103.516L37.5004 101.016C40.6672 99.6825 47.7008 97.8159 50.5004 101.016C54 105.016 47.5 109.016 43.5 109.016C39.5 109.016 23 107.016 21 110.516M100 128.516C95.3333 131.016 85.4 135.716 83 134.516C80 133.016 68.9996 124.516 66 126.516C63.6003 128.116 79.6668 131.183 88 132.516C83.5 133.183 73.5 134.916 69.5 136.516C64.5 138.516 52.4996 141.516 51.5 139.016C50.7003 137.016 63.1668 138.183 69.5 139.016C62.5003 141.183 48.9008 146.316 50.5004 149.516"/><path stroke="#874D4D" d="M126 97.5159C127.167 95.3493 130.4 91.0159 134 91.0159C138.5 91.0159 125.5 99.0159 125 95.0159C124.5 91.0159 129 83.5159 131.5 82.0159C134 80.5159 127 78.5159 131.5 71.5159C136 64.5159 137 63.5159 143 63.5159C149 63.5159 143 50.5159 152.5 48.5159C162 46.5159 161.5 46.5159 163 44.0159C164.5 41.5159 149 51.0159 149.5 52.5159"/></svg>