<svg xmlns="http://www.w3.org/2000/svg" width="964" height="1467" fill="none" viewBox="0 0 964 1467"><path stroke="#874D4D" d="M800 1390.02C805.5 1395.52 813 1397.02 814.5 1396.52C816 1396.02 826.5 1411.02 829 1409.52C831.5 1408.02 841 1404.52 844 1409.52C847 1414.52 851 1423.52 858 1423.02C865 1422.52 871.5 1423.02 875 1423.02C878.5 1423.02 892 1430.02 893 1426.52C894 1423.02 912.5 1420.02 917.5 1420.52C922.5 1421.02 938.5 1424.02 938.5 1426.52C938.5 1429.02 935.5 1412.02 926.5 1409.52C917.5 1407.02 916 1396.02 915.5 1393.02C915 1390.02 895.5 1367.52 890 1370.52C884.5 1373.52 883.5 1375.02 875 1370.52C866.5 1366.02 854.5 1355.02 844 1357.02C833.5 1359.02 834 1351.02 829 1353.02C824 1355.02 810.5 1364.52 809.5 1366.52C808.5 1368.52 803.5 1374.02 800 1374.02M803 1379.52C809.5 1378.02 805 1374.02 821 1374.02C833.8 1374.02 840.333 1367.02 842 1363.52L831 1374.02C835.333 1373.02 844 1371.62 844 1374.02C844 1377.02 860 1396.52 858 1399.52C856 1402.52 843.5 1374.02 847.5 1374.02C850.7 1374.02 864.167 1379.35 870.5 1382.02L885.5 1390.02C886.833 1389.52 891.2 1391.32 898 1402.52"/><path stroke="#874D4D" d="M790.5 1288.02C798.5 1284.02 814.9 1276.42 816.5 1278.02C818.1 1279.62 830.167 1276.68 836 1275.02C845.5 1276.52 864.5 1279.92 864.5 1281.52C864.5 1283.52 878 1295.52 879.5 1295.52C880.7 1295.52 896.667 1318.85 904.5 1330.52C906.167 1337.02 910.1 1350.42 912.5 1352.02C914.9 1353.62 915.833 1365.35 916 1371.02C919 1375.85 924.5 1385.72 922.5 1386.52C920 1387.52 916 1374.02 912.5 1374.02C909 1374.02 902 1366.02 900.5 1368.52C899 1371.02 886.5 1373.52 883 1371.02C879.5 1368.52 845 1350.02 843 1352.02C841 1354.02 814.5 1333.52 816.5 1330.52C818.5 1327.52 806.5 1314.52 806 1309.52C805.5 1304.52 794.5 1295.52 792.5 1295.52M798 1291.02C801 1291.02 823 1296.02 824 1293.52C825 1291.02 837 1327.02 840 1330.52C842.4 1333.32 834 1311.68 829.5 1300.52C831 1298.85 834.4 1295.52 836 1295.52C838 1295.52 841 1304.02 849.5 1304.02C858 1304.02 872.5 1297.02 876 1300.52C878.8 1303.32 856.833 1301.68 845.5 1300.52C848.5 1305.68 855.5 1316.02 859.5 1316.02C864.5 1316.02 876 1325.02 876 1330.52C876 1336.02 875 1349.52 881 1353.52C885.8 1356.72 876.667 1336.18 871.5 1325.52"/><path stroke="#874D4D" d="M750 1278.52C746.667 1275.02 739.1 1268.32 735.5 1269.52C731 1271.02 718 1275.52 715 1273.52C712.6 1271.92 703.667 1279.18 699.5 1283.02C697 1285.68 691.1 1291.02 687.5 1291.02C683 1291.02 670.5 1313.02 673 1314.02C675.5 1315.02 673 1329.52 670 1330.52C667 1331.52 671 1337.02 664.5 1338.52C658 1340.02 646.5 1344.52 647 1346.52C647.5 1348.52 659 1353.02 664.5 1353.02C670 1353.02 681.501 1346.02 687.5 1349.52C693.5 1353.02 718 1331.52 722 1335.02C726 1338.52 726.5 1326.02 731 1325.02C735.5 1324.02 736.5 1308.52 741.5 1306.02C746.5 1303.52 750 1292.02 750 1288.52"/><path stroke="#874D4D" d="M743.5 1279.02C737.667 1277.18 725.9 1274.62 725.5 1279.02C725 1284.52 724.5 1307.52 727.5 1308.02C729.9 1308.42 725.167 1290.85 722.5 1282.02C718.167 1284.02 709.5 1288.72 709.5 1291.52C709.5 1295.02 697.5 1300.02 697 1304.02C696.5 1308.02 699 1312.52 700.5 1322.52C701.7 1330.52 701 1313.52 700.5 1304.02C695.833 1308.85 686.6 1318.92 687 1320.52C687.5 1322.52 694 1338.52 690.5 1339.52C687.7 1340.32 689.333 1324.85 690.5 1317.02"/><path stroke="#874D4D" d="M773.5 1440.02C773.637 1445.82 783.717 1449.42 787.5 1445.02C791 1440.94 788.27 1433.05 783 1432.02C778.241 1431.08 773.385 1435.17 773.5 1440.02ZM773.5 1424.02C769.683 1419.65 760.199 1426.82 760.999 1432.02C761.999 1438.52 769.5 1436.52 771.5 1435.52C773.1 1434.72 776.501 1427.45 773.5 1424.02ZM776 1422.02C776.333 1427.02 782.45 1432.87 786 1429.52C789.035 1426.65 787.876 1420.57 784 1419.02C780.901 1417.78 775.666 1417.02 776 1422.02ZM790 1424.02C793.59 1423.74 796.178 1420.61 796 1417.02C795.779 1412.56 789.755 1409.12 786 1411.52C783.938 1412.83 783.057 1414.57 783 1417.02C782.908 1420.88 786.145 1424.31 790 1424.02ZM773.5 1420.52C769.307 1420 765.644 1415.31 767.5 1411.52C768.691 1409.08 770.793 1408.2 773.5 1408.02C777.282 1407.76 781.059 1409.75 781.5 1413.52C781.982 1417.64 777.62 1421.02 773.5 1420.52ZM771.5 1404.02C769.5 1407.18 765.997 1409.62 762.5 1408.02C758.557 1406.21 760.5 1398.85 760.999 1397.02C761.499 1395.18 773.5 1400.85 771.5 1404.02ZM768.5 1396.52C770.166 1393.68 772.126 1390.15 776 1390.02C780.847 1389.85 785.702 1394.97 784 1399.52C782.742 1402.87 779.572 1404.31 776 1404.02C771.871 1403.68 766.834 1399.35 768.5 1396.52ZM773.5 1384.02C777.644 1383.78 781.982 1381.14 781.5 1377.02C781.059 1373.25 777.285 1371.72 773.5 1371.52C769.387 1371.29 764.962 1372.92 764.5 1377.02C764 1381.44 769.054 1384.27 773.5 1384.02ZM790 1395.02C794.505 1396.57 799.005 1392.68 800 1388.02C800.912 1383.75 799.24 1379.06 795 1378.02C790.898 1377.01 787.44 1380.04 786 1384.02C784.441 1388.31 785.68 1393.52 790 1395.02ZM794 1408.52C797.616 1410.4 803.017 1409.47 804 1405.52C804.934 1401.75 801.354 1398.42 797.5 1398.02C794.103 1397.66 790.411 1399.12 790 1402.52C789.661 1405.31 791.502 1407.21 794 1408.52Z"/><path stroke="#874D4D" d="M756.999 1404.02C749.999 1404.85 735.999 1406.92 735.999 1408.52C735.999 1410.52 707.999 1407.52 708.999 1404.02C709.999 1400.52 704.5 1395.52 699 1395.52C693.5 1395.52 691 1388.52 691 1386.52C691 1384.52 682 1376.52 676.5 1376.02C672.1 1375.62 670.666 1369.18 670.5 1366.02C670 1362.52 668.3 1355.52 665.5 1355.52C662 1355.52 649.5 1341.52 651 1339.02C652.5 1336.52 645.5 1327.02 642.5 1325.52C639.5 1324.02 665.5 1327.52 665.5 1325.52M756.999 1392.02C754.666 1387.52 748.6 1378.52 743 1378.52C735.999 1378.52 739 1350.52 743 1353.02C746.2 1355.02 742 1372.18 739.5 1380.52L717.5 1363.52C707.5 1364.85 688.199 1367.92 691 1369.52C693.8 1371.12 708.833 1363.52 716 1359.52C717.5 1354.68 719.6 1345.02 716 1345.02C712.4 1345.02 717.833 1356.02 721 1361.52M764 1366.02C752.833 1353.85 730.2 1329.92 729 1331.52"/><path stroke="#874D4D" d="M770.5 1437.52C770.5 1445.85 770.5 1462.72 770.5 1463.52C770.5 1464.52 777.5 1467.52 777.5 1463.52C777.5 1459.52 774.5 1447.52 776 1446.52"/><path stroke="#874D4D" d="M782 1316.52C784.921 1313.24 791.534 1318.13 791.5 1322.52C791.469 1326.39 787.532 1330.61 784 1329.02M782 1316.52C780.419 1318.29 780.743 1320.15 781 1322.52C781.303 1325.3 781.452 1327.86 784 1329.02M782 1316.52L781 1311.52M784 1329.02L783.691 1341.57M776 1358.52C778 1345.02 780.8 1317.12 776 1313.52M783.691 1341.57C779.488 1342.43 777.545 1348.12 779.5 1352.02C780.117 1353.25 780.98 1354.31 782 1355.08M783.691 1341.57C783.793 1341.55 783.896 1341.53 784 1341.52C788.239 1340.91 791.651 1345.24 791.5 1349.52C791.394 1352.49 790.3 1354.99 787.5 1356.02C785.511 1356.74 783.57 1356.27 782 1355.08M782 1355.08V1359.17M782 1359.17C782.336 1359.26 782.67 1359.38 783 1359.52C787.589 1361.44 789.184 1368.67 785.5 1372.02C781.926 1375.27 775.49 1373.42 773.5 1369.02C772.454 1366.7 772.329 1364.77 773.5 1362.52C775.13 1359.38 778.676 1358.22 782 1359.17ZM793.5 1366.02C793.393 1362.5 795.124 1359.52 798.5 1358.52C802.886 1357.22 807.533 1361.44 807.5 1366.02C807.47 1370.02 804.506 1373.52 800.5 1373.52C796.493 1373.52 793.621 1370.02 793.5 1366.02Z"/><path stroke="#874D4D" d="M779 1268.02C780.167 1266.35 783 1263.22 785 1264.02C787.5 1265.02 809.5 1256.52 809.5 1255.02C809.5 1253.52 820.5 1239.02 822.5 1239.52C824.5 1240.02 824 1229.52 822.5 1226.02C821 1222.52 820.5 1219.02 822.5 1217.52M766.5 1266.52C768.5 1264.85 772.2 1261.32 771 1260.52C769.8 1259.72 770.5 1245.18 771 1238.02C773.833 1232.85 779.9 1222.52 781.5 1222.52C783.5 1222.52 790.5 1217.52 789.5 1215.52M776.5 1260.52C777 1258.18 778.7 1253.02 781.5 1251.02C784.3 1249.02 781 1239.85 779 1235.52C779.5 1238.35 781.4 1244.42 785 1246.02C788.6 1247.62 800.833 1245.02 806.5 1243.52C799.333 1244.68 785 1247.42 785 1249.02C785 1251.02 787.5 1233.52 791 1232.52C794.5 1231.52 800 1226.52 806.5 1227.52C811.7 1228.32 794.333 1233.18 785 1235.52"/><path stroke="#874D4D" d="M754 1220.52C762.667 1221.52 780.1 1222.92 780.5 1220.52C781 1217.52 786 1215.02 789.5 1215.02C793 1215.02 799 1211.02 801 1212.02C803 1213.02 809 1215.02 813 1215.02C817 1215.02 828 1218.02 829 1215.02C830 1212.02 833 1209.52 838 1209.52C843 1209.52 851.5 1206.02 852.5 1203.02C853.5 1200.02 857 1197.02 859.5 1197.02C862 1197.02 884.5 1179.02 882 1176.02C879.5 1173.02 877 1183.52 867.5 1181.52C858 1179.52 847.5 1174.52 846 1176.02C844.5 1177.52 840 1169.02 838 1172.52C836 1176.02 830 1161.02 824 1163.02C819.2 1164.62 805.667 1163.68 799.5 1163.02C794.5 1166.18 784.6 1172.52 785 1172.52C785.5 1172.52 766 1182.02 767.5 1184.52C768.7 1186.52 764.667 1188.68 762.5 1189.52C758.667 1196.52 751.3 1210.82 752.5 1212.02M765 1203.02C779 1203.02 779 1207.02 782 1209.52C784.4 1211.52 774.333 1204.68 769 1201.02C769.833 1198.85 772.4 1194.42 776 1194.02C780.5 1193.52 792 1181.02 791.5 1178.52C791.1 1176.52 783 1190.02 779 1197.02C784.5 1191.85 797 1182.12 803 1184.52C810.5 1187.52 817 1200.02 821.5 1197.02C825.1 1194.62 808.333 1188.68 799.5 1186.02C807.667 1183.02 825 1177.92 829 1181.52"/><path stroke="#874D4D" d="M762.5 1273.52C759.722 1276.91 764.116 1282.83 768.5 1283.02C771.974 1283.17 775.352 1280.99 775.5 1277.52C775.654 1273.92 772.087 1271.83 768.5 1271.52C766.04 1271.3 764.064 1271.6 762.5 1273.52ZM768.5 1289.52C769.659 1286.59 772.486 1284.61 775.5 1285.52C778.594 1286.45 779.954 1289.93 779 1293.02C777.887 1296.62 772.963 1298.85 770 1296.52C767.804 1294.79 767.471 1292.12 768.5 1289.52ZM771.5 1302.02C769.772 1305.45 771.715 1310.34 775.5 1311.02C779.044 1311.65 782.328 1308.61 782.5 1305.02C782.653 1301.82 780.679 1298.9 777.5 1298.52C774.807 1298.19 772.719 1299.59 771.5 1302.02ZM760.5 1302.02C759.38 1305.18 762.254 1308.15 765.5 1309.02C768.876 1309.91 772.742 1308.43 773.5 1305.02C774.373 1301.09 769.477 1297.89 765.5 1298.52C763.145 1298.88 761.295 1299.77 760.5 1302.02ZM787.5 1285.52C789.92 1286.96 791.638 1288.7 791.5 1291.52C791.303 1295.53 785.234 1299.25 782.5 1296.52C779.767 1293.78 778.234 1292.25 775.5 1289.52C772.767 1286.78 783.255 1282.99 787.5 1285.52ZM758.5 1289.52C756.557 1291.59 755.119 1294.03 756.5 1296.52C758.207 1299.59 762.227 1297.8 765.5 1296.52C768.34 1295.4 770.765 1294.48 771.5 1291.52C772.738 1286.53 762.012 1285.77 758.5 1289.52ZM756.5 1275.52C752.66 1277.23 749.454 1282.62 752.5 1285.52C754.762 1287.67 757.701 1286.9 760.5 1285.52C763.8 1283.88 766.979 1280.89 765.5 1277.52C764.055 1274.22 759.788 1274.05 756.5 1275.52Z"/><path stroke="#874D4D" d="M757.5 1252.52C761.167 1256.85 768.1 1265.62 766.5 1266.02M759 1263.02C758.666 1261.35 757.499 1258.02 755.5 1258.02M725.5 1233.52C719.167 1237.18 706.5 1245.32 706.5 1248.52C706.5 1252.52 700 1264.02 700 1266.02C700 1268.02 696 1275.52 694 1275.52C692 1275.52 695 1286.02 690 1286.52C685 1287.02 667 1313.52 669 1315.52C671 1317.52 660.5 1305.02 660 1297.02C659.5 1289.02 657 1283.02 660 1281.52C663 1280.02 671 1273.02 671.5 1270.52C672 1268.02 674.5 1263.52 678 1261.52C681.5 1259.52 675 1249.02 678 1247.02C681 1245.02 691 1238.02 690 1235.52C689 1233.02 691.5 1228.52 694 1228.52M757.5 1266.02C754.111 1266.44 750.185 1271.58 753 1273.52C754.958 1274.86 756.975 1273.76 759 1272.52C760.898 1271.35 763.163 1270.14 762.5 1268.02C761.873 1266.01 759.586 1265.75 757.5 1266.02ZM757.5 1242.02C761.588 1243.46 766.346 1239.85 766.5 1235.52C766.658 1231.07 761.7 1227.04 757.5 1228.52C754.434 1229.59 752.889 1232.27 753 1235.52C753.105 1238.6 754.589 1240.99 757.5 1242.02ZM740 1245.02C743.3 1244.52 746.528 1245.01 748 1242.02C750.011 1237.93 744.242 1235.18 740 1233.52C736.365 1232.09 732.828 1230.82 730 1233.52C727.03 1236.34 727.188 1241.03 730 1244.02C732.69 1246.87 736.118 1245.6 740 1245.02ZM738.5 1230.02C741.655 1230.4 744.37 1230.88 746.5 1228.52C749.955 1224.69 743.654 1218.1 738.5 1218.02C734.074 1217.94 728.964 1221.21 730 1225.52C730.878 1229.17 734.772 1229.56 738.5 1230.02Z"/><path stroke="#874D4D" d="M690 1171.02C688.5 1171.02 674 1172.52 674 1176.02C674 1179.52 666.5 1182.02 662 1185.52C657.5 1189.02 652.5 1201.52 653 1203.02C653.5 1204.52 650.5 1213.52 646.5 1216.52C642.5 1219.52 639.5 1236.02 640.5 1238.02C641.5 1240.02 639.5 1250.52 643 1255.02C646.5 1259.52 648.5 1274.02 646.5 1276.02C644.5 1278.02 638 1281.02 637 1283.52C636 1286.02 635.5 1291.02 637 1291.02C638.5 1291.02 646 1282.52 650.5 1285.02C654.1 1287.02 662.333 1278.18 666 1273.52C668.333 1269.02 673.5 1260.02 675.5 1260.02C678 1260.02 674 1244.02 675.5 1242.52C677 1241.02 687 1242.52 687 1235.52C687 1228.52 684 1227.52 690 1225.02C696 1222.52 693 1218.52 693 1216.52C693 1214.52 690 1212.52 693 1210.52C696 1208.52 688 1196.52 693 1194.52C698 1192.52 696 1189.52 694.5 1187.52C693.3 1185.92 693 1179.18 693 1176.02M688.5 1176.02C685.5 1177.52 681.5 1192.02 678.5 1194.52C675.5 1197.02 691 1217.52 687 1206.02C683.8 1196.82 677 1194.52 674 1194.52C672.667 1196.35 669.2 1201.22 666 1206.02C662 1212.02 650 1233.52 649 1227.02C648.2 1221.82 660 1213.85 666 1210.52C662.833 1216.02 657.2 1228.12 660 1232.52C663.5 1238.02 669.5 1250.52 670.5 1246.52C671.3 1243.32 660.5 1235.85 655 1232.52M690 1165.52C691.833 1169.68 695.9 1177.62 697.5 1176.02C699.1 1174.42 696.167 1165.02 694.5 1160.52C698.333 1160.35 706 1159.52 706 1157.52C706 1155.02 694.5 1153.02 693 1154.52C691.5 1156.02 697.5 1142.52 693 1142.52C688.5 1142.52 685 1153.52 686 1155.52C686.8 1157.12 679 1154.85 675 1153.52L686 1163.02C683.5 1163.35 678.5 1164.72 678.5 1167.52C678.5 1170.32 686.167 1167.35 690 1165.52Z"/><path stroke="#874D4D" d="M726 1166.02C725.667 1168.85 725.8 1174.82 729 1176.02C733 1177.52 735 1168.02 732 1166.02C729 1164.02 723 1162.02 730.5 1162.52C738 1163.02 744 1161.02 743 1160.02C742.2 1159.22 733.333 1158.02 729 1157.52C732.667 1155.35 739.4 1150.42 737 1148.02C734 1145.02 723 1149.52 724.5 1153.52C726 1157.52 710.5 1142.52 710.5 1148.02C710.5 1153.52 717 1155.02 719 1157.52C720.6 1159.52 716.333 1164.02 714 1166.02H724.5M676.5 1108.02C680.5 1111.35 688.7 1117.62 689.5 1116.02C690.3 1114.42 686.166 1110.02 684 1108.02C686.333 1109.18 691.5 1110.82 693.5 1108.02C695.5 1105.22 688 1103.52 684 1103.02C687 1099.02 691.2 1091.62 684 1094.02C676.8 1096.42 676 1101.02 676.5 1103.02C674 1099.68 668.6 1093.52 667 1095.52C665.4 1097.52 669.666 1101.35 672 1103.02L667 1108.02H676.5Z"/><path stroke="#874D4D" d="M705.5 1163.02C709.667 1168.68 718.6 1179.72 721 1178.52C724 1177.02 731.5 1195.52 727 1196.52C722.5 1197.52 723 1206.52 724 1208.02C724.8 1209.22 722.333 1214.52 721 1217.02C720 1220.02 718.3 1226.42 719.5 1228.02C721 1230.02 711.5 1232.52 713 1239.02C714.2 1244.22 717.833 1246.52 719.5 1247.02C715.333 1244.35 707 1237.92 707 1233.52C707 1228.02 698.5 1231.52 699 1226.02C699.5 1220.52 699 1221.52 696 1217.02C693 1212.52 695 1202.52 694.5 1198.52C694 1194.52 696 1186.02 699 1185.02C702 1184.02 707 1174.52 705.5 1172.52C704 1170.52 697.5 1160.02 696 1159.52M710 1176.52C709.5 1182.02 704 1186.52 710 1191.52C716 1196.52 723 1205.02 719.5 1206.52C716.7 1207.72 712 1194.35 710 1187.52C710 1190.85 709.1 1198.92 705.5 1204.52C701 1211.52 696.5 1219.02 699 1217.02C701 1215.42 704.167 1204.02 705.5 1198.52"/><path stroke="#874D4D" d="M737.5 1147.02C740.5 1147.68 746.7 1148.22 747.5 1145.02C748.5 1141.02 751.5 1138.02 754.5 1140.02C757.5 1142.02 769.5 1131.52 769.5 1128.52C769.5 1125.52 770 1122.02 771.5 1121.52C773 1121.02 773.5 1113.52 776.5 1113.52C779.5 1113.52 770 1113.02 776.5 1109.02C783 1105.02 786.5 1098.52 786.5 1096.52C786.5 1094.52 782 1080.52 788 1079.02C792.8 1077.82 795.333 1074.85 796 1073.52C790.5 1076.35 778.5 1082.02 774.5 1082.02C769.5 1082.02 759.5 1082.02 761 1085.02C762.5 1088.02 743 1087.52 742.5 1092.02C742 1096.52 729.5 1102.52 726 1107.02C722.5 1111.52 720 1126.52 715 1128.52C711 1130.12 708.667 1132.85 708 1134.02M691 1137.02C693.333 1134.35 698.6 1129.32 701 1130.52C703.4 1131.72 699 1126.68 696.5 1124.02C698.667 1122.85 703.5 1121.52 705.5 1125.52C707.5 1129.52 706.333 1134.85 705.5 1137.02C708.667 1135.02 715.3 1131.62 716.5 1134.02C717.7 1136.42 711.333 1138.02 708 1138.52C708.833 1139.52 710 1142.22 708 1145.02C706 1147.82 702.5 1139.85 701 1135.52L691 1137.02Z"/><path stroke="#874D4D" d="M720.5 1128.52C719.5 1123.85 720.3 1114.62 731.5 1115.02C745.5 1115.52 766 1115.02 765.5 1115.02C765.1 1115.02 741.667 1117.02 730 1118.02C731.833 1113.68 736.7 1104.82 741.5 1104.02C743.033 1103.76 744.306 1103.34 745.5 1102.86M745.5 1102.86C748.979 1101.46 751.8 1099.52 758.5 1099.52C767.5 1099.52 777.5 1100.02 774.5 1097.02C772.1 1094.62 754.167 1099.91 745.5 1102.86Z"/><path stroke="#874D4D" d="M687.5 1144.52C685.5 1142.52 682.1 1137.92 684.5 1135.52C687.5 1132.52 695 1116.52 700.5 1116.52C706 1116.52 720.5 1108.02 721 1104.52C721.4 1101.72 724.833 1095.68 726.5 1093.02C725.333 1093.52 722.1 1095.12 718.5 1097.52C714 1100.52 700.5 1101.52 700.5 1104.52C700.5 1107.52 702 1098.02 707 1093.02C712 1088.02 710.5 1091.52 714.5 1084.02C718.5 1076.52 721 1068.02 721 1064.52C721 1061.02 724.5 1056.02 723.5 1049.02C722.7 1043.42 723.166 1034.68 723.5 1031.02C720.333 1037.02 713.5 1049.02 711.5 1049.02C709 1049.02 707 1058.52 707 1061.52C707 1064.52 704.5 1072.02 700.5 1073.52C697.3 1074.72 692.833 1087.02 691 1093.02L687.5 1095.02M679.5 1116.52C681 1125.02 682.5 1131.52 679.5 1132.52C676.5 1133.52 652.5 1113.52 653.5 1109.02C654.5 1104.52 660 1092.02 664 1090.02C668 1088.02 673.5 1088.02 673.5 1084.02C673.5 1080.02 676.5 1073.52 679.5 1073.52C681.9 1073.52 683.833 1068.52 684.5 1066.02C687.5 1062.18 694.2 1054.22 697 1053.02C700.5 1051.52 696.5 1046.52 698.5 1040.02C700.1 1034.82 702.833 1028.52 704 1026.02V1013.52C701.833 1018.85 696.2 1029.82 691 1031.02C684.5 1032.52 662 1042.02 664 1045.52C666 1049.02 656.5 1059.52 653.5 1059.52C650.5 1059.52 646 1078.52 649 1082.52C651.4 1085.72 652 1095.85 652 1100.52C649.833 1093.85 645.2 1081.22 644 1084.02C642.5 1087.52 646 1102.02 649 1104.52C652 1107.02 634.5 1094.52 634 1093.02C633.779 1092.35 633.264 1091.4 632.975 1090.02M604.5 1076.02C603 1073.02 602 1076.02 600.5 1076.02C599 1076.02 588 1079.02 586 1082.52C584.638 1084.9 581.422 1083.11 579.35 1081.25M579.35 1081.25C578.379 1080.38 577.66 1079.49 577.5 1079.02C577 1077.52 573.5 1073.52 567 1073.52C561.8 1073.52 554.833 1069.52 552 1067.52C551.333 1065.52 549.6 1061.52 548 1061.52C546.4 1061.52 537.333 1057.85 533 1056.02C533.833 1056.02 536.1 1056.02 538.5 1056.02C541.5 1056.02 545.5 1054.52 546.5 1054.52C547.5 1054.52 555 1053.02 555.5 1051.02C556 1049.02 592.5 1045.52 591.5 1049.02C590.5 1052.52 592.5 1053.02 595.5 1056.02C598.5 1059.02 603 1059.52 602 1061.52C601.2 1063.12 605.333 1070.18 607.5 1073.52C608.38 1070.52 609.312 1063.92 606 1061.52C601.86 1058.52 608 1049.02 606 1045.52C604 1042.02 620 1021.52 621 1018.52C622 1015.52 644 1013.52 644 1010.52C644 1007.52 658.5 1009.02 664 1006.52C669.5 1004.02 671.5 993.516 668.5 993.016C665.5 992.516 659.5 1004.02 656 1006.52C653.2 1008.52 650.166 1020.35 649 1026.02C645.5 1033.68 636.8 1049.02 630 1049.02C621.5 1049.02 614 1059.52 611 1063.02C608 1066.52 610.5 1075.52 614 1076.02C617.5 1076.52 616.5 1073.52 617.5 1071.52C618.5 1069.52 620.5 1064.52 623 1059.52C625.5 1054.52 634 1061.52 634 1063.02C634 1064.52 636.5 1076.52 634 1082.52C632.605 1085.86 632.611 1088.28 632.975 1090.02M579.35 1081.25C574.566 1083.17 564.9 1087.62 564.5 1090.02C564.1 1092.42 554.667 1094.35 550 1095.02C545 1098.02 535.1 1104.52 535.5 1106.52C535.9 1108.52 532.667 1111.68 531 1113.02C537.333 1111.02 550.7 1107.72 553.5 1110.52C557 1114.02 571 1115.02 572 1114.02C573 1113.02 577.699 1110.52 579.35 1110.52C581 1110.52 591.5 1111.02 593 1104.52C594.5 1098.02 597 1093.02 598 1090.02C598.8 1087.62 601 1085.02 602 1084.02C602.333 1083.09 603.3 1081.25 604.5 1081.25C606 1081.25 598.999 1089.52 602 1093.02C600.8 1096.62 616.833 1112.52 625 1120.02C625.333 1118.02 625.8 1113.32 625 1110.52C624 1107.02 628 1106.52 629 1103.52C630 1100.52 628 1097.52 629 1097.52C629.373 1097.52 630.046 1096.43 630.76 1095.02M632.975 1090.02C632.446 1091.35 631.577 1093.4 630.76 1095.02M630.76 1095.02C635.34 1097.52 644.6 1103.32 645 1106.52C645.5 1110.52 649 1114.02 645 1114.02C641 1114.02 630.5 1118.02 628.5 1116.02C626.5 1114.02 594.5 1107.02 593 1110.52C591.5 1114.02 573.5 1125.52 574.5 1130.52C575.5 1135.52 569.5 1135.52 570 1138.02C570.5 1140.52 568.5 1150.02 567 1149.52C565.5 1149.02 564.5 1150.52 564.5 1158.02C564.5 1164.02 566.167 1164.85 567 1164.52C566.217 1162.68 566.12 1158.82 572 1158.02C579.35 1157.02 587.5 1144.52 589.5 1144.52C591.5 1144.52 608 1139.52 611 1142.02C614 1144.52 619 1134.52 622 1132.52C625 1130.52 636 1120.02 638 1120.02C640 1120.02 650.499 1113.02 652 1114.02C653.5 1115.02 671 1129.52 669.5 1130.52C668 1131.52 656.5 1125.52 656.5 1128.02C656.5 1130.52 659.5 1124.52 656.5 1121.52C654.1 1119.12 652.5 1119.52 652 1120.02C650.5 1124.18 648.1 1132.52 650.5 1132.52C652.9 1132.52 649.5 1127.18 647.5 1124.52C646.333 1128.18 644.5 1135.52 646.5 1135.52C648.5 1135.52 645 1143.18 643 1147.02C644.5 1144.68 647.8 1140.22 649 1141.02C650.5 1142.02 648.999 1154.52 652 1153.52C655 1152.52 653.5 1139.02 653.5 1138.02C653.5 1137.02 664 1144.02 664 1141.02C664 1138.62 657 1134.35 653.5 1132.52C658.5 1131.68 669.2 1130.72 672 1133.52C674.8 1136.32 677.167 1138.68 678 1139.52C674.667 1141.18 667.6 1144.52 666 1144.52C664 1144.52 656.5 1151.52 656.5 1152.52C656.5 1153.52 645.999 1158.02 644 1158.02C642 1158.02 629.52 1161.52 630.76 1163.02C632 1164.52 617 1171.02 619.5 1176.02C621.5 1180.02 619 1184.02 617.5 1185.52C615.833 1189.35 613.2 1197.52 616 1199.52C619.5 1202.02 621.5 1207.52 619.5 1208.52C617.5 1209.52 621 1216.52 623 1219.02C625 1221.52 624.025 1236.02 628.5 1237.52C632.08 1238.72 632.975 1238.02 632.975 1237.52C631.3 1233.68 628.955 1225.62 632.975 1224.02C636.995 1222.42 636.667 1220.02 636 1219.02C639.333 1215.52 646.3 1208.52 647.5 1208.52C648.7 1208.52 651.667 1204.52 653 1202.52M672 1176.02C671.5 1170.68 670.8 1159.62 672 1158.02C673.5 1156.02 674.5 1140.02 679 1142.52C682.6 1144.52 685.833 1148.68 687 1150.52"/><path stroke="#874D4D" d="M726 1196.52C727.333 1200.68 730.7 1208.92 733.5 1208.52M737 1201.52C741.833 1203.35 751 1207.32 749 1208.52C747 1209.72 743.725 1214.27 740 1213.02C735.6 1211.54 732.167 1199.68 737 1201.52ZM747.5 1213.02C750.416 1213.91 752.505 1215.97 752.5 1219.02C752.496 1221.56 751.116 1223.1 749 1224.52C746.079 1226.47 742.671 1226.8 740 1224.52C735.926 1221.03 742.374 1211.44 747.5 1213.02ZM749 1228.52C752.441 1228.21 754.488 1231.6 755 1235.02C755.43 1237.89 754.991 1240.53 752.5 1242.02C748.809 1244.22 743.882 1239.31 744 1235.02C744.088 1231.81 745.81 1228.8 749 1228.52ZM758.5 1245.52C761.145 1248.7 758.968 1254.35 755 1255.52C751.974 1256.41 748.84 1255.37 747.5 1252.52C746.312 1249.98 747.038 1247.51 749 1245.52C751.603 1242.87 756.128 1242.66 758.5 1245.52Z"/><path stroke="#874D4D" d="M593 1069.02C589.667 1065.85 582.5 1059.62 580.5 1060.02C578 1060.52 564 1068.52 567.5 1067.02C571 1065.52 580 1057.52 578 1057.02C576.4 1056.62 570.334 1056.85 567.5 1057.02C563.334 1058.52 555.6 1061.92 558 1063.52C560.4 1065.12 565.334 1058.52 567.5 1055.02M602 1081.02C595.833 1082.85 583.8 1087.02 585 1089.02C586.2 1091.02 583.833 1094.18 582.5 1095.52L567.5 1093.02C570.667 1091.68 577.701 1089.82 580.5 1093.02C584 1097.02 577.5 1101.02 573.5 1101.02C569.5 1101.02 553 1099.02 551 1102.52M630 1120.52C625.333 1123.02 615.4 1127.72 613 1126.52C610 1125.02 599 1116.52 596 1118.52C593.6 1120.12 609.667 1123.18 618 1124.52C613.5 1125.18 603.5 1126.92 599.5 1128.52C594.5 1130.52 582.5 1133.52 581.5 1131.02C580.7 1129.02 593.167 1130.18 599.5 1131.02C592.5 1133.18 578.901 1138.32 580.5 1141.52"/><path stroke="#874D4D" d="M656 1089.52C657.167 1087.35 660.4 1083.02 664 1083.02C668.5 1083.02 655.5 1091.02 655 1087.02C654.5 1083.02 659 1075.52 661.5 1074.02C664 1072.52 657 1070.52 661.5 1063.52C666 1056.52 667 1055.52 673 1055.52C679 1055.52 673 1042.52 682.5 1040.52C692 1038.52 691.5 1038.52 693 1036.02C694.5 1033.52 679 1043.02 679.5 1044.52"/><path stroke="#874D4D" d="M169.982 1198.39C163.272 1205.1 154.121 1206.93 152.291 1206.32C150.461 1205.71 137.65 1224.02 134.6 1222.19C131.549 1220.36 119.959 1216.09 116.298 1222.19C112.638 1228.29 107.758 1239.27 99.2171 1238.66C90.6764 1238.05 82.7459 1238.66 78.4756 1238.66C74.2052 1238.66 57.734 1247.2 56.514 1242.93C55.2939 1238.66 32.7222 1235 26.6218 1235.61C20.5214 1236.22 0.99994 1239.88 0.99994 1242.93C0.99994 1245.98 4.6602 1225.24 15.641 1222.19C26.6218 1219.14 28.4519 1205.71 29.062 1202.05C29.672 1198.39 53.4637 1170.94 60.1742 1174.6C66.8847 1178.26 68.1048 1180.09 78.4756 1174.6C88.8463 1169.11 103.487 1155.69 116.298 1158.13C129.109 1160.57 128.499 1150.81 134.6 1153.25C140.7 1155.69 157.171 1167.28 158.391 1169.72C159.611 1172.16 165.712 1178.87 169.982 1178.87M166.322 1185.58C158.391 1183.75 163.882 1178.87 144.36 1178.87C128.743 1178.87 120.772 1170.33 118.738 1166.06L132.159 1178.87C126.872 1177.65 116.298 1175.94 116.298 1178.87C116.298 1182.53 96.7769 1206.32 99.2171 1209.99C101.657 1213.65 116.908 1178.87 112.028 1178.87C108.124 1178.87 91.6932 1185.38 83.9659 1188.63L65.6646 1198.39C64.0378 1197.78 58.7101 1199.98 50.4135 1213.65"/><path stroke="#874D4D" d="M181.573 1073.95C171.812 1069.07 151.803 1059.79 149.851 1061.74C147.899 1063.7 133.176 1060.12 126.059 1058.08C114.468 1059.91 91.2866 1064.06 91.2866 1066.01C91.2866 1068.45 74.8154 1083.1 72.9853 1083.1C71.5211 1083.1 52.0404 1111.56 42.483 1125.8C40.4496 1133.73 35.6506 1150.08 32.7223 1152.03C29.7941 1153.98 28.6554 1168.3 28.452 1175.21C24.7918 1181.11 18.0813 1193.15 20.5215 1194.12C23.5717 1195.34 28.452 1178.87 32.7223 1178.87C36.9926 1178.87 45.5333 1169.11 47.3634 1172.16C49.1935 1175.21 64.4446 1178.26 68.7149 1175.21C72.9853 1172.16 115.078 1149.59 117.518 1152.03C119.959 1154.47 152.291 1129.46 149.851 1125.8C147.411 1122.14 162.052 1106.28 162.662 1100.18C163.272 1094.08 176.693 1083.1 179.133 1083.1M172.422 1077.61C168.762 1077.61 141.92 1083.71 140.7 1080.66C139.48 1077.61 124.839 1121.53 121.179 1125.8C118.251 1129.22 128.499 1102.82 133.99 1089.2C132.16 1087.16 128.011 1083.1 126.059 1083.1C123.619 1083.1 119.959 1093.47 109.588 1093.47C99.2172 1093.47 81.5259 1084.93 77.2556 1089.2C73.8393 1092.61 100.641 1090.62 114.468 1089.2C110.808 1095.5 102.267 1108.11 97.387 1108.11C91.2866 1108.11 77.2556 1119.09 77.2556 1125.8C77.2556 1132.51 78.4757 1148.98 71.1551 1153.86C65.2987 1157.77 76.4422 1132.71 82.746 1119.7"/><path stroke="#874D4D" d="M230.986 1062.35C235.053 1058.08 244.285 1049.91 248.678 1051.37C254.168 1053.2 270.029 1058.69 273.689 1056.25C276.618 1054.3 287.517 1063.17 292.601 1067.84C295.651 1071.1 302.849 1077.61 307.242 1077.61C312.732 1077.61 327.983 1104.45 324.933 1105.67C321.883 1106.89 324.933 1124.58 328.594 1125.8C332.254 1127.02 327.373 1133.73 335.304 1135.56C343.235 1137.39 357.266 1142.88 356.656 1145.32C356.046 1147.76 342.014 1153.25 335.304 1153.25C328.594 1153.25 314.562 1144.71 307.242 1148.98C299.922 1153.25 270.029 1127.02 265.149 1131.29C260.269 1135.56 259.659 1120.31 254.168 1119.09C248.678 1117.87 247.458 1098.96 241.357 1095.91C235.257 1092.86 230.986 1078.83 230.986 1074.56"/><path stroke="#874D4D" d="M238.917 1062.96C246.034 1060.73 260.391 1057.6 260.879 1062.96C261.489 1069.68 262.099 1097.74 258.439 1098.35C255.51 1098.84 261.285 1077.4 264.539 1066.62C269.826 1069.07 280.4 1074.8 280.4 1078.22C280.4 1082.49 295.041 1088.59 295.651 1093.47C296.261 1098.35 293.211 1103.84 291.381 1116.04C289.917 1125.8 290.771 1105.06 291.381 1093.47C297.075 1099.36 308.34 1111.65 307.852 1113.6C307.242 1116.04 299.311 1135.56 303.582 1136.78C306.998 1137.76 305.005 1118.89 303.582 1109.33"/><path stroke="#874D4D" d="M202.315 1259.4C202.148 1266.48 189.849 1270.87 185.234 1265.5C180.963 1260.53 184.293 1250.91 190.724 1249.64C196.53 1248.49 202.455 1253.48 202.315 1259.4ZM202.315 1239.88C206.972 1234.56 218.542 1243.29 217.566 1249.64C216.346 1257.57 207.195 1255.13 204.755 1253.91C202.803 1252.93 198.653 1244.06 202.315 1239.88ZM199.265 1237.44C198.858 1243.54 191.394 1250.68 187.064 1246.59C183.361 1243.09 184.775 1235.67 189.504 1233.78C193.284 1232.27 199.672 1231.34 199.265 1237.44ZM182.184 1239.88C177.804 1239.54 174.645 1235.72 174.863 1231.34C175.133 1225.91 182.482 1221.7 187.064 1224.63C189.579 1226.23 190.654 1228.35 190.724 1231.34C190.836 1236.05 186.887 1240.24 182.184 1239.88ZM202.315 1235.61C207.431 1234.98 211.899 1229.26 209.636 1224.63C208.182 1221.65 205.617 1220.58 202.315 1220.36C197.7 1220.04 193.092 1222.47 192.554 1227.07C191.965 1232.1 197.288 1236.22 202.315 1235.61ZM204.755 1215.48C207.195 1219.34 211.469 1222.31 215.736 1220.36C220.546 1218.16 218.176 1209.17 217.566 1206.93C216.956 1204.7 202.315 1211.61 204.755 1215.48ZM208.415 1206.32C206.382 1202.87 203.991 1198.56 199.265 1198.39C193.351 1198.19 187.428 1204.44 189.504 1209.99C191.039 1214.08 194.906 1215.83 199.265 1215.48C204.302 1215.06 210.448 1209.78 208.415 1206.32ZM202.315 1191.07C197.259 1190.78 191.965 1187.56 192.554 1182.53C193.092 1177.94 197.696 1176.07 202.315 1175.82C207.333 1175.55 212.731 1177.54 213.295 1182.53C213.905 1187.93 207.739 1191.39 202.315 1191.07ZM182.184 1204.49C176.687 1206.4 171.197 1201.64 169.982 1195.95C168.87 1190.74 170.909 1185.02 176.083 1183.75C181.088 1182.52 185.306 1186.23 187.064 1191.07C188.966 1196.32 187.454 1202.67 182.184 1204.49ZM177.303 1220.97C172.891 1223.26 166.301 1222.13 165.102 1217.31C163.962 1212.72 168.33 1208.65 173.033 1208.15C177.177 1207.72 181.682 1209.51 182.184 1213.65C182.597 1217.06 180.35 1219.38 177.303 1220.97Z"/><path stroke="#874D4D" d="M222.447 1215.48C230.987 1216.49 248.069 1219.01 248.069 1220.97C248.069 1223.41 282.231 1219.75 281.011 1215.48C279.791 1211.21 286.501 1205.1 293.212 1205.1C299.922 1205.1 302.972 1196.56 302.972 1194.12C302.972 1191.68 313.953 1181.92 320.664 1181.31C326.032 1180.82 327.781 1172.98 327.984 1169.11C328.594 1164.84 330.668 1156.3 334.085 1156.3C338.355 1156.3 353.606 1139.22 351.776 1136.17C349.946 1133.12 358.486 1121.53 362.146 1119.7C365.807 1117.87 334.085 1122.14 334.085 1119.7M222.447 1200.83C225.293 1195.34 232.694 1184.36 239.527 1184.36C248.069 1184.36 244.408 1150.2 239.527 1153.25C235.623 1155.69 240.747 1176.64 243.798 1186.8L270.64 1166.06C282.841 1167.69 306.389 1171.43 302.972 1173.38C299.556 1175.33 281.214 1166.06 272.47 1161.18C270.64 1155.28 268.077 1143.49 272.47 1143.49C276.862 1143.49 270.233 1156.91 266.369 1163.62M213.905 1169.11C227.53 1154.27 255.144 1125.07 256.608 1127.02"/><path stroke="#874D4D" d="M205.975 1256.35C205.975 1266.52 205.975 1287.09 205.975 1288.07C205.975 1289.29 197.434 1292.95 197.434 1288.07C197.434 1283.19 201.095 1268.55 199.264 1267.33"/><path stroke="#874D4D" d="M191.944 1108.72C188.38 1104.72 180.311 1110.68 180.353 1116.04C180.39 1120.77 185.194 1125.92 189.504 1123.97M191.944 1108.72C193.873 1110.88 193.478 1113.16 193.164 1116.04C192.794 1119.43 192.612 1122.56 189.504 1123.97M191.944 1108.72L193.164 1102.62M189.504 1123.97L189.88 1139.29M199.264 1159.96C196.824 1143.49 193.408 1109.45 199.264 1105.06M189.88 1139.29C195.009 1140.33 197.379 1147.28 194.994 1152.03C194.241 1153.53 193.188 1154.83 191.944 1155.77M189.88 1139.29C189.757 1139.26 189.631 1139.24 189.504 1139.22C184.332 1138.48 180.169 1143.76 180.353 1148.98C180.482 1152.62 181.818 1155.66 185.234 1156.91C187.66 1157.8 190.029 1157.22 191.944 1155.77M191.944 1155.77V1160.75M191.944 1160.75C191.533 1160.87 191.126 1161.01 190.724 1161.18C185.124 1163.54 183.179 1172.35 187.674 1176.43C192.034 1180.4 199.886 1178.14 202.315 1172.77C203.591 1169.95 203.743 1167.59 202.315 1164.84C200.326 1161.02 195.999 1159.6 191.944 1160.75ZM177.913 1169.11C178.044 1164.82 175.931 1161.18 171.813 1159.96C166.461 1158.38 160.791 1163.53 160.832 1169.11C160.868 1174 164.485 1178.26 169.373 1178.26C174.261 1178.26 177.765 1174 177.913 1169.11Z"/><path stroke="#874D4D" d="M195.604 1049.54C194.181 1047.51 190.724 1043.69 188.284 1044.66C185.233 1045.88 158.391 1035.51 158.391 1033.68C158.391 1031.85 144.97 1014.16 142.53 1014.77C140.09 1015.38 140.7 1002.57 142.53 998.3C144.36 994.03 144.97 989.759 142.53 987.929M210.855 1047.71C208.415 1045.68 203.901 1041.37 205.365 1040.39C206.829 1039.42 205.975 1021.68 205.365 1012.94C201.908 1006.64 194.506 994.03 192.554 994.03C190.114 994.03 181.573 987.929 182.793 985.489M198.654 1040.39C198.044 1037.55 195.97 1031.24 192.554 1028.8C189.138 1026.36 193.164 1015.18 195.604 1009.89C194.994 1013.35 192.676 1020.75 188.284 1022.7C183.891 1024.65 168.966 1021.48 162.052 1019.65C170.796 1021.07 188.284 1024.41 188.284 1026.36C188.284 1028.8 185.233 1007.45 180.963 1006.23C176.693 1005.01 169.982 998.91 162.052 1000.13C155.707 1001.11 176.896 1007.04 188.284 1009.89"/><path stroke="#874D4D" d="M226.106 991.589C215.532 992.809 194.262 994.518 193.774 991.589C193.164 987.929 187.063 984.879 182.793 984.879C178.523 984.879 171.202 979.999 168.762 981.219C166.322 982.439 159.001 984.879 154.121 984.879C149.24 984.879 135.819 988.539 134.599 984.879C133.379 981.219 129.719 978.168 123.619 978.168C117.518 978.168 107.147 973.898 105.927 970.238C104.707 966.578 100.437 962.917 97.3867 962.917C94.3365 962.917 66.8845 940.956 69.9347 937.295C72.9849 933.635 76.0351 946.446 87.626 944.006C99.2168 941.566 112.028 935.465 113.858 937.295C115.688 939.126 121.178 928.755 123.619 933.025C126.059 937.295 133.379 918.994 140.7 921.434C146.556 923.386 163.068 922.248 170.592 921.434C176.692 925.298 188.771 933.025 188.283 933.025C187.673 933.025 211.465 944.616 209.635 947.666C208.171 950.106 213.092 952.75 215.735 953.767C220.412 962.307 229.4 979.754 227.936 981.219M212.685 970.238C195.604 970.238 195.604 975.118 191.944 978.168C189.015 980.609 201.298 972.271 207.805 967.798C206.788 965.154 203.657 959.745 199.264 959.257C193.774 958.647 179.743 943.396 180.353 940.346C180.841 937.905 190.724 954.377 195.604 962.917C188.894 956.613 173.642 944.738 166.322 947.666C157.171 951.326 149.241 966.578 143.75 962.917C139.358 959.989 159.815 952.75 170.592 949.496C160.628 945.836 139.48 939.614 134.599 944.006"/><path stroke="#874D4D" d="M215.735 1056.25C219.125 1060.4 213.763 1067.61 208.415 1067.85C204.177 1068.03 200.055 1065.37 199.874 1061.13C199.687 1056.75 204.039 1054.2 208.415 1053.81C211.416 1053.55 213.827 1053.92 215.735 1056.25ZM208.415 1075.78C207.001 1072.2 203.551 1069.78 199.874 1070.9C196.099 1072.04 194.44 1076.28 195.604 1080.05C196.962 1084.44 202.97 1087.16 206.585 1084.32C209.265 1082.21 209.67 1078.95 208.415 1075.78ZM204.755 1091.03C206.863 1095.22 204.493 1101.18 199.874 1102.01C195.55 1102.78 191.544 1099.07 191.334 1094.69C191.147 1090.78 193.555 1087.23 197.434 1086.76C200.72 1086.36 203.268 1088.07 204.755 1091.03ZM218.176 1091.03C219.542 1094.89 216.036 1098.51 212.075 1099.57C207.957 1100.66 203.239 1098.85 202.315 1094.69C201.249 1089.89 207.223 1086 212.075 1086.76C214.948 1087.21 217.206 1088.28 218.176 1091.03ZM185.233 1070.9C182.28 1072.65 180.184 1074.78 180.353 1078.22C180.594 1083.12 187.999 1087.65 191.334 1084.32C194.669 1080.98 196.539 1079.11 199.874 1075.78C203.209 1072.44 190.413 1067.81 185.233 1070.9ZM220.616 1075.78C222.987 1078.31 224.741 1081.28 223.056 1084.32C220.973 1088.06 216.069 1085.88 212.075 1084.32C208.61 1082.96 205.651 1081.83 204.755 1078.22C203.245 1072.13 216.332 1071.2 220.616 1075.78ZM223.056 1058.69C227.742 1060.79 231.652 1067.36 227.936 1070.9C225.176 1073.52 221.59 1072.59 218.176 1070.9C214.149 1068.9 210.271 1065.25 212.075 1061.13C213.838 1057.11 219.045 1056.9 223.056 1058.69Z"/><path stroke="#874D4D" d="M221.836 1030.63C217.363 1035.92 208.903 1046.62 210.855 1047.1M220.006 1043.44C220.413 1041.41 221.837 1037.34 224.277 1037.34M260.879 1007.45C268.606 1011.92 284.061 1021.85 284.061 1025.75C284.061 1030.63 291.991 1044.66 291.991 1047.1C291.991 1049.54 296.871 1058.69 299.312 1058.69C301.752 1058.69 298.092 1071.51 304.192 1072.12C310.292 1072.73 332.254 1105.06 329.814 1107.5C327.374 1109.94 340.185 1094.69 340.795 1084.93C341.405 1075.17 344.455 1067.85 340.795 1066.01C337.135 1064.18 327.374 1055.64 326.764 1052.59C326.154 1049.54 323.103 1044.05 318.833 1041.61C314.563 1039.17 322.493 1026.36 318.833 1023.92C315.173 1021.48 302.972 1012.94 304.192 1009.89C305.412 1006.84 302.362 1001.35 299.312 1001.35M221.836 1047.1C225.971 1047.62 230.761 1053.89 227.327 1056.25C224.938 1057.9 222.477 1056.55 220.006 1055.03C217.69 1053.61 214.927 1052.14 215.736 1049.54C216.5 1047.09 219.29 1046.78 221.836 1047.1ZM221.836 1017.82C216.849 1019.58 211.043 1015.18 210.855 1009.89C210.662 1004.46 216.712 999.547 221.836 1001.35C225.576 1002.67 227.462 1005.93 227.327 1009.89C227.198 1013.66 225.388 1016.57 221.836 1017.82ZM243.188 1021.48C239.162 1020.88 235.223 1021.47 233.427 1017.82C230.974 1012.83 238.012 1009.49 243.188 1007.45C247.622 1005.71 251.939 1004.16 255.389 1007.45C259.012 1010.9 258.819 1016.62 255.389 1020.26C252.106 1023.75 247.924 1022.19 243.188 1021.48ZM245.018 1003.18C241.168 1003.65 237.856 1004.23 235.257 1001.35C231.042 996.682 238.729 988.646 245.018 988.539C250.418 988.448 256.652 992.439 255.389 997.69C254.317 1002.15 249.567 1002.62 245.018 1003.18Z"/><path stroke="#874D4D" d="M304.192 931.195C306.022 931.195 323.714 933.025 323.714 937.296C323.714 941.566 332.864 944.616 338.355 948.886C343.845 953.157 349.945 968.408 349.335 970.238C348.725 972.068 352.386 983.049 357.266 986.709C362.146 990.369 365.807 1010.5 364.587 1012.94C363.366 1015.38 365.807 1028.19 361.536 1033.68C357.266 1039.17 354.826 1056.86 357.266 1059.3C359.706 1061.74 367.637 1065.4 368.857 1068.46C370.077 1071.51 370.687 1077.61 368.857 1077.61C367.027 1077.61 357.876 1067.23 352.385 1070.29C347.993 1072.73 337.948 1061.95 333.474 1056.25C330.627 1050.76 324.323 1039.78 321.883 1039.78C318.833 1039.78 323.713 1020.26 321.883 1018.43C320.053 1016.6 307.852 1018.43 307.852 1009.89C307.852 1001.35 311.513 1000.13 304.192 997.08C296.871 994.03 300.532 989.149 300.532 986.709C300.532 984.269 304.192 981.829 300.532 979.389C296.871 976.948 306.632 962.307 300.532 959.867C294.431 957.427 296.871 953.767 298.702 951.327C300.166 949.374 300.532 941.159 300.532 937.296M306.022 937.296C309.682 939.126 314.563 956.817 318.223 959.867C321.883 962.917 302.972 987.929 307.852 973.898C311.757 962.673 320.053 959.867 323.714 959.867C325.34 962.104 329.57 968.042 333.474 973.898C338.355 981.219 352.996 1007.45 354.216 999.52C355.192 993.176 340.795 983.456 333.474 979.389C337.338 986.099 344.211 1000.86 340.795 1006.23C336.524 1012.94 329.204 1028.19 327.984 1023.31C327.008 1019.41 340.185 1010.3 346.895 1006.23M304.192 924.485C301.955 929.568 296.993 939.248 295.041 937.296C293.089 935.343 296.668 923.875 298.702 918.384C294.025 918.181 284.671 917.164 284.671 914.724C284.671 911.674 298.702 909.234 300.532 911.064C302.362 912.894 295.041 896.423 300.532 896.423C306.022 896.423 310.292 909.844 309.072 912.284C308.096 914.236 317.613 911.47 322.493 909.844L309.072 921.434C312.123 921.841 318.223 923.509 318.223 926.925C318.223 930.341 308.869 926.721 304.192 924.485Z"/><path stroke="#874D4D" d="M260.269 925.094C260.676 928.551 260.513 935.831 256.609 937.295C251.728 939.125 249.288 927.535 252.948 925.094C256.609 922.654 263.929 920.214 254.779 920.824C245.628 921.434 238.307 918.994 239.527 917.774C240.504 916.798 251.322 915.334 256.609 914.724C252.135 912.08 243.92 906.061 246.848 903.133C250.508 899.473 263.929 904.963 262.099 909.843C260.269 914.724 279.181 896.422 279.181 903.133C279.181 909.843 271.25 911.673 268.81 914.724C266.858 917.164 272.063 922.654 274.91 925.094H262.099M320.664 854.329C315.783 858.396 305.778 866.042 304.802 864.09C303.826 862.138 308.869 856.769 311.513 854.329C308.666 855.753 302.362 857.746 299.922 854.329C297.482 850.913 306.633 848.839 311.513 848.229C307.853 843.349 302.728 834.32 311.513 837.248C320.298 840.176 321.274 845.789 320.664 848.229C323.714 844.162 330.302 836.638 332.254 839.078C334.206 841.518 329.001 846.195 326.154 848.229L332.254 854.329H320.664Z"/><path stroke="#874D4D" d="M285.281 921.434C280.197 928.348 269.297 941.81 266.369 940.346C262.709 938.516 253.558 961.087 259.049 962.307C264.539 963.527 263.929 974.508 262.709 976.338C261.733 977.802 264.742 984.269 266.369 987.319C267.589 990.979 269.663 998.788 268.199 1000.74C266.369 1003.18 277.96 1006.23 276.13 1014.16C274.666 1020.51 270.233 1023.31 268.199 1023.92C273.283 1020.67 283.45 1012.82 283.45 1007.45C283.45 1000.74 293.821 1005.01 293.211 998.3C292.601 991.589 293.211 992.81 296.872 987.319C300.532 981.829 298.092 969.628 298.702 964.748C299.312 959.867 296.871 949.496 293.211 948.276C289.551 947.056 283.45 935.465 285.281 933.025C287.111 930.585 295.042 917.774 296.872 917.164M279.79 937.906C280.4 944.616 287.111 950.106 279.79 956.207C272.47 962.307 263.929 972.678 268.199 974.508C271.616 975.972 277.35 959.664 279.79 951.327C279.79 955.393 280.888 965.236 285.281 972.068C290.771 980.609 296.261 989.759 293.211 987.319C290.771 985.367 286.907 971.458 285.281 964.748"/><path stroke="#874D4D" d="M246.238 901.913C242.578 902.726 235.013 903.377 234.037 899.473C232.817 894.593 229.157 890.932 225.496 893.372C221.836 895.813 207.195 883.002 207.195 879.341C207.195 875.681 206.585 871.411 204.755 870.801C202.925 870.191 202.315 861.04 198.654 861.04C194.994 861.04 206.585 860.43 198.654 855.55C190.724 850.669 186.453 842.739 186.453 840.299C186.453 837.858 191.944 820.777 184.623 818.947C178.767 817.483 175.676 813.863 174.863 812.237C181.573 815.693 196.214 822.607 201.095 822.607C207.195 822.607 219.396 822.607 217.566 826.268C215.736 829.928 239.527 829.318 240.137 834.808C240.747 840.299 255.999 847.619 260.269 853.11C264.539 858.6 267.589 876.901 273.69 879.341C278.57 881.294 281.417 884.628 282.23 886.052M302.972 889.712C300.125 886.459 293.699 880.318 290.771 881.782C287.843 883.246 293.211 877.105 296.261 873.851C293.618 872.428 287.721 870.801 285.281 875.681C282.84 880.562 284.264 887.069 285.281 889.712C281.417 887.272 273.324 883.124 271.86 886.052C270.396 888.98 278.163 890.932 282.23 891.542C281.214 892.762 279.79 896.057 282.23 899.473C284.671 902.889 288.941 893.169 290.771 887.882L302.972 889.712Z"/><path stroke="#874D4D" d="M266.979 879.341C268.199 873.647 267.223 862.382 253.558 862.87C236.477 863.48 211.465 862.87 212.075 862.87C212.563 862.87 241.154 865.31 255.388 866.53C253.152 861.243 247.214 850.425 241.357 849.449C239.487 849.137 237.934 848.626 236.477 848.038M236.477 848.038C232.232 846.325 228.79 843.959 220.616 843.959C209.635 843.959 197.434 844.569 201.095 840.908C204.023 837.98 225.903 844.441 236.477 848.038Z"/><path stroke="#874D4D" d="M307.243 898.863C309.683 896.423 313.831 890.81 310.903 887.882C307.243 884.222 298.092 864.7 291.381 864.7C284.671 864.7 266.979 854.329 266.369 850.059C265.881 846.643 261.692 839.282 259.659 836.028C261.082 836.638 265.027 838.59 269.42 841.519C274.91 845.179 291.381 846.399 291.381 850.059C291.381 853.719 289.551 842.129 283.451 836.028C277.35 829.928 279.18 834.198 274.3 825.047C269.42 815.897 266.369 805.526 266.369 801.256C266.369 796.985 262.099 790.885 263.319 782.344C264.295 775.512 263.726 764.856 263.319 760.383C267.183 767.703 275.52 782.344 277.96 782.344C281.011 782.344 283.451 793.935 283.451 797.595C283.451 801.256 286.501 810.406 291.381 812.236C295.286 813.701 300.735 828.708 302.972 836.028L307.243 838.468M317.003 864.7C315.173 875.071 313.343 883.002 317.003 884.222C320.663 885.442 349.946 861.04 348.725 855.55C347.505 850.059 340.795 834.808 335.915 832.368C331.034 829.928 324.324 829.928 324.324 825.047C324.324 820.167 320.663 812.236 317.003 812.236C314.075 812.236 311.716 806.136 310.903 803.086C307.243 798.409 299.068 788.689 295.652 787.225C291.381 785.394 296.262 779.294 293.822 771.363C291.869 765.019 288.534 757.332 287.111 754.282V739.031C289.754 745.538 296.627 758.919 302.972 760.383C310.903 762.213 338.355 773.804 335.915 778.074C333.474 782.344 345.065 795.155 348.725 795.155C352.386 795.155 357.876 818.337 354.216 823.217C351.288 827.121 350.556 839.485 350.556 845.179C353.199 837.045 358.852 821.631 360.316 825.047C362.147 829.318 357.876 847.009 354.216 850.059C350.556 853.109 371.907 837.858 372.517 836.028C372.787 835.219 373.415 834.051 373.767 832.368M408.51 815.287C410.339 811.626 411.56 815.287 413.39 815.287C415.22 815.287 428.641 818.947 431.081 823.217C432.743 826.125 436.667 823.941 439.195 821.674M439.195 821.674C440.38 820.612 441.257 819.531 441.452 818.947C442.062 817.117 446.332 812.236 454.263 812.236C460.607 812.236 469.107 807.356 472.564 804.916C473.378 802.476 475.492 797.595 477.445 797.595C479.397 797.595 490.459 793.122 495.746 790.885C494.729 790.885 491.964 790.885 489.035 790.885C485.375 790.885 480.495 789.055 479.275 789.055C478.055 789.055 468.904 787.225 468.294 784.784C467.684 782.344 423.151 778.074 424.371 782.344C425.591 786.615 423.151 787.225 419.49 790.885C415.83 794.545 410.34 795.155 411.56 797.595C412.536 799.548 407.493 808.169 404.85 812.236C403.776 808.576 402.639 800.524 406.68 797.595C411.731 793.935 404.24 782.344 406.68 778.074C409.12 773.804 389.598 748.792 388.378 745.132C387.158 741.471 360.316 739.031 360.316 735.371C360.316 731.711 342.625 733.541 335.915 730.49C329.204 727.44 326.764 714.629 330.424 714.019C334.084 713.409 341.405 727.44 345.675 730.49C349.092 732.931 352.792 747.368 354.216 754.282C358.486 763.636 369.101 782.344 377.398 782.344C387.768 782.344 396.919 795.155 400.579 799.425C404.239 803.696 401.189 814.677 396.919 815.287C392.649 815.897 393.869 812.236 392.649 809.796C391.428 807.356 388.988 801.256 385.938 795.155C382.888 789.055 372.517 797.595 372.517 799.425C372.517 801.256 369.467 815.897 372.517 823.217C374.219 827.3 374.212 830.245 373.767 832.368M439.195 821.674C445.031 824.019 456.825 829.44 457.313 832.368C457.801 835.296 469.311 837.655 475.004 838.468C481.105 842.129 493.184 850.059 492.696 852.499C492.208 854.94 496.153 858.803 498.186 860.43C490.459 857.99 474.15 853.963 470.734 857.38C466.464 861.65 449.383 862.87 448.162 861.65C446.942 860.43 441.209 857.38 439.195 857.38C437.182 857.38 424.371 857.99 422.541 850.059C420.71 842.129 417.66 836.028 416.44 832.368C415.464 829.44 412.78 826.267 411.56 825.047C411.153 823.923 409.973 821.674 408.51 821.674C406.68 821.674 415.221 831.758 411.56 836.028C413.024 840.42 393.462 859.82 383.498 868.971C383.091 866.53 382.522 860.796 383.498 857.38C384.718 853.109 379.837 852.499 378.617 848.839C377.398 845.179 379.837 841.519 378.617 841.519C378.162 841.519 377.341 840.193 376.47 838.468M373.767 832.368C374.413 833.996 375.474 836.494 376.47 838.468M376.47 838.468C370.882 841.519 359.584 848.595 359.096 852.499C358.486 857.38 354.216 861.65 359.096 861.65C363.976 861.65 376.787 866.53 379.227 864.09C381.668 861.65 420.71 853.109 422.541 857.38C424.371 861.65 446.332 875.681 445.112 881.781C443.892 887.882 451.213 887.882 450.603 890.932C449.993 893.982 452.433 905.573 454.263 904.963C456.093 904.353 457.313 906.183 457.313 915.334C457.313 922.654 455.28 923.671 454.263 923.264C455.218 921.028 455.336 916.31 448.162 915.334C439.195 914.114 429.251 898.863 426.811 898.863C424.371 898.863 404.239 892.762 400.579 895.812C396.919 898.863 390.818 886.662 387.158 884.222C383.498 881.781 370.077 868.971 367.637 868.971C365.196 868.971 352.386 860.43 350.556 861.65C348.725 862.87 327.374 880.561 329.204 881.781C331.034 883.002 345.065 875.681 345.065 878.731C345.065 881.781 341.404 874.461 345.065 870.801C347.993 867.872 349.946 868.36 350.556 868.971C352.386 874.054 355.314 884.222 352.385 884.222C349.457 884.222 353.606 877.714 356.046 874.461C357.469 878.935 359.706 887.882 357.266 887.882C354.826 887.882 359.096 897.236 361.536 901.913C359.706 899.066 355.68 893.616 354.216 894.592C352.385 895.812 354.217 911.064 350.556 909.843C346.895 908.623 348.725 892.152 348.725 890.932C348.725 889.712 335.915 898.253 335.915 894.592C335.915 891.664 344.455 886.458 348.725 884.222C342.625 883.205 329.57 882.025 326.154 885.442C322.737 888.858 319.85 891.746 318.833 892.762C322.9 894.796 331.522 898.863 333.474 898.863C335.915 898.863 345.065 907.403 345.065 908.623C345.065 909.843 357.877 915.334 360.316 915.334C362.756 915.334 377.983 919.604 376.47 921.434C374.957 923.264 393.258 931.195 390.208 937.295C387.768 942.176 390.818 947.056 392.649 948.886C394.682 953.563 397.895 963.527 394.479 965.968C390.208 969.018 387.768 975.728 390.208 976.948C392.649 978.168 388.378 986.709 385.938 989.759C383.498 992.809 384.688 1010.5 379.227 1012.33C374.859 1013.8 373.767 1012.94 373.767 1012.33C375.811 1007.65 378.672 997.812 373.767 995.86C368.863 993.908 369.263 990.979 370.077 989.759C366.01 985.489 357.51 976.948 356.046 976.948C354.582 976.948 350.962 972.068 349.335 969.628M326.154 937.295C326.764 930.788 327.618 917.286 326.154 915.334C324.323 912.894 323.103 893.372 317.613 896.423C313.221 898.863 309.276 903.946 307.852 906.183"/><path stroke="#874D4D" d="M260.269 962.307C258.642 967.391 254.534 977.436 251.118 976.948M246.848 968.408C240.951 970.645 229.767 975.484 232.207 976.948C234.647 978.413 238.642 983.965 243.188 982.439C248.556 980.637 252.745 966.171 246.848 968.408ZM234.037 982.439C230.479 983.53 227.93 986.038 227.936 989.759C227.942 992.866 229.625 994.743 232.207 996.47C235.771 998.854 239.929 999.257 243.188 996.47C248.159 992.218 240.291 980.52 234.037 982.439ZM232.207 1001.35C228.009 1000.97 225.511 1005.11 224.886 1009.28C224.361 1012.78 224.897 1016 227.936 1017.82C232.44 1020.51 238.451 1014.53 238.307 1009.28C238.2 1005.37 236.098 1001.7 232.207 1001.35ZM220.616 1022.09C217.388 1025.97 220.044 1032.86 224.886 1034.29C228.578 1035.38 232.402 1034.12 234.037 1030.63C235.486 1027.54 234.6 1024.52 232.207 1022.09C229.03 1018.87 223.51 1018.61 220.616 1022.09Z"/><path stroke="#874D4D" d="M422.54 806.746C426.607 802.882 435.351 795.277 437.791 795.765C440.841 796.375 457.923 806.136 453.652 804.306C449.382 802.476 438.401 792.715 440.842 792.105C442.794 791.617 450.195 791.902 453.652 792.105C458.736 793.935 468.172 798.083 465.243 800.036C462.315 801.988 456.296 793.935 453.652 789.665M411.56 821.387C419.084 823.624 433.765 828.708 432.301 831.148C430.837 833.588 433.725 837.452 435.351 839.078L453.652 836.028C449.788 834.401 441.207 832.124 437.791 836.028C433.521 840.909 441.452 845.789 446.332 845.789C451.213 845.789 471.344 843.349 473.784 847.619M377.397 869.581C383.091 872.631 395.21 878.365 398.139 876.901C401.799 875.071 415.22 864.7 418.88 867.14C421.808 869.093 402.205 872.834 392.038 874.461C397.529 875.274 409.73 877.389 414.61 879.341C420.71 881.781 435.352 885.442 436.571 882.392C437.547 879.951 422.337 881.375 414.61 882.392C423.15 885.035 439.743 891.298 437.791 895.202"/><path stroke="#874D4D" d="M345.675 831.758C344.252 829.114 340.307 823.827 335.914 823.827C330.424 823.827 346.285 833.588 346.895 828.708C347.505 823.827 342.015 814.677 338.965 812.847C335.914 811.016 344.455 808.576 338.965 800.036C333.474 791.495 332.254 790.275 324.933 790.275C317.613 790.275 324.933 774.414 313.343 771.974C301.752 769.533 302.362 769.533 300.532 766.483C298.702 763.433 317.613 775.024 317.003 776.854"/><path stroke="#874D4D" d="M527.319 123.317C518.411 114.409 506.264 111.98 503.834 112.79C501.405 113.599 484.399 89.305 480.35 91.7344C476.3 94.1639 460.914 99.8326 456.055 91.7344C451.196 83.6363 444.718 69.0596 433.38 69.8694C422.043 70.6792 411.515 69.8694 405.846 69.8694C400.178 69.8694 378.313 58.532 376.693 64.2007C375.073 69.8694 345.11 74.7283 337.012 73.9185C328.914 73.1087 303 68.2498 303 64.2007C303 60.1516 307.859 87.6853 322.435 91.7344C337.012 95.7835 339.442 113.599 340.251 118.458C341.061 123.317 372.644 159.759 381.552 154.9C390.46 150.041 392.08 147.612 405.846 154.9C419.613 162.188 439.049 180.004 456.055 176.765C473.061 173.526 472.251 186.483 480.35 183.244C488.448 180.004 510.313 164.618 511.932 161.379C513.552 158.139 521.65 149.231 527.319 149.231M522.46 140.323C511.932 142.753 519.221 149.231 493.307 149.231C472.575 149.231 461.994 160.569 459.294 166.238L477.11 149.231C470.092 150.851 456.055 153.118 456.055 149.231C456.055 144.372 430.141 112.79 433.38 107.931C436.619 103.072 456.865 149.231 450.386 149.231C445.204 149.231 423.392 140.593 413.135 136.274L388.84 123.317C386.681 124.127 379.608 121.212 368.595 103.072"/><path stroke="#874D4D" d="M542.706 288.52C529.749 294.998 503.187 307.307 500.595 304.716C498.004 302.124 478.46 306.875 469.012 309.575C453.626 307.145 422.853 301.639 422.853 299.047C422.853 295.808 400.988 276.372 398.558 276.372C396.615 276.372 370.755 238.581 358.068 219.685C355.368 209.158 348.998 187.454 345.11 184.863C341.223 182.272 339.712 163.268 339.442 154.09C334.583 146.262 325.675 130.281 328.914 128.986C332.963 127.366 339.442 149.231 345.11 149.231C350.779 149.231 362.117 162.188 364.546 158.139C366.976 154.09 387.221 150.041 392.89 154.09C398.558 158.139 454.436 188.102 457.675 184.863C460.914 181.624 503.834 214.826 500.595 219.685C497.356 224.544 516.791 245.599 517.601 253.697C518.411 261.796 536.227 276.372 539.466 276.372M530.558 283.661C525.699 283.661 490.068 275.562 488.448 279.612C486.828 283.661 467.393 225.354 462.534 219.685C458.647 215.15 472.252 250.188 479.54 268.274C477.11 270.973 471.604 276.372 469.012 276.372C465.773 276.372 460.914 262.605 447.147 262.605C433.38 262.605 409.896 273.943 404.227 268.274C399.692 263.739 435.27 266.385 453.626 268.274C448.767 259.906 437.43 243.17 430.951 243.17C422.853 243.17 404.227 228.593 404.227 219.685C404.227 210.777 405.847 188.912 396.129 182.434C388.355 177.251 403.147 210.507 411.515 227.783"/><path stroke="#874D4D" d="M608.3 303.906C613.699 309.575 625.954 320.426 631.785 318.483C639.073 316.053 660.128 308.765 664.987 312.004C668.874 314.596 683.343 302.826 690.092 296.618C694.141 292.299 703.696 283.661 709.527 283.661C716.815 283.661 737.061 248.029 733.012 246.409C728.963 244.79 733.012 221.305 737.871 219.685C742.73 218.066 736.251 209.158 746.779 206.728C757.306 204.299 775.932 197.011 775.122 193.771C774.313 190.532 755.687 183.244 746.779 183.244C737.871 183.244 719.244 194.581 709.527 188.912C699.81 183.244 660.129 218.066 653.65 212.397C647.172 206.728 646.362 226.974 639.074 228.593C631.785 230.213 630.166 255.317 622.067 259.366C613.969 263.415 608.3 282.041 608.3 287.71"/><path stroke="#874D4D" d="M618.828 303.096C628.276 306.066 647.334 310.223 647.981 303.096C648.791 294.188 649.601 256.937 644.742 256.127C640.855 255.479 648.521 283.931 652.84 298.238C659.859 294.998 673.896 287.386 673.896 282.851C673.896 277.182 693.331 269.084 694.141 262.606C694.951 256.127 690.902 248.839 688.472 232.642C686.529 219.685 687.663 247.219 688.472 262.606C696.031 254.777 710.985 238.473 710.338 235.882C709.528 232.642 699 206.728 704.669 205.109C709.204 203.813 706.558 228.863 704.669 241.55"/><path stroke="#874D4D" d="M570.24 42.3358C570.018 32.9356 553.692 27.1049 547.565 34.2377C541.896 40.8382 546.317 53.61 554.854 55.2929C562.561 56.8122 570.426 50.1892 570.24 42.3358ZM570.24 68.2499C576.422 75.3139 591.781 63.715 590.485 55.2929C588.866 44.7652 576.718 48.0045 573.479 49.6241C570.888 50.9198 565.378 62.6939 570.24 68.2499ZM566.191 71.4891C565.651 63.391 555.743 53.9137 549.994 59.3419C545.079 63.9835 546.956 73.8384 553.234 76.348C558.252 78.3541 566.731 79.5873 566.191 71.4891ZM543.516 68.2499C537.702 68.6972 533.509 73.7631 533.798 79.5873C534.156 86.797 543.912 92.382 549.994 88.4953C553.334 86.3616 554.76 83.5489 554.854 79.5873C555.002 73.3275 549.759 67.7696 543.516 68.2499ZM570.24 73.9186C577.031 74.7518 582.962 82.3489 579.958 88.4953C578.028 92.4423 574.623 93.8668 570.24 94.164C564.113 94.5795 557.997 91.355 557.283 85.256C556.501 78.578 563.566 73.0998 570.24 73.9186ZM573.479 100.643C576.718 95.5137 582.391 91.5726 588.056 94.164C594.441 97.0851 591.295 109.011 590.485 111.98C589.676 114.949 570.24 105.771 573.479 100.643ZM578.337 112.79C575.638 117.379 572.464 123.102 566.191 123.317C558.34 123.588 550.477 115.287 553.234 107.931C555.271 102.494 560.404 100.168 566.191 100.643C572.877 101.191 581.036 108.201 578.337 112.79ZM570.24 133.035C563.528 133.423 556.501 137.695 557.283 144.373C557.997 150.472 564.108 152.951 570.24 153.281C576.901 153.639 584.067 151.002 584.816 144.373C585.625 137.207 577.439 132.619 570.24 133.035ZM543.516 115.219C536.219 112.695 528.931 119.006 527.319 126.557C525.842 133.472 528.55 141.066 535.417 142.753C542.061 144.385 547.661 139.467 549.994 133.035C552.519 126.076 550.512 117.639 543.516 115.219ZM537.037 93.3542C531.18 90.3036 522.433 91.8044 520.84 98.2131C519.327 104.305 525.125 109.701 531.368 110.36C536.87 110.941 542.85 108.564 543.516 103.072C544.065 98.544 541.082 95.4613 537.037 93.3542Z"/><path stroke="#874D4D" d="M596.964 100.643C608.302 99.2928 630.977 95.9456 630.977 93.3542C630.977 90.1149 676.326 94.9738 674.707 100.643C673.087 106.311 681.995 114.409 690.903 114.409C699.811 114.409 703.86 125.747 703.86 128.986C703.86 132.225 718.436 145.182 727.344 145.992C734.471 146.64 736.792 157.06 737.062 162.189C737.872 167.857 740.625 179.195 745.16 179.195C750.829 179.195 771.074 201.87 768.645 205.919C766.215 209.968 777.553 225.354 782.411 227.784C787.27 230.213 745.16 224.544 745.16 227.784M596.964 120.078C600.743 127.366 610.567 141.943 619.638 141.943C630.977 141.943 626.117 187.293 619.638 183.244C614.455 180.004 621.258 152.201 625.307 138.704L660.939 166.238C677.135 164.078 708.395 159.111 703.86 156.52C699.324 153.928 674.976 166.238 663.368 172.716C660.939 180.544 657.537 196.201 663.368 196.201C669.199 196.201 660.399 178.385 655.27 169.477M585.626 162.189C603.712 181.894 640.369 220.657 642.313 218.066"/><path stroke="#874D4D" d="M575.098 46.3848C575.098 32.8878 575.098 5.57005 575.098 4.27434C575.098 2.65471 563.761 -2.20419 563.761 4.27434C563.761 10.7529 568.62 30.1884 566.19 31.8081"/><path stroke="#874D4D" d="M556.472 242.36C551.741 247.663 541.03 239.749 541.086 232.643C541.136 226.365 547.513 219.53 553.234 222.115M556.472 242.36C559.034 239.489 558.509 236.467 558.092 232.643C557.601 228.141 557.36 223.979 553.234 222.115M556.472 242.36L558.092 250.458M553.234 222.115L553.733 201.783M566.19 174.336C562.951 196.201 558.416 241.389 566.19 247.219M553.733 201.783C560.541 200.393 563.688 191.168 560.522 184.863C559.522 182.872 558.124 181.144 556.472 179.898M553.733 201.783C553.569 201.816 553.402 201.845 553.234 201.87C546.368 202.857 540.841 195.844 541.086 188.912C541.257 184.088 543.03 180.041 547.565 178.385C550.786 177.209 553.93 177.981 556.472 179.898M556.472 179.898V173.284M556.472 173.284C555.928 173.13 555.387 172.941 554.853 172.716C547.42 169.592 544.838 157.894 550.804 152.471C556.593 147.208 567.016 150.201 570.239 157.33C571.933 161.076 572.136 164.21 570.239 167.857C567.599 172.934 561.856 174.811 556.472 173.284ZM537.847 162.189C538.021 167.887 535.216 172.716 529.749 174.336C522.645 176.441 515.118 169.598 515.173 162.189C515.221 155.7 520.021 150.041 526.51 150.041C532.999 150.041 537.65 155.703 537.847 162.189Z"/><path stroke="#874D4D" d="M561.331 320.912C559.442 323.612 554.853 328.686 551.613 327.391C547.564 325.771 511.932 339.538 511.932 341.967C511.932 344.397 494.117 367.882 490.877 367.072C487.638 366.262 488.448 383.268 490.877 388.937C493.307 394.605 494.117 400.274 490.877 402.704M581.577 323.342C578.337 326.041 572.345 331.764 574.288 333.059C576.232 334.355 575.098 357.894 574.288 369.501C569.699 377.869 559.874 394.605 557.282 394.605C554.043 394.605 542.705 402.704 544.325 405.943M565.38 333.059C564.571 336.839 561.817 345.207 557.282 348.446C552.747 351.685 558.092 366.532 561.331 373.55C560.521 368.961 557.444 359.136 551.613 356.544C545.783 353.953 525.969 358.164 516.791 360.593C528.399 358.704 551.613 354.277 551.613 351.685C551.613 348.446 547.564 376.79 541.896 378.409C536.227 380.029 527.319 388.127 516.791 386.507C508.369 385.212 536.497 377.329 551.613 373.55"/><path stroke="#874D4D" d="M601.822 397.845C587.785 396.225 559.549 393.958 558.901 397.845C558.092 402.704 549.994 406.753 544.325 406.753C538.656 406.753 528.938 413.231 525.699 411.612C522.46 409.992 512.742 406.753 506.263 406.753C499.785 406.753 481.969 401.894 480.349 406.753C478.73 411.612 473.871 415.661 465.773 415.661C457.674 415.661 443.908 421.33 442.288 426.188C440.668 431.047 435 435.906 430.951 435.906C426.901 435.906 390.46 465.06 394.509 469.919C398.558 474.777 402.607 457.771 417.994 461.011C433.38 464.25 450.386 472.348 452.816 469.919C455.245 467.489 462.533 481.256 465.773 475.587C469.012 469.918 478.73 494.213 488.447 490.974C496.222 488.382 518.141 489.894 528.128 490.974C536.227 485.845 552.261 475.587 551.613 475.587C550.803 475.587 582.386 460.201 579.957 456.152C578.013 452.912 584.546 449.403 588.055 448.053C594.263 436.716 606.195 413.555 604.251 411.612M584.006 426.188C561.331 426.188 561.332 419.71 556.472 415.661C552.585 412.422 568.889 423.489 577.528 429.428C576.178 432.937 572.021 440.117 566.19 440.765C558.901 441.575 540.276 461.82 541.086 465.869C541.734 469.109 554.853 447.244 561.331 435.906C552.423 444.274 532.178 460.039 522.46 456.152C510.313 451.293 499.785 431.047 492.497 435.906C486.666 439.793 513.822 449.403 528.128 453.722C514.901 458.581 486.828 466.841 480.349 461.011"/><path stroke="#874D4D" d="M588.055 312.005C592.555 306.504 585.437 296.924 578.337 296.618C572.711 296.376 567.239 299.9 566.999 305.526C566.751 311.352 572.528 314.729 578.337 315.244C582.322 315.597 585.521 315.101 588.055 312.005ZM578.337 286.09C576.46 290.832 571.881 294.043 566.999 292.569C561.988 291.056 559.786 285.423 561.331 280.422C563.134 274.586 571.109 270.974 575.908 274.753C579.465 277.555 580.003 281.88 578.337 286.09ZM573.478 265.845C576.277 260.279 573.131 252.369 566.999 251.268C561.26 250.238 555.941 255.162 555.662 260.986C555.414 266.167 558.611 270.889 563.761 271.514C568.122 272.043 571.505 269.77 573.478 265.845ZM591.294 265.845C593.108 260.715 588.454 255.907 583.196 254.508C577.729 253.053 571.466 255.464 570.239 260.986C568.825 267.351 576.755 272.522 583.196 271.514C587.01 270.917 590.008 269.485 591.294 265.845ZM547.564 292.569C543.644 290.237 540.862 287.407 541.086 282.851C541.405 276.347 551.235 270.325 555.662 274.753C560.09 279.181 562.572 281.663 566.999 286.09C571.427 290.518 554.44 296.659 547.564 292.569ZM594.534 286.09C597.681 282.73 600.009 278.778 597.773 274.753C595.008 269.777 588.497 272.679 583.196 274.753C578.596 276.553 574.669 278.057 573.478 282.851C571.474 290.925 588.846 292.162 594.534 286.09ZM597.773 308.765C603.993 305.988 609.184 297.267 604.251 292.569C600.587 289.079 595.827 290.32 591.294 292.569C585.949 295.221 580.801 300.061 583.196 305.526C585.537 310.867 592.448 311.143 597.773 308.765Z"/><path stroke="#874D4D" d="M596.154 346.016C590.215 338.998 578.986 324.799 581.577 324.151M593.724 329.01C594.264 331.709 596.154 337.108 599.393 337.108M647.982 376.789C658.239 370.851 678.755 357.678 678.755 352.495C678.755 346.016 689.282 327.39 689.282 324.151C689.282 320.912 695.761 308.765 699 308.765C702.239 308.765 697.38 291.759 705.479 290.949C713.577 290.139 742.73 247.219 739.491 243.979C736.252 240.74 753.258 260.986 754.068 273.943C754.878 286.9 758.927 296.617 754.068 299.047C749.209 301.476 736.252 312.814 735.442 316.863C734.632 320.912 730.583 328.2 724.914 331.439C719.245 334.679 729.773 351.685 724.914 354.924C720.055 358.163 703.859 369.501 705.479 373.55C707.098 377.599 703.049 384.887 699 384.887M596.154 324.151C601.643 323.461 608.001 315.137 603.442 312.004C600.271 309.825 597.004 311.612 593.724 313.624C590.65 315.509 586.981 317.47 588.056 320.912C589.07 324.163 592.774 324.576 596.154 324.151ZM596.154 363.022C589.533 360.682 581.827 366.532 581.577 373.55C581.321 380.757 589.351 387.282 596.154 384.887C601.119 383.14 603.622 378.81 603.442 373.55C603.271 368.552 600.868 364.689 596.154 363.022ZM624.498 358.163C619.153 358.963 613.925 358.173 611.541 363.022C608.283 369.648 617.626 374.088 624.498 376.789C630.384 379.103 636.114 381.151 640.694 376.789C645.503 372.209 645.247 364.618 640.694 359.783C636.336 355.155 630.784 357.223 624.498 358.163ZM626.926 382.458C621.816 381.833 617.419 381.066 613.969 384.887C608.374 391.085 618.578 401.752 626.926 401.893C634.096 402.015 642.371 396.717 640.694 389.746C639.271 383.832 632.965 383.196 626.926 382.458Z"/><path stroke="#874D4D" d="M705.479 478.016C707.908 478.016 731.393 475.587 731.393 469.918C731.393 464.249 743.54 460.2 750.828 454.532C758.117 448.863 766.215 428.618 765.405 426.188C764.595 423.759 769.454 409.182 775.933 404.323C782.411 399.464 787.27 372.74 785.651 369.501C784.031 366.262 787.27 349.256 781.601 341.967C775.933 334.679 772.694 311.194 775.933 307.955C779.172 304.716 789.7 299.857 791.319 295.808C792.939 291.759 793.749 283.66 791.319 283.66C788.89 283.66 776.742 297.427 769.454 293.378C763.623 290.139 750.288 304.446 744.35 312.004C740.571 319.292 732.203 333.869 728.963 333.869C724.914 333.869 731.393 359.783 728.963 362.213C726.534 364.642 710.338 362.213 710.338 373.55C710.338 384.887 715.197 386.507 705.479 390.556C695.761 394.605 700.62 401.084 700.62 404.323C700.62 407.562 705.479 410.802 700.62 414.041C695.761 417.28 708.718 436.716 700.62 439.955C692.522 443.194 695.761 448.053 698.19 451.292C700.134 453.884 700.62 464.789 700.62 469.918M707.908 469.918C712.767 467.489 719.245 444.004 724.104 439.955C728.963 435.906 703.859 402.703 710.338 421.329C715.52 436.23 726.534 439.955 731.393 439.955C733.552 436.986 739.167 429.103 744.35 421.329C750.828 411.611 770.264 376.789 771.884 387.317C773.179 395.739 754.068 408.642 744.35 414.041C749.479 405.133 758.603 385.535 754.068 378.409C748.399 369.501 738.681 349.256 737.061 355.734C735.766 360.917 753.258 373.01 762.166 378.409M705.479 486.924C702.509 480.176 695.923 467.327 693.331 469.918C690.74 472.51 695.491 487.734 698.19 495.022C691.982 495.292 679.565 496.642 679.565 499.881C679.565 503.93 698.19 507.17 700.62 504.74C703.049 502.311 693.331 524.176 700.62 524.176C707.908 524.176 713.577 506.36 711.957 503.121C710.661 500.529 723.295 504.2 729.773 506.36L711.957 490.973C716.006 490.433 724.104 488.22 724.104 483.685C724.104 479.15 711.687 483.955 705.479 486.924Z"/><path stroke="#874D4D" d="M647.172 486.115C647.712 481.526 647.496 471.862 642.313 469.918C635.834 467.489 632.595 482.875 637.454 486.115C642.313 489.354 652.031 492.593 639.884 491.783C627.736 490.974 618.019 494.213 619.638 495.833C620.934 497.128 635.295 499.072 642.313 499.882C636.374 503.391 625.469 511.381 629.356 515.268C634.215 520.127 652.031 512.839 649.601 506.36C647.172 499.882 672.277 524.176 672.277 515.268C672.277 506.36 661.749 503.931 658.51 499.882C655.918 496.642 662.829 489.354 666.608 486.115H649.601M727.344 580.053C720.865 574.655 707.585 564.505 706.289 567.096C704.993 569.688 711.688 576.814 715.197 580.053C711.418 578.164 703.05 575.518 699.81 580.053C696.571 584.588 708.718 587.342 715.197 588.152C710.338 594.63 703.535 606.615 715.197 602.728C726.858 598.841 728.154 591.391 727.344 588.152C731.393 593.55 740.139 603.538 742.73 600.299C745.322 597.06 738.411 590.851 734.632 588.152L742.73 580.053H727.344Z"/><path stroke="#874D4D" d="M680.374 490.973C673.626 481.795 659.157 463.926 655.27 465.869C650.411 468.299 638.264 438.335 645.552 436.716C652.84 435.096 652.031 420.519 650.411 418.09C649.115 416.146 653.11 407.562 655.27 403.513C656.889 398.654 659.643 388.289 657.699 385.697C655.27 382.458 670.656 378.409 668.227 367.881C666.283 359.459 660.399 355.734 657.699 354.924C664.448 359.243 677.945 369.663 677.945 376.789C677.945 385.697 691.712 380.029 690.902 388.937C690.092 397.845 690.902 396.225 695.761 403.513C700.62 410.802 697.381 426.998 698.19 433.476C699 439.955 695.761 453.722 690.902 455.341C686.043 456.961 677.945 472.348 680.374 475.587C682.804 478.826 693.332 495.832 695.761 496.642M673.086 469.108C673.896 460.2 682.804 452.912 673.086 444.814C663.368 436.716 652.03 422.949 657.699 420.519C662.234 418.576 669.847 440.225 673.086 451.292C673.086 445.894 674.543 432.829 680.374 423.759C687.663 412.421 694.951 400.274 690.902 403.513C687.663 406.105 682.534 424.568 680.374 433.476"/><path stroke="#874D4D" d="M628.546 516.887C623.687 515.808 613.645 514.944 612.35 520.127C610.73 526.605 605.871 531.464 601.012 528.225C596.153 524.986 576.718 541.992 576.718 546.851C576.718 551.71 575.908 557.378 573.479 558.188C571.049 558.998 570.239 571.145 565.38 571.145C560.521 571.145 575.908 571.955 565.38 578.433C554.853 584.912 549.184 595.44 549.184 598.679C549.184 601.918 556.472 624.593 546.755 627.022C538.98 628.966 534.877 633.771 533.798 635.93C542.706 631.341 562.141 622.164 568.62 622.164C576.718 622.164 592.914 622.164 590.485 617.305C588.055 612.446 619.638 613.256 620.448 605.967C621.258 598.679 641.503 588.961 647.172 581.673C652.84 574.384 656.89 550.09 664.988 546.851C671.466 544.259 675.245 539.832 676.325 537.943M703.859 533.084C700.08 537.403 691.55 545.555 687.663 543.611C683.775 541.668 690.902 549.82 694.951 554.139C691.442 556.029 683.613 558.188 680.374 551.71C677.135 545.231 679.025 536.593 680.374 533.084C675.245 536.323 664.502 541.83 662.558 537.943C660.615 534.056 670.926 531.464 676.325 530.654C674.975 529.035 673.086 524.662 676.325 520.127C679.564 515.592 685.233 528.495 687.663 535.513L703.859 533.084Z"/><path stroke="#874D4D" d="M656.08 546.851C657.699 554.41 656.404 569.364 638.264 568.716C615.589 567.907 582.387 568.716 583.196 568.716C583.844 568.716 621.798 565.477 640.693 563.857C637.724 570.876 629.842 585.237 622.068 586.532C619.584 586.946 617.524 587.625 615.589 588.405M615.589 588.405C609.954 590.679 605.385 593.821 594.534 593.821C579.957 593.821 563.761 593.011 568.62 597.87C572.507 601.757 601.552 593.18 615.589 588.405Z"/><path stroke="#874D4D" d="M709.528 520.937C712.768 524.176 718.274 531.626 714.387 535.514C709.528 540.372 697.381 566.287 688.473 566.287C679.565 566.287 656.08 580.053 655.27 585.722C654.622 590.257 649.062 600.029 646.362 604.348C648.252 603.538 653.489 600.947 659.319 597.06C666.608 592.201 688.473 590.581 688.473 585.722C688.473 580.863 686.043 596.25 677.945 604.348C669.847 612.446 672.276 606.777 665.798 618.925C659.319 631.072 655.27 644.839 655.27 650.507C655.27 656.176 649.602 664.274 651.221 675.612C652.517 684.682 651.761 698.826 651.221 704.765C656.35 695.047 667.417 675.612 670.657 675.612C674.706 675.612 677.945 660.225 677.945 655.366C677.945 650.507 681.994 638.36 688.473 635.931C693.656 633.987 700.89 614.066 703.859 604.348L709.528 601.109M722.485 566.287C720.056 552.52 717.626 541.992 722.485 540.372C727.344 538.753 766.215 571.145 764.595 578.434C762.976 585.722 754.068 605.967 747.589 609.207C741.111 612.446 732.203 612.446 732.203 618.925C732.203 625.403 727.344 635.931 722.485 635.931C718.598 635.931 715.467 644.029 714.387 648.078C709.528 654.287 698.677 667.19 694.142 669.133C688.473 671.563 694.952 679.661 691.712 690.188C689.121 698.61 684.694 708.814 682.804 712.863V733.109C686.313 724.471 695.437 706.709 703.859 704.765C714.387 702.336 750.829 686.949 747.589 681.28C744.35 675.612 759.736 658.606 764.595 658.606C769.454 658.606 776.743 627.833 771.884 621.354C767.997 616.171 767.025 599.759 767.025 592.201C770.534 602.998 778.039 623.46 779.982 618.925C782.412 613.256 776.743 589.771 771.884 585.722C767.025 581.673 795.369 601.918 796.178 604.348C796.537 605.422 797.37 606.972 797.838 609.207M843.957 631.882C846.386 636.741 848.007 631.882 850.436 631.882C852.864 631.882 870.681 627.023 873.92 621.354C876.126 617.494 881.336 620.393 884.691 623.403M884.691 623.403C886.264 624.813 887.429 626.248 887.687 627.023C888.497 629.452 894.166 635.931 904.693 635.931C913.115 635.931 924.399 642.409 928.988 645.648C930.067 648.888 932.875 655.366 935.466 655.366C938.058 655.366 952.742 661.305 959.761 664.274C958.411 664.274 954.74 664.274 950.853 664.274C945.994 664.274 939.515 666.704 937.896 666.704C936.276 666.704 924.129 669.133 923.319 672.372C922.509 675.612 863.393 681.28 865.012 675.612C866.632 669.943 863.393 669.133 858.534 664.274C853.675 659.415 846.387 658.606 848.007 655.366C849.302 652.775 842.608 641.329 839.099 635.931C837.673 640.79 836.164 651.479 841.528 655.366C848.233 660.225 838.289 675.612 841.528 681.28C844.767 686.949 818.853 720.152 817.234 725.01C815.614 729.869 779.982 733.109 779.982 737.967C779.982 742.826 756.497 740.397 747.589 744.446C738.681 748.495 735.442 765.501 740.301 766.311C745.16 767.121 754.878 748.495 760.546 744.446C765.081 741.207 769.994 722.041 771.884 712.863C777.553 700.446 791.643 675.612 802.657 675.612C816.424 675.612 828.571 658.606 833.43 652.937C838.289 647.268 834.239 632.691 828.571 631.882C822.902 631.072 824.522 635.931 822.902 639.17C821.282 642.409 818.043 650.507 813.994 658.606C809.945 666.704 796.178 655.366 796.178 652.937C796.178 650.507 792.129 631.072 796.178 621.354C798.437 615.934 798.428 612.025 797.838 609.207M884.691 623.403C892.438 620.29 908.094 613.094 908.742 609.207C909.39 605.32 924.669 602.188 932.227 601.109C940.325 596.25 956.36 585.722 955.712 582.483C955.064 579.244 960.301 574.115 963 571.955C952.742 575.194 931.093 580.539 926.558 576.004C920.89 570.336 898.215 568.716 896.595 570.336C894.975 571.955 887.364 576.004 884.691 576.004C882.018 576.004 865.012 575.194 862.583 585.722C860.153 596.25 856.104 604.348 854.485 609.207C853.189 613.094 849.626 617.305 848.007 618.925C847.467 620.417 845.9 623.403 843.957 623.403C841.528 623.403 852.866 610.017 848.007 604.348C849.95 598.517 823.982 572.765 810.755 560.618C810.215 563.857 809.459 571.469 810.755 576.004C812.374 581.673 805.895 582.483 804.276 587.342C802.657 592.201 805.895 597.06 804.276 597.06C803.672 597.06 802.581 598.819 801.426 601.109M797.838 609.207C798.695 607.045 800.103 603.73 801.426 601.109M801.426 601.109C794.008 597.06 779.01 587.666 778.362 582.483C777.552 576.004 771.883 570.336 778.362 570.336C784.84 570.336 801.847 563.857 805.086 567.096C808.325 570.336 860.153 581.673 862.583 576.004C865.012 570.336 894.166 551.71 892.546 543.612C890.926 535.514 900.644 535.514 899.834 531.464C899.025 527.415 902.264 512.029 904.693 512.839C907.123 513.648 908.742 511.219 908.742 499.072C908.742 489.354 906.043 488.004 904.693 488.544C905.962 491.514 906.118 497.776 896.595 499.072C884.691 500.691 871.491 520.937 868.252 520.937C865.012 520.937 838.289 529.035 833.43 524.986C828.571 520.937 820.472 537.133 815.613 540.372C810.755 543.612 792.939 560.618 789.699 560.618C786.46 560.618 769.455 571.955 767.025 570.336C764.595 568.716 736.252 545.231 738.681 543.612C741.11 541.992 759.736 551.71 759.736 547.661C759.736 543.612 754.877 553.329 759.736 558.188C763.624 562.075 766.215 561.428 767.025 560.618C769.454 553.869 773.341 540.372 769.454 540.372C765.567 540.372 771.074 549.01 774.313 553.329C776.202 547.391 779.171 535.514 775.933 535.514C772.694 535.514 778.362 523.096 781.601 516.888C779.172 520.667 773.828 527.901 771.884 526.606C769.454 524.986 771.885 504.741 767.025 506.36C762.166 507.98 764.595 529.845 764.595 531.464C764.595 533.084 747.589 521.747 747.589 526.606C747.589 530.493 758.927 537.403 764.595 540.372C756.497 541.722 739.167 543.288 734.632 538.753C730.097 534.218 726.264 530.385 724.914 529.035C730.313 526.336 741.758 520.937 744.35 520.937C747.589 520.937 759.736 509.599 759.736 507.98C759.736 506.36 776.744 499.072 779.982 499.072C783.221 499.072 803.435 493.403 801.426 490.974C799.417 488.544 823.712 478.017 819.663 469.918C816.423 463.44 820.473 456.961 822.902 454.532C825.601 448.323 829.866 435.096 825.331 431.857C819.663 427.808 816.423 418.9 819.663 417.28C822.902 415.661 817.234 404.323 813.994 400.274C810.755 396.225 812.334 372.741 805.086 370.311C799.287 368.368 797.838 369.501 797.838 370.311C800.551 376.52 804.348 389.585 797.838 392.176C791.327 394.768 791.859 398.655 792.939 400.274C787.54 405.943 776.256 417.28 774.313 417.28C772.37 417.28 767.565 423.759 765.405 426.998M734.632 469.918C735.442 478.556 736.575 496.48 734.632 499.072C732.202 502.311 730.583 528.225 723.294 524.176C717.464 520.937 712.227 514.188 710.337 511.219"/><path stroke="#874D4D" d="M647.172 436.716C645.012 429.967 639.56 416.632 635.025 417.28M629.356 428.618C621.528 425.648 606.681 419.224 609.92 417.28C613.16 415.337 618.463 407.966 624.497 409.992C631.623 412.384 637.184 431.587 629.356 428.618ZM612.35 409.992C607.627 408.543 604.243 405.214 604.252 400.274C604.259 396.151 606.493 393.659 609.92 391.366C614.652 388.201 620.171 387.666 624.497 391.366C631.096 397.011 620.652 412.539 612.35 409.992ZM609.92 384.888C604.348 385.389 601.032 379.893 600.203 374.36C599.506 369.71 600.216 365.435 604.252 363.023C610.229 359.449 618.21 367.398 618.018 374.36C617.876 379.545 615.086 384.423 609.92 384.888ZM594.534 357.354C590.249 352.201 593.775 343.054 600.203 341.158C605.103 339.712 610.179 341.391 612.35 346.016C614.273 350.116 613.098 354.128 609.92 357.354C605.704 361.635 598.376 361.974 594.534 357.354Z"/><path stroke="#874D4D" d="M862.582 643.219C867.981 648.348 879.588 658.443 882.827 657.796C886.876 656.986 909.551 644.029 903.883 646.458C898.214 648.888 883.638 661.845 886.877 662.655C889.468 663.302 899.294 662.924 903.883 662.655C910.631 660.225 923.157 654.718 919.269 652.127C915.382 649.536 907.392 660.225 903.883 665.894M848.006 623.783C857.994 620.814 877.483 614.066 875.54 610.826C873.596 607.587 877.429 602.458 879.589 600.299L903.883 604.348C898.753 606.507 887.362 609.531 882.827 604.348C877.159 597.869 887.687 591.391 894.165 591.391C900.644 591.391 927.368 594.63 930.607 588.961M802.656 559.808C810.215 555.759 826.303 548.147 830.19 550.09C835.049 552.52 852.866 566.286 857.724 563.047C861.61 560.456 835.589 555.489 822.092 553.329C829.38 552.25 845.577 549.442 852.055 546.851C860.153 543.612 879.589 538.753 881.208 542.802C882.504 546.041 862.312 544.151 852.055 542.802C863.392 539.293 885.418 530.978 882.827 525.796"/><path stroke="#874D4D" d="M760.546 610.016C758.657 613.526 753.42 620.544 747.589 620.544C740.301 620.544 761.356 607.587 762.166 614.065C762.976 620.544 755.687 632.691 751.638 635.121C747.589 637.55 758.927 640.789 751.638 652.127C744.35 663.464 742.73 665.084 733.012 665.084C723.294 665.084 733.012 686.139 717.626 689.378C702.239 692.618 703.049 692.618 700.62 696.667C698.19 700.716 723.294 685.329 722.485 682.9"/></svg>