<svg xmlns="http://www.w3.org/2000/svg" width="792" height="1371" fill="none" viewBox="0 0 792 1371"><path fill="#874D4D" d="M722.112 1204.18C718.233 1208.06 723.728 1215.49 726.961 1218.72L726.154 1228.41C724.268 1225.45 719.042 1218.72 713.223 1215.49C705.949 1211.45 704.333 1237.29 701.908 1240.52C699.968 1243.11 701.1 1260.98 701.908 1269.59C692.21 1283.86 672.491 1312.4 671.197 1312.4C669.042 1315.63 664.246 1322.09 662.307 1322.09C660.368 1322.09 649.107 1333.39 643.719 1339.05C644.796 1340.66 645.327 1344.54 638.83 1347.12C632.332 1349.71 636.122 1362.74 638.83 1368.93C638.83 1369.73 637.383 1370.86 631.596 1368.93C624.362 1366.5 625.939 1343.08 622.706 1339.05C619.473 1335.01 613.816 1323.7 617.049 1322.09C620.282 1320.47 617.049 1311.59 611.391 1307.55C606.866 1304.32 611.122 1291.13 613.816 1284.94C616.24 1282.52 620.281 1276.06 617.049 1269.59C613.008 1261.52 637.253 1251.02 635.249 1248.6C633.244 1246.18 653.417 1240.52 656.649 1240.52C659.881 1240.52 676.854 1233.25 676.854 1231.64C676.854 1230.02 688.977 1218.72 692.21 1218.72C694.796 1218.72 706.219 1213.33 711.606 1210.64L701.908 1200.95C697.382 1196.43 680.087 1197.99 672.005 1199.34C677.662 1202.3 688.977 1209.19 688.977 1213.06C688.977 1217.91 672.005 1206.6 672.005 1208.22C672.005 1209.83 674.43 1231.64 669.58 1233.25C664.73 1234.87 667.156 1214.68 664.731 1213.06C662.791 1211.77 657.458 1218.99 655.033 1222.76C658.266 1216.56 663.923 1204.18 660.691 1204.18C657.458 1204.18 660.421 1192.34 662.307 1186.41C663.422 1187.9 664.807 1189.9 665.983 1191.88C666.763 1187.65 668.357 1182.54 669.58 1179.15C670.388 1178.34 672.975 1177.69 676.854 1181.57C679.595 1184.31 679.238 1188.59 678.409 1191.08C682.929 1191.11 695.872 1197.43 697.867 1196.11C700.292 1194.49 672.005 1171.07 669.58 1169.46C667.155 1167.84 650.184 1179.15 646.952 1179.15C643.719 1179.15 625.939 1196.11 621.09 1199.34C616.241 1202.57 608.158 1218.72 603.309 1214.68C598.46 1210.64 571.79 1218.72 568.558 1218.72C565.325 1218.72 552.151 1238.91 540.271 1240.52C530.767 1241.81 530.923 1248.06 532.189 1251.02C530.842 1251.56 528.148 1250.21 528.148 1240.52C528.148 1228.41 529.765 1225.99 532.189 1226.79C534.614 1227.6 537.847 1212.26 537.038 1208.22C536.23 1204.18 545.928 1204.18 544.312 1196.11C542.696 1188.03 571.79 1169.46 574.215 1163.8C576.64 1158.15 628.363 1169.46 631.596 1172.69C634.829 1175.92 651.801 1169.46 658.266 1169.46C664.732 1169.46 659.074 1163.8 658.266 1157.34C657.62 1152.17 642.652 1142.81 635.249 1138.77C634.096 1141.05 633.007 1142.81 632.404 1142.81C630.788 1142.81 634.02 1147.65 632.404 1152.5C630.788 1157.34 624.322 1158.15 625.939 1163.8C627.232 1168.32 611.93 1144.42 611.391 1147.65C598.191 1135.54 586.822 1141.35 588.762 1135.54C583.912 1129.88 595.227 1116.54 592.803 1116.54C590.864 1116.54 589.301 1119.51 588.762 1121C587.145 1122.62 583.59 1126.82 582.297 1130.69C580.68 1135.54 576.639 1143.61 574.215 1154.11C571.79 1164.61 554.818 1163.8 552.151 1163.8C549.484 1163.8 541.888 1167.84 540.271 1169.46C538.655 1171.07 516.026 1169.46 510.368 1163.8C505.842 1159.28 484.237 1164.61 474 1167.84C476.694 1165.69 481.92 1160.57 481.274 1157.34C480.627 1154.11 496.629 1143.61 504.711 1138.77C512.254 1137.69 527.502 1134.57 528.148 1130.69C528.795 1126.82 544.42 1119.64 552.151 1116.54C550.582 1115.13 549.419 1113.7 549.161 1112.93C548.353 1110.5 542.696 1104.04 532.189 1104.04C523.784 1104.04 512.523 1097.58 507.944 1094.35C506.866 1091.12 504.064 1084.66 501.478 1084.66C498.892 1084.66 484.237 1078.74 477.233 1075.78H486.123C490.972 1075.78 497.437 1073.35 499.054 1073.35C500.67 1073.35 512.793 1070.93 513.601 1067.7C514.409 1064.47 573.407 1058.82 571.79 1064.47C570.174 1070.12 573.407 1070.93 578.256 1075.78C583.105 1080.62 590.378 1081.43 588.762 1084.66C587.469 1087.24 594.15 1098.66 597.652 1104.04C599.074 1099.2 600.581 1088.54 595.227 1084.66C588.536 1079.81 598.46 1064.47 595.227 1058.82C591.995 1053.16 617.856 1020.05 619.473 1015.21C621.089 1010.36 656.649 1007.13 656.649 1002.29C656.649 999.365 665.173 999.087 673.889 998.44C674.608 997.241 675.332 996.337 676.046 995.827C681.703 991.789 691.401 973.215 696.25 974.022C701.1 974.83 697.867 991.789 688.977 995.827C685.448 997.43 679.627 998.015 673.889 998.44C670.048 1004.84 666.319 1019.61 664.731 1027.32C659.074 1039.71 645.012 1064.47 634.02 1064.47C620.281 1064.47 608.158 1081.43 603.309 1087.08C598.46 1092.74 602.501 1107.27 608.158 1108.08C613.816 1108.89 612.199 1104.04 613.816 1100.81C615.432 1097.58 618.665 1089.51 622.706 1081.43C626.747 1073.35 640.486 1084.66 640.486 1087.08C640.486 1089.51 644.527 1108.89 640.486 1118.58C638.232 1123.98 638.241 1127.88 638.83 1130.69C639.297 1132.92 640.128 1134.47 640.486 1135.54C641.294 1137.96 669.58 1158.15 664.731 1154.11C659.882 1150.07 654.225 1126.65 656.649 1121C658.589 1116.48 666.078 1136.88 669.58 1147.65C669.58 1140.11 668.61 1123.75 664.731 1118.58C659.882 1112.12 667.156 1081.43 672.005 1081.43C676.854 1081.43 692.209 1064.47 688.977 1058.82C685.744 1053.16 722.112 1037.82 732.619 1035.4C741.024 1033.46 750.13 1015.75 753.632 1007.13V1027.32C751.746 1031.36 747.328 1041.54 744.741 1049.93C741.509 1060.43 747.974 1068.51 742.317 1070.93C737.791 1072.87 726.961 1085.74 722.112 1091.93C721.035 1095.97 717.91 1104.04 714.031 1104.04C709.182 1104.04 704.332 1114.54 704.332 1121C704.332 1127.46 695.442 1127.46 688.977 1130.69C682.511 1133.92 673.621 1154.11 672.005 1161.38C670.389 1168.65 709.182 1200.95 714.031 1199.34C718.88 1197.72 716.455 1187.22 714.031 1173.49C715.377 1162.99 719.849 1141.35 726.961 1138.77L732.619 1135.54C735.582 1125.85 742.802 1105.98 747.974 1104.04C754.44 1101.62 758.481 1089.51 758.481 1084.66C758.481 1079.81 761.714 1064.47 765.754 1064.47C768.987 1064.47 780.032 1045.09 785.151 1035.4C784.612 1041.32 783.858 1055.43 785.151 1064.47C786.767 1075.78 781.11 1083.85 781.11 1089.51C781.11 1095.16 777.069 1108.89 770.604 1121C764.138 1133.11 766.563 1127.46 758.481 1135.54C753.568 1140.45 750.746 1148.04 749.288 1152.15C754.109 1148.72 770.871 1146.93 777.069 1142.81C782.888 1138.93 788.114 1136.35 790 1135.54C787.306 1139.84 781.757 1149.59 781.11 1154.11C780.302 1159.76 756.864 1173.49 747.974 1173.49C739.084 1173.49 726.961 1199.34 722.112 1204.18Z"/><path stroke="#874D4D" d="M592.803 1108.08C590.379 1103.23 588.762 1108.08 586.338 1108.08C583.914 1108.08 566.133 1112.93 562.9 1118.58C560.699 1122.43 555.5 1119.54 552.151 1116.54M552.151 1116.54C550.582 1115.13 549.419 1113.7 549.161 1112.93C548.353 1110.5 542.696 1104.04 532.189 1104.04C523.784 1104.04 512.523 1097.58 507.944 1094.35C506.866 1091.12 504.064 1084.66 501.478 1084.66C498.892 1084.66 484.237 1078.74 477.233 1075.78C478.58 1075.78 482.243 1075.78 486.123 1075.78C490.972 1075.78 497.437 1073.35 499.054 1073.35C500.67 1073.35 512.793 1070.93 513.601 1067.7C514.409 1064.47 573.407 1058.82 571.79 1064.47C570.174 1070.12 573.407 1070.93 578.256 1075.78C583.105 1080.62 590.378 1081.43 588.762 1084.66C587.469 1087.24 594.15 1098.66 597.652 1104.04C599.074 1099.2 600.581 1088.54 595.227 1084.66C588.536 1079.81 598.46 1064.47 595.227 1058.82C591.995 1053.16 617.856 1020.05 619.473 1015.21C621.089 1010.36 656.649 1007.13 656.649 1002.29C656.649 997.442 680.087 999.865 688.977 995.827C697.867 991.789 701.1 974.83 696.25 974.022C691.401 973.215 681.703 991.789 676.046 995.827C671.52 999.057 666.617 1018.17 664.731 1027.32C659.074 1039.71 645.012 1064.47 634.02 1064.47C620.281 1064.47 608.158 1081.43 603.309 1087.08C598.46 1092.74 602.501 1107.27 608.158 1108.08C613.816 1108.89 612.199 1104.04 613.816 1100.81C615.432 1097.58 618.665 1089.51 622.706 1081.43C626.747 1073.35 640.486 1084.66 640.486 1087.08C640.486 1089.51 644.527 1108.89 640.486 1118.58C638.232 1123.98 638.241 1127.88 638.83 1130.69M552.151 1116.54C544.42 1119.64 528.795 1126.82 528.148 1130.69C527.502 1134.57 512.254 1137.69 504.711 1138.77C496.629 1143.61 480.627 1154.11 481.274 1157.34C481.92 1160.57 476.694 1165.69 474 1167.84C484.237 1164.61 505.842 1159.28 510.368 1163.8C516.026 1169.46 538.655 1171.07 540.271 1169.46C541.888 1167.84 549.484 1163.8 552.151 1163.8C554.818 1163.8 571.79 1164.61 574.215 1154.11C576.639 1143.61 580.68 1135.54 582.297 1130.69C583.59 1126.82 587.145 1122.62 588.762 1121C589.301 1119.51 590.864 1116.54 592.803 1116.54C595.227 1116.54 583.912 1129.88 588.762 1135.54C586.822 1141.35 598.191 1135.54 611.391 1147.65C611.93 1144.42 627.232 1168.32 625.939 1163.8C624.322 1158.15 630.788 1157.34 632.404 1152.5C634.02 1147.65 630.788 1142.81 632.404 1142.81C633.007 1142.81 634.096 1141.05 635.249 1138.77M638.83 1130.69C639.297 1132.92 640.128 1134.47 640.486 1135.54C641.294 1137.96 669.58 1158.15 664.731 1154.11C659.882 1150.07 654.225 1126.65 656.649 1121C658.589 1116.48 666.078 1136.88 669.58 1147.65C669.58 1140.11 668.61 1123.75 664.731 1118.58C659.882 1112.12 667.156 1081.43 672.005 1081.43C676.854 1081.43 692.209 1064.47 688.977 1058.82C685.744 1053.16 722.112 1037.82 732.619 1035.4C741.024 1033.46 750.13 1015.75 753.632 1007.13V1027.32C751.746 1031.36 747.328 1041.54 744.741 1049.93C741.509 1060.43 747.974 1068.51 742.317 1070.93C737.791 1072.87 726.961 1085.74 722.112 1091.93C721.035 1095.97 717.91 1104.04 714.031 1104.04C709.182 1104.04 704.332 1114.54 704.332 1121C704.332 1127.46 695.442 1127.46 688.977 1130.69C682.511 1133.92 673.621 1154.11 672.005 1161.38C670.389 1168.65 709.181 1200.95 714.031 1199.34C718.88 1197.72 716.455 1187.22 714.031 1173.49C715.377 1162.99 719.849 1141.35 726.961 1138.77L732.619 1135.54C735.582 1125.85 742.802 1105.98 747.974 1104.04C754.44 1101.62 758.481 1089.51 758.481 1084.66C758.481 1079.81 761.714 1064.47 765.754 1064.47C768.987 1064.47 780.032 1045.09 785.151 1035.4C784.612 1041.32 783.858 1055.43 785.151 1064.47C786.767 1075.78 781.11 1083.85 781.11 1089.51C781.11 1095.16 777.069 1108.89 770.604 1121C764.138 1133.11 766.563 1127.46 758.481 1135.54C750.399 1143.61 747.974 1158.96 747.974 1154.11C747.974 1149.27 769.795 1147.65 777.069 1142.81C782.888 1138.93 788.114 1136.35 790 1135.54C787.306 1139.84 781.757 1149.59 781.11 1154.11C780.302 1159.76 756.864 1173.49 747.974 1173.49C739.084 1173.49 726.961 1199.34 722.112 1204.18C718.233 1208.06 723.728 1215.49 726.961 1218.72L726.154 1228.41C724.268 1225.45 719.042 1218.72 713.223 1215.49C705.949 1211.45 704.333 1237.29 701.908 1240.52C699.968 1243.11 701.1 1260.98 701.908 1269.59C692.21 1283.86 672.491 1312.4 671.197 1312.4C669.042 1315.63 664.246 1322.09 662.307 1322.09C660.368 1322.09 649.107 1333.39 643.719 1339.05C644.796 1340.66 645.327 1344.54 638.83 1347.12C632.332 1349.71 636.122 1362.74 638.83 1368.93C638.83 1369.73 637.383 1370.86 631.596 1368.93C624.362 1366.5 625.939 1343.08 622.706 1339.05C619.473 1335.01 613.816 1323.7 617.049 1322.09C620.282 1320.47 617.049 1311.59 611.391 1307.55C606.866 1304.32 611.122 1291.13 613.816 1284.94C616.24 1282.52 620.281 1276.06 617.049 1269.59C613.008 1261.52 637.253 1251.02 635.249 1248.6C633.244 1246.18 653.417 1240.52 656.649 1240.52C659.881 1240.52 676.854 1233.25 676.854 1231.64C676.854 1230.02 688.977 1218.72 692.21 1218.72C694.796 1218.72 706.219 1213.33 711.606 1210.64C710.259 1209.3 706.434 1205.47 701.908 1200.95C697.382 1196.43 680.087 1197.99 672.005 1199.34C677.662 1202.3 688.977 1209.19 688.977 1213.06C688.977 1217.91 672.005 1206.6 672.005 1208.22C672.005 1209.83 674.43 1231.64 669.58 1233.25C664.73 1234.87 667.156 1214.68 664.731 1213.06C662.791 1211.77 657.458 1218.99 655.033 1222.76C658.266 1216.56 663.923 1204.18 660.691 1204.18C657.458 1204.18 660.421 1192.34 662.307 1186.41C665.54 1190.72 671.035 1199.34 667.156 1199.34C663.277 1199.34 667.156 1185.88 669.58 1179.15C670.388 1178.34 672.975 1177.69 676.854 1181.57C681.704 1186.41 676.854 1196.11 676.854 1192.07C676.854 1188.03 695.443 1197.72 697.867 1196.11C700.292 1194.49 672.005 1171.07 669.58 1169.46C667.155 1167.84 650.184 1179.15 646.952 1179.15C643.719 1179.15 625.939 1196.11 621.09 1199.34C616.241 1202.57 608.158 1218.72 603.309 1214.68C598.46 1210.64 571.79 1218.72 568.558 1218.72C565.325 1218.72 552.151 1238.91 540.271 1240.52C530.767 1241.81 530.923 1248.06 532.189 1251.02C530.842 1251.56 528.148 1250.21 528.148 1240.52C528.148 1228.41 529.765 1225.99 532.189 1226.79C534.614 1227.6 537.847 1212.26 537.038 1208.22C536.23 1204.18 545.928 1204.18 544.312 1196.11C542.696 1188.03 571.79 1169.46 574.215 1163.8C576.64 1158.15 628.363 1169.46 631.596 1172.69C634.829 1175.92 651.801 1169.46 658.266 1169.46C664.732 1169.46 659.074 1163.8 658.266 1157.34C657.62 1152.17 642.652 1142.81 635.249 1138.77M638.83 1130.69C637.974 1132.85 636.569 1136.15 635.249 1138.77"/><path fill="#874D4D" d="M330.558 150.054C323.246 155.785 311.876 145.025 307.104 138.928L290.643 138.306C295.237 142.082 305.485 152.246 309.728 162.692C315.032 175.749 271.244 173.185 265.316 176.601C260.574 179.335 230.747 173.779 216.426 170.659C190.452 184.051 138.437 211.379 138.172 213.554C132.3 216.518 120.455 223.262 120.058 226.523C119.662 229.784 98.3476 246.41 87.74 254.315C85.2441 252.173 78.834 250.488 73.1601 260.886C67.4862 271.284 46.3512 262.247 36.4929 256.429C35.1348 256.264 32.9379 258.466 35.0142 268.593C37.6098 281.253 77.3153 283.389 83.4447 289.651C89.574 295.913 107.43 307.737 110.807 302.631C114.184 297.525 128.462 304.777 134.096 315.116C138.603 323.387 161.654 318.926 172.616 315.661C177.186 312.079 188.877 306.604 199.08 313.361C211.835 321.807 234.445 283.181 238.11 287.047C241.774 290.914 255.404 258.146 256.064 252.71C256.725 247.275 272.417 220.218 275.133 220.548C277.849 220.879 299.34 202.804 300.001 197.367C300.529 193.018 311.918 174.91 317.546 166.4L331.86 184.69C338.54 193.225 332.379 221.991 328.464 235.306C324.641 225.188 315.365 204.752 308.846 203.96C300.698 202.969 316.241 233.821 313.525 233.491C310.809 233.16 274.638 224.626 270.93 232.451C267.223 240.276 301.67 240.324 303.89 244.732C305.666 248.259 292.444 255.753 285.611 259.059C296.684 254.889 318.663 247.907 318.003 253.342C317.342 258.778 337.866 256.216 348.21 254.256C345.939 252.077 342.861 249.34 339.771 246.957C347.042 246.509 355.959 244.874 361.919 243.511C363.442 242.317 365.058 238.1 359.332 230.783C355.287 225.614 348.006 225.339 343.664 226.226C344.536 218.619 336.539 195.56 339.182 192.476C342.394 188.729 375.995 241.084 378.216 245.492C380.436 249.9 357.954 276.128 357.294 281.564C356.633 287 324.479 313.433 318.056 320.927C311.633 328.421 282.82 338.711 288.619 347.691C294.418 356.671 275.386 399.869 274.725 405.305C274.064 410.741 237.42 428.768 232.276 448.415C228.16 464.133 217.69 462.594 212.969 459.86C211.788 462.015 213.501 466.821 229.798 468.801C250.168 471.278 254.573 469.055 253.71 464.812C252.848 460.57 279.312 458.27 285.937 460.455C292.562 462.639 294.544 446.33 307.794 450.699C321.044 455.068 358.226 409.939 368.228 407.017C378.23 404.095 369.79 314.804 365.019 308.707C360.248 302.61 374.581 275.391 375.903 264.518C377.225 253.645 385.574 264.314 396.274 266.994C404.833 269.138 417.527 296.223 422.804 309.498C418.729 310.97 415.555 312.442 415.432 313.456C415.102 316.173 407.614 309.748 399.135 311.475C390.657 313.202 387.977 323.91 378.801 320.036C371.46 316.937 408.531 347.555 402.988 347.801C420.661 372.475 408.559 390.405 418.733 388.332C427.248 397.643 452.009 381.344 451.514 385.42C451.117 388.681 445.792 390.701 443.178 391.304C440.132 393.691 432.343 398.812 425.56 400.194C417.081 401.922 402.675 407.067 384.525 408.998C366.375 410.929 364.263 439.634 363.718 444.12C363.173 448.606 354.83 460.554 351.784 462.942C348.737 465.33 346.827 503.714 355.177 514.383C361.857 522.919 348.478 558.162 340.953 574.716C345.125 570.626 354.794 562.883 360.094 564.63C365.394 566.378 386.32 541.614 396.12 529.014C399.473 516.55 407.841 491.547 414.492 491.252C421.142 490.957 436.404 466.149 443.204 453.782C445.248 456.708 447.417 458.956 448.664 459.548C452.573 461.402 462.281 472.236 460.133 489.904C458.415 504.038 466.978 524.295 471.474 532.657C476.686 535.13 486.977 541.162 486.449 545.511C485.92 549.86 492.883 575.715 496.431 588.099L498.248 573.149C499.239 564.994 504.635 554.617 504.966 551.899C505.296 549.181 511.848 529.29 517.445 528.591C523.043 527.892 544.609 429.836 534.772 431.399C524.935 432.961 524.238 427.36 517.081 418.215C509.924 409.07 510.053 396.674 504.29 398.732C499.68 400.378 481.852 386.81 473.514 379.82C481.953 378.419 500.188 378.064 505.612 387.859C512.392 400.103 540.224 386.55 549.069 393.142C557.915 399.734 618.881 363.011 627.36 361.284C635.838 359.556 648.539 300.418 656.688 301.408C661.601 302.005 663.813 287.729 666.682 273.204C668.844 272.239 670.514 271.207 671.517 270.111C679.464 261.423 712.681 248.911 712.314 240.591C711.947 232.272 682.768 234.241 674.16 248.366C670.743 253.972 668.57 263.642 666.682 273.204C655.135 278.354 629.528 281.605 616.24 282.7C594.261 289.682 549.739 308.267 547.493 326.751C544.684 349.855 513.687 366.774 503.19 373.773C492.692 380.772 469.073 371.005 468.872 361.327C468.67 351.648 476.488 355.357 482.251 353.299C488.013 351.241 502.254 347.455 516.661 342.311C531.067 337.166 514.863 311.751 510.789 311.256C506.715 310.761 474.948 300.004 457.825 304.818C448.275 307.503 441.722 306.692 437.116 305.127C433.464 303.886 431.035 302.172 429.306 301.352C425.397 299.497 397.228 247.803 403.027 256.783C408.826 265.762 447.053 280.063 457.055 277.142C465.057 274.804 432.274 258.039 414.883 249.949C427.558 251.49 454.883 256.466 462.781 264.046C472.654 273.521 525.747 267.562 526.738 259.408C527.729 251.253 559.387 228.898 568.233 235.49C577.078 242.081 610.315 184.06 616.537 166.887C621.514 153.148 653.162 141.457 668.364 137.329L634.413 133.202C627.237 135.548 609.222 140.897 594.57 143.53C576.255 146.82 563.996 134.296 558.765 143.315C554.581 150.53 530.729 166.111 519.326 173C512.316 173.987 498.096 177.591 497.303 184.114C496.312 192.268 477.666 198.277 466.802 196.956C455.938 195.636 454.12 210.586 447.367 220.798C440.613 231.01 404.845 241.833 392.292 243.065C379.739 244.298 333.347 172.459 337.054 164.635C340.761 156.811 357.92 163.034 380.512 169.917C398.441 169.799 435.751 166.704 441.551 155.271L448.139 146.417C465.042 143.415 499.925 135.335 504.242 127.033C509.638 116.656 530.834 112.336 538.983 113.327C547.131 114.317 573.595 112.018 574.421 105.222C575.081 99.7859 609.932 85.1738 627.275 78.5473C617.206 78.2428 593.331 76.6279 578.385 72.6045C559.703 67.5753 544.966 75.438 535.46 74.2825C525.954 73.127 502.041 77.116 480.349 85.5124C458.656 93.9088 468.658 90.9872 453.426 102.927C444.167 110.185 430.82 113.378 423.605 114.989C430.367 107.584 436.793 79.7618 445.003 70.1827C452.711 61.1898 458.125 52.9294 459.869 49.9233C452.075 53.5731 434.554 60.9135 426.816 61.0763C417.145 61.2799 389.267 97.8866 387.45 112.836C385.633 127.786 339.697 142.89 330.558 150.054Z"/><path stroke="#874D4D" d="M465.733 387.149C473.386 392.216 464.907 393.945 464.411 398.021C463.916 402.097 452.133 431.007 441.966 435.288C435.043 438.203 438.841 447.537 443.204 453.782M443.204 453.782C445.248 456.708 447.417 458.956 448.664 459.548C452.573 461.402 462.281 472.236 460.133 489.904C458.415 504.038 466.978 524.295 471.474 532.657C476.685 535.13 486.977 541.162 486.449 545.511C485.92 549.86 492.883 575.715 496.431 588.099C496.706 585.834 497.455 579.672 498.248 573.149C499.239 564.994 504.635 554.617 504.966 551.899C505.296 549.181 511.848 529.29 517.445 528.591C523.043 527.892 544.609 429.836 534.772 431.399C524.935 432.961 524.238 427.36 517.081 418.215C509.924 409.07 510.053 396.674 504.29 398.732C499.68 400.378 481.852 386.81 473.514 379.82C481.953 378.419 500.188 378.064 505.612 387.859C512.392 400.103 540.224 386.55 549.069 393.142C557.915 399.734 618.881 363.011 627.36 361.284C635.838 359.556 648.539 300.418 656.688 301.408C664.836 302.399 665.553 262.49 674.16 248.366C682.768 234.241 711.947 232.272 712.314 240.591C712.681 248.911 679.464 261.423 671.517 270.111C665.16 277.061 632.017 281.399 616.24 282.7C594.261 289.682 549.739 308.267 547.493 326.751C544.684 349.855 513.687 366.774 503.19 373.773C492.692 380.772 469.073 371.005 468.872 361.327C468.67 351.648 476.488 355.357 482.251 353.299C488.013 351.241 502.254 347.455 516.661 342.311C531.067 337.166 514.863 311.751 510.789 311.256C506.715 310.761 474.948 300.004 457.825 304.818C448.275 307.503 441.722 306.692 437.116 305.127M443.204 453.782C436.404 466.149 421.142 490.957 414.492 491.252C407.841 491.547 399.473 516.55 396.12 529.014C386.32 541.614 365.394 566.378 360.094 564.63C354.794 562.883 345.125 570.626 340.953 574.716C348.478 558.162 361.857 522.919 355.177 514.383C346.827 503.714 348.737 465.33 351.783 462.942C354.83 460.554 363.173 448.606 363.718 444.12C364.263 439.634 366.375 410.929 384.525 408.998C402.675 407.067 417.081 401.922 425.56 400.194C432.343 398.812 440.132 393.691 443.178 391.304C445.792 390.701 451.117 388.681 451.514 385.42C452.009 381.344 427.248 397.643 418.733 388.332C408.559 390.405 420.661 372.475 402.988 347.801C408.531 347.555 371.46 316.937 378.801 320.036C387.977 323.91 390.657 313.202 399.135 311.475C407.614 309.748 415.102 316.173 415.432 313.456C415.555 312.442 418.729 310.97 422.804 309.498M437.116 305.127C433.464 303.886 431.035 302.172 429.306 301.352C425.397 299.497 397.228 247.803 403.027 256.783C408.826 265.762 447.053 280.063 457.055 277.142C465.057 274.804 432.274 258.039 414.883 249.949C427.558 251.49 454.883 256.466 462.781 264.046C472.654 273.521 525.747 267.562 526.738 259.408C527.729 251.253 559.387 228.898 568.233 235.49C577.078 242.081 610.315 184.06 616.537 166.887C621.514 153.148 653.162 141.457 668.364 137.329L634.413 133.202C627.237 135.548 609.222 140.897 594.57 143.53C576.255 146.82 563.996 134.296 558.765 143.315C554.581 150.53 530.729 166.111 519.326 173C512.316 173.987 498.096 177.591 497.303 184.114C496.312 192.268 477.666 198.277 466.802 196.956C455.938 195.636 454.12 210.586 447.367 220.798C440.613 231.01 404.845 241.833 392.292 243.065C379.739 244.297 333.347 172.459 337.054 164.635C340.761 156.811 357.92 163.034 380.512 169.917C398.441 169.799 435.751 166.704 441.551 155.271L448.139 146.417C465.042 143.415 499.925 135.335 504.242 127.033C509.638 116.656 530.834 112.336 538.983 113.327C547.131 114.317 573.595 112.018 574.421 105.222C575.081 99.7859 609.932 85.1738 627.275 78.5473C617.206 78.2428 593.331 76.6279 578.385 72.6045C559.703 67.5753 544.966 75.438 535.46 74.2825C525.954 73.1269 502.041 77.116 480.349 85.5124C458.656 93.9088 468.658 90.9872 453.426 102.927C438.193 114.867 411.895 115.808 420.043 116.798C428.191 117.789 435.368 81.4239 445.003 70.1827C452.711 61.1898 458.125 52.9294 459.869 49.9233C452.075 53.5731 434.554 60.9135 426.816 61.0763C417.145 61.2798 389.267 97.8866 387.45 112.836C385.633 127.786 339.697 142.89 330.558 150.054C323.246 155.785 311.876 145.025 307.104 138.928L290.643 138.306C295.237 142.082 305.485 152.246 309.728 162.692C315.032 175.749 271.244 173.185 265.316 176.601C260.574 179.335 230.747 173.779 216.426 170.659C190.452 184.051 138.437 211.379 138.172 213.554C132.3 216.518 120.455 223.262 120.059 226.523C119.662 229.784 98.3476 246.41 87.7399 254.315C85.2441 252.173 78.834 250.488 73.1601 260.886C67.4862 271.284 46.3511 262.247 36.4929 256.429C35.1348 256.264 32.9378 258.466 35.0142 268.593C37.6098 281.253 77.3153 283.389 83.4446 289.651C89.574 295.913 107.43 307.737 110.807 302.631C114.184 297.525 128.462 304.777 134.096 315.116C138.603 323.387 161.654 318.926 172.616 315.661C177.186 312.079 188.877 306.604 199.08 313.361C211.835 321.807 234.445 283.181 238.11 287.047C241.774 290.914 255.404 258.146 256.064 252.71C256.725 247.275 272.417 220.218 275.133 220.548C277.849 220.879 299.34 202.804 300.001 197.367C300.529 193.018 311.918 174.91 317.546 166.4C319.534 168.941 325.18 176.155 331.86 184.69C338.54 193.225 332.379 221.991 328.464 235.306C324.641 225.188 315.365 204.752 308.846 203.96C300.698 202.969 316.241 233.821 313.525 233.491C310.809 233.16 274.638 224.626 270.93 232.451C267.223 240.276 301.67 240.324 303.89 244.732C305.666 248.259 292.444 255.753 285.611 259.059C296.684 254.889 318.663 247.907 318.003 253.342C317.342 258.778 337.866 256.216 348.21 254.256C341.628 247.94 328.265 236.937 327.473 243.46C326.68 249.984 350.107 246.212 361.919 243.511C363.442 242.317 365.058 238.1 359.332 230.783C352.175 221.638 334.887 227.812 341.677 228.637C348.468 229.463 335.971 196.223 339.182 192.476C342.394 188.729 375.995 241.084 378.216 245.492C380.436 249.9 357.954 276.128 357.294 281.564C356.633 287 324.479 313.433 318.056 320.927C311.633 328.421 282.82 338.711 288.619 347.691C294.418 356.671 275.386 399.869 274.725 405.305C274.064 410.741 237.42 428.768 232.276 448.415C228.16 464.133 217.69 462.594 212.969 459.86C211.788 462.015 213.501 466.821 229.798 468.801C250.168 471.278 254.573 469.055 253.71 464.812C252.848 460.57 279.312 458.27 285.937 460.455C292.562 462.639 294.544 446.33 307.794 450.699C321.044 455.068 358.226 409.939 368.228 407.017C378.23 404.095 369.79 314.804 365.019 308.707C360.248 302.61 374.581 275.391 375.903 264.518C377.225 253.645 385.574 264.314 396.274 266.994C404.833 269.138 417.527 296.223 422.804 309.498M437.116 305.127C433.316 306.125 427.469 307.812 422.804 309.498"/></svg>