<svg xmlns="http://www.w3.org/2000/svg" width="101" height="103" fill="none" viewBox="0 0 101 103"><path stroke="#EEEDE3" d="M76.5191 6.13718C59.1511 7.48175 20.3645 9.36414 4.16254 6.13718C-16.0899 2.10348 76.5191 -2.11357 76.5191 4.30368C76.5191 9.43748 76.5191 13.6545 76.5191 15.1213C79.4035 15.1213 85.9825 15.1213 89.2229 15.1213C93.2734 15.1213 99.5333 18.4182 99.5333 29.606C99.5333 32.6898 98.9809 54.8472 99.5333 65.7259C98.7968 68.1706 96.6979 73.1333 94.194 73.4266C91.69 73.72 80.14 74.649 74.678 75.0768C74.678 75.0768 75.3913 80.6251 74.678 84.0609C73.1024 91.6501 69.9648 98.085 62.3424 99.6457C48.0314 102.576 29.5702 103.496 16.8664 99.6457C6.7033 96.5654 4.16254 87.9724 4.16254 84.0609L1.58495 7.78735C24.8446 9.75802 71.6953 12.957 73.0209 9.98755C74.3466 7.01811 74.678 15.4731 74.678 20.0718C74.0975 21.3242 73.9059 23.3815 76.5191 23.6224M76.5191 23.6224C77.2214 23.6871 78.1264 23.6207 79.2808 23.3721C86.093 21.9053 87.5659 17.1382 89.2229 23.3721C93.1998 27.1858 94.194 49.2856 94.194 59.8587C94.6236 62.9146 94.2308 69.0262 89.2229 69.0262C82.9631 69.0262 74.678 72.3265 74.678 69.0262C74.678 66.386 75.9054 37.6569 76.5191 23.6224Z"/></svg>