<svg xmlns="http://www.w3.org/2000/svg" width="375" height="112" fill="none" viewBox="0 0 375 112"><path stroke="#EEEDE3" d="M76.2525 14.9372C58.8845 16.2818 20.0979 18.1642 3.89594 14.9372C-16.3565 10.9035 76.2525 6.68648 76.2525 13.1037C76.2525 18.2375 76.2525 22.4546 76.2525 23.9214C79.1369 23.9214 85.7159 23.9214 88.9563 23.9214C93.0068 23.9214 99.2667 27.2183 99.2667 38.406C99.2667 41.4898 98.7143 63.6472 99.2667 74.526C98.5302 76.9707 96.4313 81.9333 93.9274 82.2267C91.4234 82.52 79.8734 83.449 74.4114 83.8768C74.4114 83.8768 75.1247 89.4251 74.4114 92.861C72.8358 100.45 69.6982 106.885 62.0758 108.446C47.7648 111.376 29.3036 112.296 16.5998 108.446C6.4367 105.365 3.89594 96.7725 3.89594 92.861L1.31835 16.5874C24.578 18.5581 71.4287 21.757 72.7543 18.7876C74.08 15.8182 74.4114 24.2732 74.4114 28.8718C73.8309 30.1243 73.6393 32.1816 76.2525 32.4225M76.2525 32.4225C76.9548 32.4872 77.8598 32.4207 79.0142 32.1721C85.8264 30.7053 87.2993 25.9382 88.9563 32.1721C92.9332 35.9858 93.9274 58.0856 93.9274 68.6588C94.357 71.7146 93.9642 77.8263 88.9563 77.8263C82.6965 77.8263 74.4114 81.1266 74.4114 77.8263C74.4114 75.186 75.6388 46.457 76.2525 32.4225Z"/><path stroke="#EEEDE3" d="M212.996 10.5371C195.887 11.8816 157.679 13.764 141.719 10.5371C121.769 6.50338 212.996 2.28633 212.996 8.70358C212.996 13.8374 212.996 18.0544 212.996 19.5213C215.837 19.5213 222.318 19.5213 225.51 19.5213C229.5 19.5213 235.666 22.8181 235.666 34.0059C235.666 37.0897 235.122 59.2471 235.666 70.1258C234.941 72.5705 232.873 77.5332 230.407 77.8265C227.94 78.1199 216.562 79.0489 211.182 79.4767C211.182 79.4767 211.885 85.025 211.182 88.4608C209.63 96.05 206.539 102.485 199.03 104.046C184.933 106.976 166.747 107.896 154.233 104.046C144.222 100.965 141.719 92.3723 141.719 88.4608L139.18 12.1873C162.092 14.1579 208.244 17.3569 209.55 14.3875C210.855 11.418 211.182 19.873 211.182 24.4717C210.61 25.7241 210.421 27.7814 212.996 28.0223M212.996 28.0223C213.687 28.087 214.579 28.0206 215.716 27.772C222.427 26.3052 223.877 21.5381 225.51 27.772C229.427 31.5857 230.407 53.6855 230.407 64.2586C230.83 67.3145 230.443 73.4261 225.51 73.4261C219.343 73.4261 211.182 76.7264 211.182 73.4261C211.182 70.7859 212.391 42.0568 212.996 28.0223Z"/><path stroke="#EEEDE3" d="M350.519 6.13718C333.151 7.48175 294.365 9.36414 278.163 6.13718C257.91 2.10348 350.519 -2.11357 350.519 4.30368C350.519 9.43748 350.519 13.6545 350.519 15.1213C353.404 15.1213 359.983 15.1213 363.223 15.1213C367.273 15.1213 373.533 18.4182 373.533 29.606C373.533 32.6898 372.981 54.8472 373.533 65.7259C372.797 68.1706 370.698 73.1333 368.194 73.4266C365.69 73.72 354.14 74.649 348.678 75.0768C348.678 75.0768 349.391 80.6251 348.678 84.0609C347.102 91.6501 343.965 98.085 336.342 99.6457C322.031 102.576 303.57 103.496 290.866 99.6457C280.703 96.5654 278.163 87.9724 278.163 84.0609L275.585 7.78735C298.845 9.75802 345.695 12.957 347.021 9.98755C348.347 7.01811 348.678 15.4731 348.678 20.0718C348.098 21.3242 347.906 23.3815 350.519 23.6224M350.519 23.6224C351.221 23.6871 352.126 23.6207 353.281 23.3721C360.093 21.9053 361.566 17.1382 363.223 23.3721C367.2 27.1858 368.194 49.2856 368.194 59.8587C368.624 62.9146 368.231 69.0262 363.223 69.0262C356.963 69.0262 348.678 72.3265 348.678 69.0262C348.678 66.386 349.905 37.6569 350.519 23.6224Z"/></svg>