<svg width="500" height="411" viewBox="0 0 500 411" fill="none" xmlns="http://www.w3.org/2000/svg">
<path d="M292.014 104.359C288.801 103.824 282.283 102.957 281.91 103.766C281.537 104.575 277.04 104.952 274.838 105.039C271.725 106.789 265.543 110.443 265.723 111.054C265.947 111.817 262.631 118.071 262.113 118.257C261.698 118.406 258.801 129.291 257.405 134.714C257.559 137.402 257.704 143.004 257.054 143.912C256.405 144.82 257.399 149.414 257.978 151.597C257.484 153.814 256.691 158.262 257.472 158.319C258.448 158.391 258.314 152.742 259.523 152.308C260.732 151.874 262.253 147.953 263.051 148.721C263.85 149.489 268.448 148.894 269.377 147.505C270.305 146.117 280.146 134.779 281.061 135.294C281.977 135.809 288.83 124.7 287.802 123.803C286.775 122.906 289.461 116.456 289.072 114.486C288.684 112.516 291.474 107.717 292.164 107.469M289.76 106.434C288.723 106.806 281.685 111.442 281.059 110.612C280.433 109.782 280.328 125.009 279.685 126.717C279.17 128.083 279.644 118.785 279.945 113.965C279.24 113.515 277.691 112.664 277.139 112.863C276.448 113.111 276.365 116.727 273.429 117.781C270.493 118.835 264.699 117.961 263.883 119.731C263.23 121.147 270.634 117.8 274.418 115.949C273.962 118.293 272.703 123.105 271.322 123.601C269.595 124.221 266.632 129.081 267.25 131.181C267.867 133.28 269.727 138.308 268.104 140.579C266.805 142.395 267.655 133.426 268.243 128.714" stroke="#B7B2A6" stroke-width="1.01326"/>
<path d="M329.421 268.845C329.689 265.348 329.687 258.01 327.527 256.631C324.828 254.908 316.949 250.011 316.625 247.418C316.365 245.343 308.898 243.988 305.196 243.57C302.795 243.495 297.6 242.858 296.031 240.901C294.07 238.456 277.801 242.258 278.399 244.098C278.996 245.938 270.775 251.563 268.976 250.414C267.176 249.265 266.215 254.088 262.644 251.278C259.073 248.468 251.847 244.386 251.081 245.621C250.315 246.855 253.115 255.272 255.512 258.261C257.909 261.25 266.365 264.128 267.258 269.074C268.152 274.02 289.406 276.98 289.428 280.839C289.45 284.698 295.815 278.95 298.269 280.914C300.722 282.878 308.781 275.956 312.19 277.47C315.599 278.983 322.781 275.347 324.503 273.661" stroke="#B7B2A6" stroke-width="1.01326"/>
<path d="M326.342 265.554C324.701 261.501 320.834 253.871 318.496 255.772C315.573 258.149 304.043 268.954 305.104 270.825C305.954 272.322 312.531 261.29 315.713 255.587C312.84 254.195 306.751 251.749 305.374 253.097C303.653 254.783 295.963 250.67 293.778 252.324C291.592 253.979 290.469 257.505 286.204 263.136C282.793 267.641 290.849 259.073 295.303 254.226C290.892 254.018 281.916 253.848 281.304 254.836C280.538 256.071 275.502 267.309 273.484 265.889C271.87 264.752 280.189 258.191 284.551 255.053" stroke="#B7B2A6" stroke-width="1.01326"/>
<path d="M260.231 359.392C257.436 362.261 260.059 369.473 263.874 369.408C267.404 369.347 270.093 364.066 268.306 360.701C266.694 357.664 262.566 356.994 260.231 359.392ZM268.1 351.686C268.582 347.512 260.926 345.807 258.717 348.746C255.956 352.42 260.209 355.533 261.572 356.138C262.663 356.622 267.721 354.97 268.1 351.686ZM270.174 352.082C267.86 354.671 267.648 360.813 270.844 361.128C273.576 361.397 276.063 357.837 275.136 354.984C274.395 352.704 272.488 349.493 270.174 352.082ZM275.292 360.653C276.993 362.471 279.659 362.371 281.35 360.542C283.443 358.278 282.514 353.345 279.697 352.459C278.15 351.973 276.912 352.331 275.684 353.478C273.743 355.289 273.466 358.701 275.292 360.653ZM269.822 350.001C268.247 347.475 268.958 343.225 271.633 342.406C273.351 341.88 274.7 342.599 275.97 343.981C277.745 345.913 278.411 348.924 276.752 350.977C274.934 353.225 271.369 352.483 269.822 350.001ZM277.065 340.968C274.636 341.406 271.913 340.675 271.175 338.003C270.344 334.992 274.812 332.502 275.931 331.891C277.051 331.279 279.495 340.53 277.065 340.968ZM279.447 335.726C281.567 335.267 284.159 334.63 285.912 336.671C288.107 339.225 287.703 344.331 284.727 345.593C282.528 346.526 280.44 345.496 279.027 343.413C277.394 341.007 277.327 336.185 279.447 335.726ZM287.774 332.423C289.698 334.56 292.886 335.647 294.704 333.399C296.364 331.346 295.472 328.558 293.922 326.403C292.238 324.061 289.509 322.441 287.294 324.161C284.9 326.02 285.71 330.131 287.774 332.423ZM289.555 346.687C290.753 349.886 294.63 350.454 297.357 348.75C299.855 347.189 301.432 344.023 300.096 341.217C298.804 338.503 295.803 338.086 293.222 339.216C290.429 340.438 288.408 343.62 289.555 346.687ZM284.659 355.362C285.309 358.234 288.119 360.723 290.494 359.352C292.751 358.048 292.829 354.498 291.349 352.207C290.045 350.189 287.714 348.889 285.867 350.299C284.344 351.461 284.21 353.378 284.659 355.362Z" stroke="#B7B2A6" stroke-width="1.01326"/>
<path d="M270.952 335.574C268.861 333.518 264.56 329.523 264.085 329.989C263.49 330.571 257.008 320.505 258.312 319.815C259.615 319.125 259.653 315.865 258.204 314.059C256.756 312.254 258.178 309.396 258.772 308.814C259.366 308.232 259.373 302.95 258.074 300.999C257.034 299.438 258.568 297.096 259.465 296.12C260.373 294.937 262.006 292.342 261.268 291.423C260.347 290.274 261.215 282.097 262.353 281.862C263.491 281.627 264.47 276.565 264.126 275.144C263.782 273.722 270.183 282.695 270.183 282.695C275.115 288.192 285.008 300.406 285.121 305.288C285.913 305.216 284.761 319.61 284.087 326.816M274.517 332.083C275.24 330.008 276.317 325.397 274.842 323.559C272.999 321.26 282.109 314.099 282.419 316.14C282.668 317.772 276.461 321.388 273.326 322.992L272.585 310.823C269.555 307.928 263.561 302.483 263.823 303.868C264.085 305.253 270.302 307.977 273.378 309.167C275.209 308.253 278.635 306.13 277.687 304.948C276.739 303.766 274.901 308.75 274.1 311.39" stroke="#B7B2A6" stroke-width="1.01326"/>
<path d="M260.153 356.558C256.055 360.571 247.759 368.694 247.366 369.079C246.874 369.56 248.449 374.809 250.417 372.883C252.384 370.956 256.978 363.547 258.124 363.881" stroke="#B7B2A6" stroke-width="1.01326"/>
<path d="M324.679 304.535C327.562 304.546 328.041 310.493 325.868 312.587C323.949 314.437 320.157 314.329 319.402 311.642M324.679 304.535C323.118 304.529 322.341 305.604 321.292 306.881C320.057 308.384 318.858 309.703 319.402 311.642M324.679 304.535L326.702 301.584M319.402 311.642L313.093 317.52M301.406 321.501C308.918 316.087 323.861 304.172 323.539 299.83M313.093 317.52C310.839 315.648 307.191 317.336 306.129 320.273C305.793 321.2 305.644 322.183 305.711 323.108M313.093 317.52C313.148 317.565 313.202 317.612 313.254 317.661C315.402 319.671 314.76 323.611 312.589 325.59C311.078 326.967 309.371 327.576 307.648 326.546C306.424 325.815 305.813 324.531 305.711 323.108M305.711 323.108L303.702 325.074M303.702 325.074C303.802 325.303 303.89 325.541 303.966 325.787C305.017 329.21 302.16 333.554 298.907 333.165C295.751 332.788 293.855 328.4 295.152 325.199C295.834 323.517 296.731 322.517 298.349 322.069C300.601 321.445 302.717 322.814 303.702 325.074ZM305.345 334.623C307.029 332.87 309.25 332.375 311.213 333.728C313.764 335.486 313.712 340.046 311.447 342.231C309.464 344.144 306.454 344.216 304.707 342.039C302.961 339.861 303.428 336.617 305.345 334.623Z" stroke="#B7B2A6" stroke-width="1.01326"/>
<path d="M347.225 279.548C348.553 279.379 351.329 279.41 351.807 280.882C352.405 282.722 366.175 290.584 366.913 289.862C367.65 289.139 379.577 288.134 380.202 289.462C380.828 290.789 385.775 285.461 386.842 282.96C387.91 280.46 389.413 278.502 391.023 278.867M342.514 272.033C344.205 272.317 347.556 272.626 347.426 271.589C347.297 270.551 354.75 263.933 358.493 260.753C362.269 259.805 369.995 258.125 370.693 258.994C371.565 260.081 377.075 261.477 377.623 259.971M349.824 274.578C351.189 273.726 354.471 272.161 356.675 272.72C358.88 273.278 361.95 267.07 363.209 263.896C362.034 265.533 359.878 269.487 360.66 272.214C361.442 274.94 368.053 280.336 371.261 282.693C367.564 279.361 359.972 272.888 359.185 273.658C358.201 274.622 367.898 267.552 369.915 268.973C371.933 270.393 376.789 270.974 379.13 274.988C381.004 278.199 371.04 271.105 365.825 267.157" stroke="#B7B2A6" stroke-width="1.01326"/>
<path d="M359.305 243.017C361.662 246.74 366.618 254.019 367.589 253.346C368.804 252.504 371.249 253.589 372.343 254.954C373.437 256.318 376.724 257.274 376.996 258.399C377.269 259.524 378.439 262.553 379.689 264.112C380.94 265.671 383.32 270.995 384.691 270.348C386.062 269.702 387.881 270.008 389.445 271.956C391.008 273.905 394.899 276.009 396.27 275.363C397.641 274.716 399.793 275.044 400.575 276.018C401.356 276.993 414.739 279.545 415.016 277.534C415.293 275.524 410.808 278.176 408.543 273.783C406.279 269.389 404.76 263.57 403.762 263.504C402.764 263.437 404.356 258.747 402.496 259.177C400.636 259.606 404.052 252.087 401.471 250.439C399.406 249.121 395.504 243.524 393.812 240.89C391.132 240.036 385.803 238.365 385.928 238.52C386.084 238.715 376.637 234.397 376.224 235.845C375.894 237.003 373.869 236.18 372.898 235.623C369.23 236.547 361.883 238.615 361.835 239.497M368.917 241.26C373.293 246.716 371.882 248.098 371.938 250.131C371.983 251.757 371.247 245.473 370.873 242.128C371.898 241.705 374.264 241.174 375.53 242.439C377.114 244.02 385.118 244.184 385.843 243.126C386.424 242.279 379.13 243.785 375.41 244.644C378.952 245.003 386.293 246.513 387.322 249.68C388.608 253.64 386.231 260.49 388.696 261.208C390.668 261.782 387.519 253.198 385.699 248.835C389.31 250.981 396.527 255.975 396.508 258.778" stroke="#B7B2A6" stroke-width="1.01326"/>
<path d="M337.329 273.23C334.447 273.356 333.453 278.593 335.271 281.066C336.712 283.025 339.255 283.813 341.028 282.221C342.864 280.572 342.334 277.63 340.927 275.528C339.962 274.086 338.95 273.16 337.329 273.23ZM332.074 284.196C334.019 283.416 336.227 283.998 337.093 286.074C337.982 288.205 336.864 290.619 334.929 291.588C332.672 292.718 329.429 291.116 329.285 288.382C329.179 286.356 330.347 284.889 332.074 284.196ZM327.234 291.846C324.791 292.562 323.235 295.97 324.551 298.354C325.783 300.587 328.709 300.907 330.553 299.269C332.193 297.811 332.767 295.335 331.571 293.421C330.558 291.8 328.957 291.341 327.234 291.846ZM322.439 285.869C320.393 286.785 320.186 289.777 321.176 291.957C322.205 294.224 324.623 295.608 326.63 294.378C328.943 292.96 328.38 288.762 326.34 286.9C325.132 285.798 323.891 285.218 322.439 285.869ZM342.323 292.595C342.67 294.603 342.559 296.379 341.116 297.658C339.055 299.485 334.581 297.977 334.734 295.175C334.887 292.373 334.972 290.802 335.125 288C335.279 285.198 341.715 289.072 342.323 292.595ZM327.716 278.762C325.848 278.705 324.021 279.099 323.401 281.046C322.634 283.453 325.267 284.775 327.324 285.937C329.108 286.945 330.622 287.816 332.398 286.79C335.39 285.061 331.09 278.865 327.716 278.762ZM333.73 270.933C331.212 269.672 327.167 270.523 327.068 273.575C326.994 275.842 328.652 277.07 330.555 277.922C332.798 278.927 335.654 279.216 336.669 276.787C337.661 274.413 335.885 272.012 333.73 270.933Z" stroke="#B7B2A6" stroke-width="1.01326"/>
<path d="M345.478 260.4C344.944 264.479 343.655 272.469 342.761 271.792M340.967 266.271C341.641 265.288 342.772 263.048 341.901 261.961M340.875 233.86C336.311 232.184 326.789 229.218 325.216 230.759C323.248 232.685 314.759 234.691 313.775 235.654C312.791 236.617 307.359 238.056 306.487 236.969C305.616 235.882 301.759 242.569 299.334 240.093C296.908 237.616 276.029 240.597 275.917 242.647C275.805 244.697 277.376 232.971 281.093 228.847C284.81 224.722 286.671 220.474 288.717 221.382C290.762 222.29 297.692 223.266 299.14 222.334C300.587 221.402 303.89 220.593 306.399 221.532C308.908 222.471 311.24 213.882 313.531 214.549C315.822 215.216 323.624 217.279 324.418 215.532C325.211 213.784 328.514 212.976 329.604 214.334M338.838 266.901C337.151 265.265 332.912 265.606 333.188 268.067C333.379 269.779 334.801 270.344 336.295 270.846C337.694 271.317 339.277 271.965 340.033 270.581C340.748 269.274 339.876 267.909 338.838 266.901ZM350.642 255.343C351.713 258.26 355.563 259.106 357.762 257.103C360.019 255.046 359.839 250.412 357.282 248.842C355.415 247.695 353.426 248.143 351.877 249.767C350.406 251.311 349.879 253.266 350.642 255.343ZM341.538 247.278C343.22 248.833 344.387 250.822 346.501 250.18C349.39 249.303 348.224 244.848 347.195 241.739C346.313 239.076 345.393 236.545 342.836 236.305C340.151 236.054 337.915 238.397 337.672 241.362C337.439 244.2 339.561 245.448 341.538 247.278ZM348.262 239.239C349.448 241.139 350.398 242.843 352.487 242.864C355.875 242.898 356.368 236.303 354.164 233.46C352.272 231.018 348.436 229.817 346.771 232.453C345.357 234.689 346.862 236.993 348.262 239.239Z" stroke="#B7B2A6" stroke-width="1.01326"/>
<path d="M356.14 184.469C355.486 183.654 348.428 176.497 346.707 178.183C344.985 179.868 340.487 176.996 336.804 176.237C333.121 175.477 324.794 178.779 324.274 179.773C323.754 180.768 318.02 183.472 314.801 182.743C311.582 182.014 302.159 188.33 301.611 189.836C301.063 191.343 295.027 195.313 294.34 199.382C293.652 203.451 287.392 211.521 285.537 211.397C283.681 211.273 279.372 209.186 277.707 209.846C276.042 210.507 273.364 212.643 274.018 213.458C274.672 214.273 282.122 214.256 282.854 217.905C283.439 220.825 291.372 221.045 295.266 220.79C298.496 219.891 305.175 218.364 306.046 219.451C307.136 220.81 313.262 210.93 314.653 211.023C316.045 211.116 319.666 217.273 323.109 213.901C326.552 210.53 325.736 208.418 329.581 210.475C333.426 212.532 334.085 208.975 335.069 208.012C336.053 207.049 335.729 204.455 338.02 205.122C340.311 205.789 342.726 195.663 345.889 197.417C349.052 199.171 349.656 196.639 349.986 194.861C350.25 193.438 353.431 190.033 354.988 188.508M353.027 186.062C350.982 185.154 342.107 189.964 339.569 189.537C337.032 189.111 333.705 207.407 337.618 199.695C340.748 193.525 338.915 188.722 337.608 187.092C336.125 187.25 332.22 187.71 328.465 188.283C323.77 188.999 307.965 192.832 310.726 189.158C312.935 186.219 321.997 188.795 326.252 190.45C322.166 191.378 313.759 194.144 312.816 197.784C311.636 202.335 308.104 211.615 310.507 210.232C312.429 209.126 311.394 199.661 310.636 195.067M358.845 181.821C357.595 184.824 355.466 190.854 356.95 190.953C358.434 191.052 361.779 184.931 363.266 181.858C365.019 183.861 368.77 187.626 369.754 186.663C370.983 185.459 366.955 178.246 365.563 178.154C364.171 178.061 373.426 174.82 371.465 172.374C369.504 169.929 362.568 173.325 362.02 174.831C361.582 176.036 359.297 170.706 358.209 167.89L358.331 178.443C357.078 177.245 354.226 175.186 352.849 176.535C351.472 177.883 356.273 180.62 358.845 181.821Z" stroke="#B7B2A6" stroke-width="1.01326"/>
<path d="M374.292 201.625C372.753 202.808 369.876 205.754 370.681 208.071C371.687 210.967 377.231 207.479 376.907 204.885C376.583 202.292 374.952 198.068 377.975 202.385C380.998 206.701 384.597 208.999 384.653 207.974C384.697 207.154 381.423 201.757 379.78 199.162C382.444 200.111 387.805 201.394 387.939 198.934C388.107 195.859 381.099 192.048 379.786 194.79C378.472 197.531 379.094 181.884 376.389 184.533C373.684 187.182 375.779 191.437 375.421 193.727C375.135 195.56 371.062 195.409 369.061 195.104L373.638 200.81M381.243 146.793C381.347 150.572 381.839 158.046 382.974 157.711C384.11 157.375 384.472 153.01 384.512 150.869C384.955 152.699 386.404 156.293 388.652 156.032C390.901 155.77 388.468 150.876 386.971 148.461C390.246 148.165 395.716 146.884 391.397 144.127C387.079 141.37 384.468 143.151 383.702 144.385C384.252 141.422 384.931 135.517 383.25 135.611C381.569 135.705 381.543 139.869 381.74 141.94L377.102 141.631L381.243 146.793Z" stroke="#B7B2A6" stroke-width="1.01326"/>
<path d="M366.832 189.04C365.861 194.033 364.328 204.201 365.964 204.928C368.009 205.835 362.18 218.82 359.726 216.857C357.273 214.893 353.064 219.499 352.762 220.765C352.521 221.777 348.839 222.989 347.028 223.469C345.117 224.37 341.228 226.528 340.964 227.951C340.634 229.729 335.264 225.771 332.721 229.716C330.686 232.873 331.139 235.955 331.619 237.101C331.115 233.553 330.647 225.926 332.811 223.807C335.516 221.158 330.09 218.225 333.013 215.848C335.936 213.471 335.226 213.68 336.131 209.883C337.037 206.086 342.827 202.357 344.577 200.158C346.326 197.96 351.379 194.954 353.178 196.103C354.977 197.251 361.829 195.393 362.159 193.615C362.489 191.837 364.82 183.248 364.412 182.192M362.153 197.987C359.23 200.364 354.62 199.542 354.776 205.211C354.932 210.879 353.802 218.776 351.539 217.597C349.728 216.653 354.254 207.662 356.743 203.284C355.104 204.889 350.744 208.285 346.42 209.026C341.016 209.951 335.366 211.118 337.439 211.513C339.098 211.83 346.085 208.06 349.371 206.136" stroke="#B7B2A6" stroke-width="1.01326"/>
<path d="M388.649 198.724C389.629 200.675 392.069 204.301 393.992 203.195C396.395 201.812 399.178 201.997 399.502 204.591C399.826 207.184 410.221 208.648 411.696 207.204C413.172 205.759 415.111 204.345 416.011 204.919C416.91 205.494 420.817 202.154 422.125 203.784C423.432 205.414 419.538 200.011 424.338 201.617C429.139 203.223 433.861 201.994 434.845 201.031C435.828 200.068 440.753 190.88 444.106 193.419C446.788 195.449 449.351 195.397 450.298 195.117C446.507 193.493 438.489 189.701 436.746 187.527C434.567 184.81 430.208 179.376 429.386 181.636C428.564 183.896 420.311 173.058 417.88 174.953C415.448 176.849 407.049 172.946 403.31 173.211C399.571 173.476 391.104 179.341 387.941 177.587C385.411 176.184 383.049 176.232 382.185 176.432M373.3 168.639C375.628 168.622 380.399 169.06 380.855 170.942C381.311 172.825 381.869 168.01 382.091 165.367C383.609 165.982 386.371 167.967 385.276 170.98C384.18 173.993 381.049 175.928 379.62 176.518C381.984 177.276 386.547 179.243 385.89 181.051C385.232 182.859 381.67 180.17 379.972 178.599C379.843 179.534 379.024 181.468 376.775 181.729C374.526 181.991 376.919 176.252 378.396 173.35L373.3 168.639Z" stroke="#B7B2A6" stroke-width="1.01326"/>
<path d="M390.338 180.576C392.197 177.786 397.087 173.774 401.772 180.053C407.628 187.901 416.81 198.801 416.592 198.529C416.417 198.312 405.22 186.541 399.643 180.682C402.573 179.592 409.055 177.966 411.541 180.189C412.335 180.9 413.095 181.389 413.853 181.806M413.853 181.806C416.06 183.021 418.244 183.62 421.164 187.26C425.087 192.151 429.2 197.826 429.368 194.751C429.502 192.291 419.081 185.096 413.853 181.806Z" stroke="#B7B2A6" stroke-width="1.01326"/>
<path d="M361.269 170.643C360.702 168.687 360.1 164.587 362.225 163.836C364.88 162.897 374.077 155.063 377.291 156.891C380.504 158.72 391.533 158.055 392.879 155.962C393.955 154.288 397.776 151.535 399.553 150.367C398.721 150.302 396.35 150.26 393.525 150.612C389.993 151.052 381.805 147.209 380.902 149.145C379.999 151.082 383.734 145.448 388.16 143.884C392.586 142.319 390.656 144.079 395.25 140.568C399.844 137.057 403.863 132.401 404.916 130.142C405.97 127.883 409.519 125.819 411.042 120.968C412.26 117.087 415.16 111.605 416.459 109.349C412.803 112.169 405.199 117.643 404.031 116.978C402.57 116.147 398.543 121.614 397.64 123.55C396.737 125.487 393.02 129.497 390.231 129.135C388.001 128.846 381.689 135.3 378.813 138.563L376.166 138.691M365.022 149.909C363.34 155.894 362.26 160.589 360.207 160.237C358.153 159.885 350.151 138.995 352.089 136.422C354.027 133.85 361.002 127.61 363.941 127.649C366.88 127.688 370.093 129.517 371.297 126.935C372.501 124.353 376.21 121.155 377.962 122.152C379.365 122.95 381.999 120.366 383.141 118.973C386.047 117.497 392.359 114.582 394.356 114.738C396.852 114.934 396.02 110.376 399.144 106.846C401.644 104.021 405.137 100.863 406.571 99.6374L410.333 91.5687C407.462 94.2909 400.87 99.4968 397.471 98.5423C393.222 97.3492 377.218 96 377.333 98.9243C377.449 101.849 368.739 105.468 366.986 104.47C365.233 103.472 356.886 114.241 357.435 117.82C357.874 120.684 355.175 127.424 353.771 130.437C354.511 125.413 355.606 115.717 354.062 117.126C352.133 118.886 349.814 129.41 350.814 132.021C351.814 134.632 345.352 120.745 345.512 119.61C345.582 119.109 345.569 118.32 345.816 117.333M333.393 98.8279C333.42 96.3927 331.932 97.9965 331.056 97.4978C330.18 96.9992 322.851 95.278 320.629 96.8722C319.116 97.9578 317.775 95.7329 317.124 93.8445M317.124 93.8445C316.819 92.9596 316.665 92.1486 316.716 91.7866C316.876 90.6521 316.035 86.9063 312.237 84.745C309.199 83.016 306.333 78.1175 305.279 75.8844C305.492 74.3717 305.683 71.2133 304.748 70.6813C303.813 70.1493 299.62 64.7677 297.64 62.1434C298.127 62.4205 299.451 63.1742 300.853 63.9722C302.606 64.9698 305.394 65.3315 305.978 65.6641C306.563 65.9966 311.396 67.5221 312.29 66.3974C313.184 65.2726 335.561 75.1499 333.924 77.0767C332.286 79.0034 333.304 79.9912 334.154 82.9252C335.004 85.8593 337.482 87.6782 336.296 88.6367C335.347 89.4035 335.635 95.3394 335.898 98.2115C335.898 100.245 336.296 101.987 338.943 101.987C341.271 101.987 341.156 101.204 342.342 100.246C343.528 99.2872 346.202 96.7247 349.167 94.3285C352.132 91.9323 354.991 99.277 354.54 100.245C354.089 101.214 351.938 109.791 348.672 112.833C346.85 114.529 346.127 116.089 345.816 117.333M317.124 93.8445C313.751 93.4944 306.767 93.1483 305.811 94.5645C304.855 95.9807 298.762 94.092 295.835 92.9706C292.011 93.2446 284.271 94.1485 283.903 95.5725C283.535 96.9965 280.693 97.9654 279.318 98.2719C283.62 99.0868 292.422 101.401 293.215 104.14C294.207 107.563 302.085 112.863 302.97 112.55C303.855 112.237 307.353 112.186 308.317 112.735C309.281 113.284 315.265 117.098 318.098 113.401C320.93 109.704 323.895 107.308 325.383 105.704C326.572 104.42 328.64 103.473 329.525 103.16C329.997 102.676 331.117 101.808 331.818 102.207C332.694 102.706 326.117 105.713 326.816 108.97C325.032 110.895 329.614 126.49 332.128 134.046C332.925 132.866 334.612 129.987 334.987 127.914C335.456 125.322 337.944 126.33 339.431 124.726C340.918 123.122 340.652 120.52 341.236 120.853C341.454 120.977 342.175 120.499 343.017 119.824M345.816 117.333C345.105 118.019 343.981 119.051 343.017 119.824M343.017 119.824C344.94 122.961 348.605 129.784 347.876 131.982C346.964 134.731 347.955 138.154 345.618 136.824C343.282 135.493 335.943 134.584 335.377 132.628C334.81 130.672 318.222 115.513 316.292 117.274C314.362 119.034 300.385 120.472 299.465 124.032C298.544 127.592 295.039 125.597 294.579 127.377C294.119 129.157 290.091 134.625 289.365 133.803C288.639 132.982 287.604 133.617 285.347 138.459C283.541 142.332 284.264 143.424 284.851 143.486C284.945 142.042 286.052 139.514 289.728 140.952C294.323 142.751 302.847 137.392 304.015 138.057C305.183 138.722 316.328 140.981 317.328 143.592C318.329 146.203 324.259 141.411 326.614 141.118C328.968 140.824 338.555 137.704 339.723 138.369C340.892 139.034 349.132 138.007 349.708 139.151C350.283 140.295 356.144 155.474 354.966 155.621C353.789 155.767 348.876 148.071 348.124 149.684C347.371 151.298 350.93 148.423 350.08 145.489C349.4 143.141 348.345 142.867 347.902 143.024C345.772 145.215 341.862 149.796 343.264 150.594C344.666 151.392 344.285 146.819 343.919 144.433C342.134 146.411 338.856 150.536 340.024 151.201C341.193 151.865 336.841 155.651 334.519 157.46C336.097 156.453 339.369 154.666 339.83 155.582C340.405 156.726 335.767 164.296 337.82 164.648C339.874 165 343.061 155.787 343.362 155.142C343.663 154.496 347.69 162.506 348.593 160.57C349.315 159.02 346.51 153.939 345.017 151.592C348.189 152.716 354.731 155.65 355.524 158.389C356.317 161.127 356.988 163.442 357.224 164.257C354.775 164.224 349.643 164.026 348.708 163.494C347.54 162.829 341.052 164.854 340.751 165.499C340.45 166.145 332.961 165.558 331.792 164.893C330.624 164.228 322.279 162.337 322.553 163.718C322.826 165.099 312.106 164.307 312.062 168.366C312.027 171.613 309.362 173.363 308.035 173.833C305.907 175.753 301.911 180.149 302.945 182.371C304.237 185.149 303.751 189.364 302.281 189.344C300.812 189.325 300.75 195.007 301.166 197.286C301.582 199.565 296.649 208.6 298.812 211.056C300.542 213.021 301.276 212.867 301.426 212.544C301.601 209.513 302.659 203.526 305.489 203.83C308.319 204.134 308.85 202.476 308.761 201.608C311.762 200.458 317.939 198.256 318.64 198.655C319.341 199.054 322.278 197.458 323.659 196.61M342.734 185.822C344.047 182.213 346.968 174.837 348.151 174.203C349.629 173.411 355.029 163.416 356.905 166.526C358.407 169.014 359.042 172.778 359.171 174.35" stroke="#B7B2A6" stroke-width="1.01326"/>
<path d="M359.291 216.313C357.823 219.045 355.241 224.839 356.658 226.168M361.626 224.699C362.831 228.208 364.876 235.1 363.414 234.591C361.952 234.082 358.287 234.494 357.278 231.868C356.087 228.765 360.421 221.19 361.626 224.699ZM360.547 235.943C361.378 237.959 361.278 240.084 359.775 241.55C358.521 242.774 357.163 242.765 355.545 242.297C353.31 241.65 351.662 239.957 351.622 237.406C351.56 233.513 359.086 232.4 360.547 235.943ZM353.577 244.223C355.229 245.944 354.453 248.69 352.996 250.614C351.771 252.23 350.282 253.263 348.463 252.626C345.769 251.683 346.035 246.642 348.201 244.636C349.814 243.142 352.046 242.628 353.577 244.223ZM349.357 257.572C348.945 260.542 345.218 262.079 342.913 260.486C341.155 259.272 340.299 257.069 341.119 254.966C341.846 253.102 343.381 252.303 345.216 252.41C347.651 252.552 349.726 254.91 349.357 257.572Z" stroke="#B7B2A6" stroke-width="1.01326"/>
<path d="M328.784 90.486C327.789 87.3335 325.478 80.9269 324.189 80.5201C322.578 80.0116 311.991 80.5204 314.488 80.716C316.984 80.9115 324.649 78.74 323.631 77.7522C322.817 76.962 319.202 75.0955 317.497 74.261C314.611 73.8437 309.07 73.467 309.991 75.2978C310.911 77.1286 315.78 74.5088 318.099 72.97M330.43 101.224C326.275 100.357 317.991 99.0457 318.091 100.736C318.19 102.426 315.854 103.683 314.674 104.1L306.663 97.499C308.914 97.6913 313.585 98.8251 314.258 101.822C315.099 105.567 310.097 105.988 307.761 104.658C305.424 103.328 296.386 96.5505 294.164 98.1447M334.901 136.032C331.422 136.094 324.204 135.825 323.163 134.252C321.862 132.287 317.993 123.142 315.639 123.436C313.756 123.671 322.219 130.992 326.686 134.624C323.857 133.558 317.493 131.352 314.674 131.054C311.151 130.683 303.238 128.629 303.406 126.683C303.541 125.126 310.473 130.024 313.922 132.668C309.181 131.739 299.691 130.531 299.662 133.128" stroke="#B7B2A6" stroke-width="1.01326"/>
<path d="M359.418 124.667C360.751 123.656 363.944 121.934 366.048 123.131C368.677 124.627 358.674 125.469 359.586 122.72C360.498 119.972 365.384 116.627 367.296 116.49C369.208 116.353 365.72 112.734 370.456 109.712C375.191 106.69 376.076 106.377 379.582 108.372C383.087 110.367 383.494 99.9807 389.646 101.849C395.798 103.716 395.506 103.55 397.135 102.435C398.764 101.32 386.849 102.299 386.69 103.433" stroke="#B7B2A6" stroke-width="1.01326"/>
<path d="M206.055 106.192C209.23 105.671 215.674 104.829 216.045 105.63C216.415 106.43 220.863 106.813 223.041 106.904C226.123 108.641 232.243 112.266 232.066 112.869C231.846 113.623 235.137 119.812 235.65 119.997C236.06 120.145 238.945 130.911 240.336 136.275C240.189 138.931 240.056 144.467 240.7 145.366C241.344 146.266 240.369 150.804 239.801 152.96C240.294 155.153 241.086 159.55 240.314 159.605C239.349 159.674 239.47 154.091 238.274 153.66C237.078 153.228 235.567 149.349 234.779 150.106C233.99 150.864 229.442 150.264 228.521 148.89C227.6 147.516 217.848 136.287 216.943 136.794C216.039 137.301 209.241 126.305 210.256 125.42C211.27 124.536 208.602 118.155 208.982 116.209C209.363 114.262 206.595 109.513 205.911 109.266M208.288 108.248C209.313 108.618 216.282 113.217 216.899 112.398C217.517 111.579 217.649 126.63 218.289 128.319C218.8 129.671 218.314 120.479 218.008 115.715C218.704 115.272 220.234 114.434 220.781 114.632C221.464 114.878 221.553 118.453 224.458 119.501C227.363 120.55 233.092 119.699 233.902 121.45C234.551 122.851 227.222 119.526 223.477 117.688C223.932 120.006 225.186 124.765 226.553 125.258C228.262 125.875 231.201 130.686 230.594 132.759C229.988 134.833 228.157 139.798 229.767 142.046C231.055 143.845 230.197 134.978 229.607 130.32" stroke="#B7B2A6" stroke-width="1.01326"/>
<path d="M169.371 268.685C169.099 265.228 169.088 257.975 171.221 256.618C173.887 254.921 181.67 250.098 181.985 247.535C182.237 245.485 189.62 244.163 193.28 243.758C195.654 243.69 200.79 243.072 202.338 241.142C204.273 238.729 220.368 242.524 219.781 244.342C219.193 246.159 227.334 251.737 229.111 250.606C230.888 249.474 231.848 254.243 235.374 251.474C238.9 248.705 246.038 244.687 246.798 245.909C247.557 247.131 244.805 255.444 242.44 258.392C240.075 261.341 231.718 264.167 230.844 269.053C229.969 273.94 208.957 276.817 208.943 280.631C208.928 284.446 202.622 278.749 200.2 280.685C197.777 282.621 189.795 275.761 186.426 277.249C183.058 278.737 175.949 275.127 174.244 273.457" stroke="#B7B2A6" stroke-width="1.01326"/>
<path d="M172.411 265.439C174.026 261.437 177.835 253.904 180.151 255.789C183.046 258.145 194.468 268.851 193.422 270.698C192.585 272.175 186.06 261.256 182.903 255.612C185.741 254.243 191.758 251.839 193.122 253.175C194.828 254.845 202.424 250.797 204.588 252.438C206.753 254.078 207.87 257.565 212.098 263.141C215.48 267.601 207.498 259.115 203.083 254.314C207.445 254.118 216.321 253.971 216.929 254.949C217.688 256.171 222.69 267.29 224.682 265.891C226.276 264.771 218.037 258.267 213.718 255.155" stroke="#B7B2A6" stroke-width="1.01326"/>
<path d="M237.962 358.339C240.731 361.182 238.151 368.304 234.378 368.231C230.887 368.163 228.218 362.937 229.979 359.616C231.568 356.617 235.649 355.964 237.962 358.339ZM230.166 350.705C229.682 346.578 237.249 344.911 239.439 347.821C242.176 351.458 237.977 354.525 236.629 355.12C235.552 355.596 230.546 353.952 230.166 350.705ZM228.116 351.092C230.409 353.656 230.63 359.727 227.47 360.031C224.769 360.291 222.302 356.767 223.214 353.949C223.943 351.697 225.823 348.527 228.116 351.092ZM223.07 359.552C221.392 361.344 218.755 361.24 217.079 359.428C215.005 357.186 215.915 352.312 218.699 351.443C220.228 350.966 221.453 351.323 222.67 352.459C224.592 354.254 224.872 357.626 223.07 359.552ZM228.46 349.035C230.012 346.542 229.302 342.341 226.655 341.525C224.955 341.001 223.622 341.708 222.369 343.071C220.618 344.977 219.964 347.952 221.609 349.985C223.411 352.211 226.935 351.486 228.46 349.035ZM221.28 340.091C223.683 340.529 226.375 339.813 227.099 337.174C227.916 334.2 223.493 331.728 222.384 331.122C221.276 330.515 218.877 339.652 221.28 340.091ZM218.915 334.904C216.818 334.446 214.254 333.811 212.523 335.824C210.357 338.343 210.767 343.391 213.712 344.645C215.889 345.573 217.952 344.558 219.345 342.503C220.955 340.129 221.013 335.363 218.915 334.904ZM210.675 331.621C208.776 333.728 205.625 334.796 203.823 332.57C202.178 330.537 203.055 327.783 204.584 325.656C206.244 323.346 208.94 321.751 211.134 323.456C213.504 325.299 212.711 329.36 210.675 331.621ZM208.939 345.715C207.761 348.874 203.928 349.427 201.228 347.737C198.755 346.188 197.189 343.055 198.505 340.285C199.778 337.605 202.745 337.2 205.299 338.322C208.063 339.537 210.069 342.686 208.939 345.715ZM213.797 354.301C213.16 357.138 210.386 359.592 208.035 358.231C205.8 356.937 205.717 353.428 207.176 351.167C208.462 349.175 210.765 347.896 212.594 349.293C214.102 350.446 214.237 352.341 213.797 354.301Z" stroke="#B7B2A6" stroke-width="1.01326"/>
<path d="M227.318 334.731C229.406 332.68 233.7 328.696 234.177 329.163C234.772 329.746 241.237 319.698 239.932 319.005C238.627 318.312 238.583 315.053 240.028 313.251C241.474 311.449 240.046 308.589 239.451 308.006C238.855 307.423 238.838 302.142 240.134 300.194C241.172 298.636 239.633 296.29 238.733 295.313C237.823 294.128 236.185 291.53 236.921 290.613C237.84 289.466 236.956 281.289 235.818 281.052C234.679 280.814 233.69 275.751 234.032 274.331C234.373 272.911 228.583 282.449 227.988 281.866C223.021 286.616 213.088 297.776 213.088 304.419C212.296 304.346 213.475 318.739 214.164 325.945M223.745 331.232C223.018 329.156 221.932 324.544 223.404 322.709C225.244 320.416 216.118 313.235 215.811 315.275C215.566 316.906 221.781 320.535 224.919 322.146L225.638 309.982C228.663 307.094 234.648 301.665 234.389 303.049C234.129 304.433 227.916 307.142 224.842 308.324C223.008 307.406 219.578 305.276 220.524 304.096C221.47 302.917 223.318 307.904 224.123 310.545" stroke="#B7B2A6" stroke-width="1.01326"/>
<path d="M238.034 355.538C242.095 359.514 250.314 367.562 250.703 367.943C251.191 368.421 249.642 373.605 247.693 371.696C245.744 369.788 241.187 362.454 240.055 362.781" stroke="#B7B2A6" stroke-width="1.01326"/>
<path d="M174.128 303.972C171.276 303.976 170.813 309.853 172.966 311.928C174.868 313.761 178.617 313.663 179.359 311.008M174.128 303.972C175.671 303.97 176.441 305.034 177.481 306.299C178.705 307.787 179.893 309.093 179.359 311.008M174.128 303.972L172.121 301.05M179.359 311.008L185.608 316.832M197.173 320.794C189.735 315.426 174.936 303.615 175.246 299.324M185.608 316.832C187.834 314.988 191.445 316.664 192.501 319.569C192.835 320.487 192.984 321.459 192.92 322.373M185.608 316.832C185.555 316.877 185.502 316.924 185.45 316.972C183.33 318.954 183.972 322.849 186.123 324.81C187.619 326.175 189.308 326.78 191.01 325.767C192.219 325.047 192.822 323.779 192.92 322.373M192.92 322.373L194.91 324.321M194.91 324.321C194.811 324.547 194.725 324.782 194.651 325.024C193.617 328.405 196.451 332.706 199.666 332.329C202.787 331.963 204.654 327.631 203.365 324.464C202.688 322.8 201.799 321.809 200.198 321.363C197.969 320.741 195.88 322.089 194.91 324.321ZM193.303 333.755C191.634 332.019 189.437 331.525 187.498 332.857C184.978 334.589 185.039 339.096 187.283 341.261C189.248 343.156 192.224 343.234 193.947 341.086C195.67 338.938 195.202 335.731 193.303 333.755Z" stroke="#B7B2A6" stroke-width="1.01326"/>
<path d="M151.785 279.223C150.471 279.054 147.726 279.078 147.256 280.532C146.668 282.349 133.066 290.088 132.335 289.373C131.604 288.657 119.808 287.636 119.192 288.947C118.575 290.258 113.674 284.98 112.614 282.506C111.553 280.032 110.063 278.094 108.472 278.45M156.429 271.806C154.757 272.083 151.444 272.381 151.571 271.356C151.697 270.331 144.314 263.772 140.607 260.621C136.871 259.675 129.227 257.997 128.539 258.855C127.679 259.927 122.232 261.294 121.688 259.804M149.205 274.305C147.854 273.459 144.605 271.906 142.426 272.453C140.248 273 137.2 266.857 135.948 263.717C137.114 265.337 139.253 269.25 138.485 271.943C137.716 274.637 131.189 279.955 128.021 282.277C131.671 278.992 139.167 272.611 139.947 273.375C140.921 274.329 131.319 267.32 129.326 268.719C127.334 270.118 122.533 270.681 120.225 274.643C118.378 277.813 128.218 270.824 133.368 266.934" stroke="#B7B2A6" stroke-width="1.01326"/>
<path d="M139.757 243.091C137.402 246.816 132.448 254.096 131.473 253.419C130.254 252.574 127.805 253.655 126.711 255.019C125.617 256.383 122.324 257.334 122.053 258.461C121.783 259.587 120.615 262.619 119.365 264.178C118.115 265.737 115.739 271.065 114.363 270.414C112.988 269.763 111.165 270.065 109.602 272.014C108.039 273.962 104.142 276.061 102.767 275.41C101.391 274.76 99.2344 275.083 98.4529 276.057C97.6714 277.032 84.2619 279.558 83.9807 277.543C83.6995 275.528 88.2004 278.195 90.4616 273.799C92.7229 269.403 94.2341 263.577 95.2343 263.512C96.2345 263.448 94.6303 258.746 96.4953 259.181C98.3603 259.615 94.9225 252.074 97.5066 250.429C99.5738 249.113 103.474 243.515 105.165 240.881C107.85 240.03 113.188 238.369 113.063 238.525C112.907 238.719 122.368 234.415 122.784 235.866C123.118 237.028 125.146 236.207 126.119 235.652C129.796 236.586 137.165 238.675 137.215 239.558M130.119 241.309C125.743 246.765 127.16 248.152 127.107 250.188C127.066 251.818 127.792 245.524 128.16 242.174C127.132 241.747 124.76 241.21 123.492 242.474C121.909 244.054 113.886 244.201 113.157 243.139C112.573 242.289 119.887 243.815 123.617 244.684C120.068 245.035 112.713 246.531 111.687 249.702C110.405 253.665 112.801 260.534 110.332 261.247C108.356 261.818 111.496 253.226 113.313 248.858C109.697 251 102.472 255.987 102.497 258.794" stroke="#B7B2A6" stroke-width="1.01326"/>
<path d="M161.561 273.002C164.41 273.132 165.403 278.311 163.61 280.751C162.189 282.685 159.676 283.457 157.92 281.88C156.101 280.246 156.619 277.339 158.006 275.264C158.958 273.841 159.957 272.928 161.561 273.002ZM166.777 283.852C164.852 283.077 162.67 283.647 161.818 285.697C160.943 287.801 162.052 290.19 163.967 291.151C166.202 292.274 169.406 290.698 169.543 287.996C169.645 285.993 168.486 284.541 166.777 283.852ZM171.578 291.425C173.995 292.138 175.54 295.509 174.243 297.863C173.03 300.067 170.136 300.377 168.31 298.753C166.685 297.309 166.113 294.86 167.293 292.971C168.291 291.372 169.873 290.921 171.578 291.425ZM176.308 285.527C178.333 286.438 178.544 289.395 177.569 291.548C176.555 293.786 174.167 295.149 172.18 293.928C169.89 292.521 170.439 288.373 172.453 286.538C173.645 285.451 174.872 284.881 176.308 285.527ZM156.658 292.13C156.319 294.115 156.431 295.869 157.861 297.137C159.903 298.948 164.324 297.468 164.168 294.698C164.011 291.928 163.923 290.375 163.767 287.605C163.61 284.835 157.253 288.649 156.658 292.13ZM171.077 278.491C172.924 278.439 174.731 278.833 175.348 280.759C176.111 283.14 173.51 284.44 171.478 285.584C169.715 286.576 168.22 287.433 166.462 286.415C163.5 284.7 167.741 278.585 171.077 278.491ZM165.115 270.739C167.603 269.498 171.605 270.349 171.708 273.366C171.785 275.607 170.148 276.817 168.268 277.655C166.051 278.643 163.228 278.921 162.22 276.518C161.234 274.17 162.986 271.801 165.115 270.739Z" stroke="#B7B2A6" stroke-width="1.01326"/>
<path d="M153.478 260.301C154.012 264.334 155.303 272.234 156.186 271.567M157.949 266.115C157.28 265.141 156.158 262.925 157.018 261.853M157.98 234.08C162.49 232.434 171.9 229.524 173.459 231.05C175.408 232.959 183.807 234.961 184.782 235.915C185.756 236.869 191.131 238.303 191.991 237.231C192.851 236.159 196.677 242.777 199.071 240.335C201.465 237.893 222.118 240.886 222.233 242.913C222.347 244.939 220.771 233.346 217.088 229.261C213.405 225.176 211.556 220.973 209.535 221.866C207.514 222.758 200.663 223.707 199.23 222.783C197.797 221.858 194.529 221.051 192.049 221.973C189.57 222.896 187.249 214.401 184.984 215.055C182.719 215.709 175.008 217.731 174.22 216.002C173.432 214.273 170.164 213.466 169.089 214.806M160.056 266.742C161.721 265.129 165.913 265.476 165.646 267.908C165.459 269.6 164.054 270.155 162.578 270.648C161.195 271.11 159.631 271.747 158.88 270.377C158.171 269.083 159.031 267.736 160.056 266.742ZM148.361 255.291C147.307 258.172 143.501 259 141.324 257.015C139.087 254.977 139.256 250.397 141.783 248.85C143.627 247.721 145.594 248.168 147.129 249.777C148.587 251.306 149.112 253.24 148.361 255.291ZM157.348 247.34C155.689 248.874 154.539 250.837 152.446 250.198C149.588 249.324 150.733 244.924 151.745 241.853C152.611 239.223 153.516 236.723 156.045 236.492C158.7 236.25 160.916 238.571 161.161 241.502C161.397 244.308 159.3 245.536 157.348 247.34ZM150.684 239.38C149.515 241.255 148.579 242.937 146.513 242.953C143.163 242.979 142.663 236.459 144.837 233.654C146.704 231.245 150.495 230.067 152.147 232.675C153.548 234.889 152.065 237.163 150.684 239.38Z" stroke="#B7B2A6" stroke-width="1.01326"/>
<path d="M142.791 185.227C143.436 184.423 150.402 177.365 152.108 179.035C153.813 180.705 158.256 177.877 161.897 177.134C165.538 176.391 173.779 179.675 174.295 180.659C174.81 181.642 180.486 184.328 183.668 183.615C186.85 182.902 196.18 189.166 196.725 190.656C197.269 192.147 203.246 196.084 203.933 200.108C204.621 204.131 210.826 212.122 212.661 212.004C214.496 211.886 218.753 209.832 220.401 210.489C222.049 211.146 224.7 213.263 224.055 214.067C223.41 214.872 216.043 214.837 215.326 218.442C214.753 221.327 206.908 221.526 203.057 221.265C199.861 220.369 193.254 218.845 192.394 219.917C191.319 221.258 185.243 211.479 183.867 211.568C182.491 211.656 178.921 217.733 175.51 214.393C172.1 211.054 172.902 208.968 169.104 210.992C165.306 213.016 164.647 209.499 163.672 208.545C162.697 207.591 163.013 205.028 160.748 205.682C158.484 206.336 156.077 196.322 152.952 198.048C149.827 199.774 149.225 197.271 148.896 195.512C148.632 194.106 145.48 190.732 143.937 189.221M145.872 186.809C147.893 185.916 156.679 190.69 159.187 190.274C161.695 189.859 165.019 207.95 161.136 200.318C158.029 194.213 159.832 189.47 161.122 187.862C162.589 188.022 166.451 188.485 170.166 189.06C174.81 189.778 190.447 193.603 187.709 189.965C185.519 187.055 176.563 189.58 172.359 191.207C176.401 192.133 184.719 194.886 185.659 198.487C186.834 202.987 190.345 212.168 187.966 210.796C186.063 209.698 187.068 200.345 187.809 195.806M140.111 182.603C141.353 185.574 143.47 191.54 142.002 191.634C140.535 191.728 137.215 185.671 135.739 182.63C134.01 184.606 130.307 188.318 129.332 187.364C128.114 186.171 132.085 179.052 133.461 178.963C134.837 178.875 125.678 175.65 127.613 173.238C129.548 170.825 136.414 174.197 136.958 175.687C137.394 176.88 139.643 171.617 140.714 168.836L140.613 179.266C141.85 178.085 144.666 176.056 146.031 177.392C147.395 178.728 142.653 181.423 140.111 182.603Z" stroke="#B7B2A6" stroke-width="1.01326"/>
<path d="M124.873 202.142C126.397 203.316 129.247 206.234 128.455 208.522C127.466 211.382 121.977 207.922 122.293 205.359C122.608 202.797 124.214 198.626 121.232 202.885C118.251 207.144 114.696 209.407 114.639 208.394C114.593 207.583 117.821 202.257 119.441 199.695C116.808 200.627 111.509 201.883 111.371 199.452C111.2 196.412 118.123 192.661 119.427 195.374C120.731 198.087 120.087 182.62 122.767 185.244C125.447 187.868 123.383 192.069 123.741 194.334C124.028 196.146 128.055 196.006 130.033 195.709L125.518 201.338M117.897 147.931C117.801 151.666 117.328 159.052 116.204 158.718C115.081 158.383 114.714 154.068 114.671 151.952C114.236 153.76 112.811 157.309 110.586 157.045C108.362 156.781 110.759 151.949 112.235 149.566C108.996 149.266 103.584 147.987 107.849 145.272C112.115 142.557 114.701 144.323 115.46 145.545C114.911 142.615 114.228 136.777 115.891 136.874C117.553 136.97 117.586 141.087 117.395 143.133L121.982 142.838L117.897 147.931Z" stroke="#B7B2A6" stroke-width="1.01326"/>
<path d="M132.227 189.72C133.196 194.658 134.731 204.712 133.114 205.426C131.093 206.318 136.883 219.166 139.305 217.231C141.728 215.295 145.898 219.857 146.199 221.109C146.44 222.111 150.083 223.317 151.875 223.795C153.766 224.69 157.616 226.832 157.88 228.239C158.209 229.998 163.513 226.097 166.035 230.003C168.053 233.127 167.611 236.172 167.138 237.304C167.63 233.798 168.079 226.261 165.935 224.162C163.255 221.538 168.616 218.65 165.72 216.294C162.825 213.938 163.528 214.147 162.625 210.392C161.722 206.636 155.99 202.937 154.255 200.761C152.521 198.584 147.519 195.601 145.742 196.732C143.965 197.864 137.185 196.012 136.856 194.253C136.526 192.495 134.205 184 134.607 182.957M136.87 198.574C139.765 200.93 144.323 200.129 144.179 205.731C144.035 211.333 145.167 219.142 147.403 217.981C149.192 217.052 144.7 208.155 142.23 203.822C143.854 205.413 148.172 208.779 152.449 209.521C157.795 210.448 163.385 211.614 161.335 212C159.695 212.309 152.779 208.568 149.525 206.658" stroke="#B7B2A6" stroke-width="1.01326"/>
<path d="M110.67 199.242C109.705 201.168 107.298 204.747 105.395 203.649C103.016 202.277 100.264 202.454 99.9485 205.016C99.633 207.579 89.3563 209.003 87.8945 207.571C86.4327 206.14 84.5122 204.738 83.6235 205.304C82.7348 205.869 78.8652 202.559 77.5752 204.167C76.2851 205.776 80.1267 200.444 75.3824 202.02C70.6382 203.597 65.9658 202.372 64.9913 201.417C64.0167 200.463 59.1299 191.371 55.8189 193.872C53.17 195.873 50.6351 195.816 49.6987 195.537C53.4444 193.94 61.3659 190.21 63.0859 188.066C65.236 185.385 69.5362 180.024 70.353 182.259C71.1698 184.495 79.3115 173.802 81.7193 175.681C84.1271 177.56 92.426 173.721 96.1238 173.992C99.8216 174.262 108.206 180.079 111.33 178.352C113.83 176.971 116.165 177.024 117.021 177.224M125.793 169.541C123.49 169.52 118.773 169.942 118.325 171.801C117.878 173.66 117.317 168.9 117.093 166.287C115.593 166.892 112.865 168.847 113.954 171.828C115.043 174.809 118.143 176.728 119.558 177.315C117.221 178.058 112.712 179.992 113.365 181.781C114.019 183.569 117.536 180.919 119.213 179.371C119.342 180.295 120.156 182.208 122.381 182.472C124.605 182.736 122.228 177.058 120.762 174.187L125.793 169.541Z" stroke="#B7B2A6" stroke-width="1.01326"/>
<path d="M108.966 181.302C107.122 178.539 102.279 174.562 97.6576 180.758C91.881 188.502 82.8221 199.254 83.0371 198.986C83.2091 198.771 94.2604 187.163 99.7645 181.385C96.8646 180.3 90.4513 178.679 87.9974 180.871C87.2135 181.571 86.4624 182.053 85.7139 182.463M85.7139 182.463C83.5335 183.659 81.3755 184.246 78.4944 187.838C74.6242 192.663 70.5677 198.263 70.3959 195.223C70.2585 192.791 80.5506 185.703 85.7139 182.463Z" stroke="#B7B2A6" stroke-width="1.01326"/>
<path d="M137.692 171.549C138.249 169.617 138.837 165.566 136.735 164.819C134.107 163.885 124.997 156.121 121.823 157.921C118.649 159.721 107.741 159.038 106.406 156.967C105.339 155.309 101.555 152.58 99.7958 151.422C100.619 151.359 102.963 151.323 105.757 151.677C109.251 152.121 117.341 148.341 118.237 150.257C119.134 152.173 115.429 146.596 111.05 145.039C106.67 143.482 108.582 145.227 104.032 141.746C99.4824 138.265 95.4997 133.654 94.4539 131.419C93.408 129.183 89.894 127.135 88.3795 122.337C87.1678 118.499 84.2889 113.073 83.0009 110.841C86.6213 113.636 94.1507 119.064 95.3049 118.409C96.7477 117.591 100.741 123.004 101.637 124.92C102.534 126.836 106.217 130.808 108.974 130.457C111.18 130.176 117.433 136.57 120.284 139.802L122.901 139.934M133.943 151.047C135.617 156.967 136.693 161.61 138.724 161.266C140.754 160.923 148.628 140.294 146.707 137.747C144.785 135.2 137.876 129.016 134.969 129.048C132.063 129.08 128.889 130.88 127.694 128.326C126.499 125.771 122.825 122.601 121.094 123.583C119.709 124.369 117.099 121.808 115.967 120.43C113.09 118.963 106.843 116.068 104.868 116.218C102.4 116.406 103.215 111.903 100.118 108.406C97.641 105.608 94.181 102.479 92.7607 101.264L89.0256 93.2806C91.8696 95.9778 98.3976 101.138 101.757 100.203C105.957 99.0331 121.781 97.7361 121.672 100.626C121.564 103.516 130.184 107.113 131.915 106.131C133.647 105.149 141.921 115.811 141.385 119.348C140.956 122.178 143.638 128.846 145.032 131.827C144.291 126.86 143.19 117.274 144.719 118.67C146.631 120.414 148.943 130.821 147.959 133.4C146.975 135.978 153.339 122.267 153.18 121.145C153.109 120.649 153.12 119.869 152.874 118.893M165.125 100.631C165.094 98.2241 166.568 99.8127 167.433 99.3218C168.299 98.8309 175.544 97.1464 177.744 98.7272C179.242 99.8036 180.563 97.6077 181.204 95.7426M181.204 95.7426C181.504 94.8687 181.654 94.0675 181.603 93.7096C181.444 92.5878 182.268 88.8874 186.02 86.7599C189.021 85.0578 191.846 80.2227 192.884 78.0179C192.671 76.5223 192.476 73.4001 193.399 72.8764C194.323 72.3527 198.459 67.0431 200.412 64.4538C199.932 64.7265 198.623 65.4684 197.238 66.254C195.507 67.236 192.75 67.5872 192.173 67.9145C191.596 68.2418 186.819 69.7387 185.933 68.6249C185.047 67.5112 162.936 77.2229 164.559 79.131C166.182 81.0391 165.177 82.0131 164.343 84.9112C163.508 87.8092 161.06 89.6014 162.235 90.5515C163.175 91.3116 162.901 97.178 162.646 100.016C162.65 102.026 162.26 103.747 159.642 103.741C157.341 103.735 157.452 102.962 156.277 102.012C155.103 101.062 152.454 98.5231 149.518 96.1479C146.581 93.7727 143.767 101.026 144.215 101.984C144.663 102.942 146.806 111.425 150.042 114.438C151.847 116.119 152.565 117.663 152.874 118.893M181.204 95.7426C184.538 95.4043 191.445 95.0781 192.393 96.4801C193.341 97.882 199.363 96.0292 202.255 94.9275C206.037 95.207 213.693 96.118 214.06 97.5264C214.426 98.9347 217.239 99.8989 218.599 100.205C214.346 101.001 205.646 103.268 204.867 105.973C203.893 109.354 196.112 114.575 195.236 114.264C194.36 113.952 190.901 113.894 189.948 114.434C188.996 114.974 183.086 118.73 180.278 115.07C177.47 111.409 174.533 109.034 173.059 107.445C171.88 106.174 169.834 105.234 168.958 104.922C168.49 104.443 167.381 103.582 166.689 103.975C165.823 104.466 172.333 107.453 171.647 110.671C173.416 112.577 168.913 127.981 166.441 135.444C165.651 134.276 163.978 131.426 163.603 129.376C163.134 126.813 160.676 127.804 159.202 126.215C157.729 124.626 157.987 122.055 157.41 122.382C157.194 122.504 156.481 122.031 155.647 121.362M152.874 118.893C153.579 119.572 154.692 120.595 155.647 121.362M155.647 121.362C153.751 124.458 150.14 131.193 150.865 133.368C151.772 136.086 150.798 139.467 153.106 138.158C155.415 136.849 162.67 135.967 163.226 134.035C163.783 132.103 180.159 117.158 182.07 118.902C183.982 120.646 197.807 122.1 198.723 125.621C199.64 129.141 203.103 127.178 203.562 128.938C204.02 130.698 208.013 136.111 208.729 135.301C209.446 134.491 210.471 135.121 212.712 139.912C214.505 143.744 213.792 144.822 213.211 144.882C213.116 143.454 212.016 140.953 208.384 142.367C203.843 144.134 195.404 138.818 194.25 139.472C193.096 140.127 182.079 142.334 181.095 144.913C180.111 147.491 174.237 142.741 171.908 142.446C169.579 142.15 160.093 139.044 158.939 139.699C157.785 140.354 149.633 139.319 149.066 140.449C148.499 141.579 142.733 156.568 143.897 156.716C145.062 156.864 149.906 149.267 150.653 150.864C151.4 152.461 147.875 149.611 148.71 146.713C149.378 144.394 150.421 144.126 150.859 144.281C152.97 146.452 156.845 150.989 155.46 151.774C154.075 152.56 154.443 148.041 154.801 145.683C156.57 147.643 159.819 151.727 158.665 152.381C157.511 153.036 161.821 156.787 164.121 158.581C162.558 157.581 159.319 155.808 158.866 156.712C158.299 157.842 162.9 165.334 160.87 165.678C158.839 166.021 155.671 156.908 155.372 156.269C155.073 155.63 151.105 163.538 150.209 161.622C149.492 160.089 152.257 155.073 153.729 152.756C150.594 153.861 144.13 156.746 143.351 159.45C142.571 162.155 141.913 164.441 141.681 165.246C144.103 165.22 149.177 165.036 150.1 164.512C151.255 163.857 157.675 165.874 157.973 166.512C158.272 167.151 165.677 166.588 166.831 165.933C167.985 165.279 176.234 163.429 175.966 164.793C175.699 166.157 186.298 165.399 186.349 169.411C186.39 172.62 189.028 174.357 190.342 174.824C192.449 176.727 196.409 181.081 195.391 183.275C194.118 186.017 194.607 190.185 196.06 190.169C197.514 190.153 197.585 195.769 197.178 198.02C196.771 200.272 201.666 209.214 199.532 211.637C197.824 213.575 197.099 213.421 196.949 213.102C196.77 210.105 195.713 204.185 192.915 204.479C190.117 204.773 189.589 203.133 189.675 202.276C186.706 201.131 180.593 198.941 179.901 199.334C179.209 199.726 176.301 198.143 174.934 197.302M156.05 186.595C154.745 183.025 151.842 175.728 150.672 175.098C149.208 174.312 143.85 164.42 142 167.49C140.52 169.946 139.899 173.665 139.774 175.218" stroke="#B7B2A6" stroke-width="1.01326"/>
<path d="M139.734 216.695C141.191 219.398 143.756 225.131 142.357 226.441M137.441 224.978C136.255 228.444 134.247 235.251 135.691 234.751C137.136 234.251 140.762 234.667 141.754 232.073C142.927 229.009 138.626 221.512 137.441 224.978ZM138.529 236.094C137.711 238.084 137.814 240.185 139.303 241.637C140.545 242.85 141.888 242.844 143.488 242.385C145.696 241.751 147.323 240.082 147.358 237.56C147.412 233.713 139.967 232.596 138.529 236.094ZM145.437 244.294C143.807 245.99 144.579 248.707 146.024 250.612C147.238 252.212 148.713 253.236 150.51 252.611C153.172 251.685 152.9 246.702 150.754 244.714C149.156 243.234 146.948 242.72 145.437 244.294ZM149.635 257.498C150.048 260.434 153.736 261.962 156.013 260.393C157.749 259.196 158.592 257.021 157.777 254.94C157.054 253.096 155.535 252.303 153.721 252.405C151.313 252.539 149.266 254.865 149.635 257.498Z" stroke="#B7B2A6" stroke-width="1.01326"/>
<path d="M169.669 92.3965C170.646 89.2829 172.92 82.9559 174.193 82.5567C175.786 82.0578 186.256 82.5849 183.788 82.7725C181.319 82.96 173.735 80.7962 174.74 79.8222C175.544 79.043 179.115 77.2064 180.8 76.3855C183.652 75.9797 189.132 75.6199 188.225 77.4274C187.318 79.2349 182.498 76.6343 180.202 75.1081M168.061 103.007C172.167 102.159 180.357 100.882 180.262 102.552C180.167 104.222 182.479 105.47 183.647 105.885L191.557 99.3786C189.331 99.5636 184.714 100.674 184.054 103.634C183.23 107.334 188.176 107.761 190.485 106.452C192.793 105.143 201.718 98.4646 203.918 100.045M163.704 137.4C167.145 137.469 174.282 137.22 175.308 135.668C176.591 133.728 180.4 124.698 182.729 124.994C184.592 125.23 176.236 132.448 171.825 136.027C174.621 134.98 180.91 132.814 183.697 132.527C187.18 132.167 195.002 130.155 194.832 128.232C194.696 126.692 187.85 131.518 184.444 134.123C189.131 133.216 198.514 132.043 198.547 134.611" stroke="#B7B2A6" stroke-width="1.01326"/>
<path d="M139.437 126.111C138.117 125.109 134.956 123.399 132.878 124.578C130.281 126.051 140.174 126.905 139.268 124.187C138.361 121.468 133.523 118.151 131.632 118.011C129.741 117.871 133.183 114.303 128.494 111.305C123.805 108.307 122.929 107.995 119.467 109.959C116.004 111.923 115.582 101.656 109.502 103.488C103.422 105.321 103.71 105.157 102.098 104.051C100.485 102.945 112.269 103.94 112.429 105.061" stroke="#B7B2A6" stroke-width="1.01326"/>
<path d="M55.6952 222.012H84.4211V227.712H49.6156V177.555H55.6952V222.012ZM106.833 228.472C104.401 228.472 102.096 228.016 99.9175 227.104C97.7896 226.192 96.0417 224.723 94.6738 222.696C93.3566 220.619 92.698 217.934 92.698 214.641V189.715H98.7775V213.045C98.7775 216.895 99.6135 219.555 101.285 221.024C102.957 222.443 105.313 223.152 108.353 223.152C110.278 223.152 112.102 222.722 113.824 221.86C115.547 220.948 116.966 219.555 118.08 217.681C119.195 215.806 119.752 213.374 119.752 210.385V189.715H125.832V227.712H120.512L120.132 221.936C118.815 224.216 117.016 225.888 114.736 226.952C112.507 227.965 109.873 228.472 106.833 228.472ZM165.135 189.715H171.519L155.712 227.712H149.632L133.825 189.715H140.741L152.748 221.556L165.135 189.715ZM245.002 214.869C243.432 219.175 240.848 222.519 237.251 224.9C233.654 227.281 229.499 228.472 224.788 228.472C220.025 228.472 215.896 227.433 212.401 225.356C208.956 223.228 206.27 220.239 204.345 216.389C202.471 212.538 201.533 207.953 201.533 202.634C201.533 197.314 202.471 192.729 204.345 188.879C206.27 185.028 208.956 182.064 212.401 179.987C215.896 177.859 219.975 176.796 224.636 176.796C229.499 176.796 233.552 177.809 236.795 179.835C240.088 181.811 242.52 184.699 244.09 188.499L238.087 191.31C236.972 188.423 235.351 186.244 233.223 184.775C231.146 183.255 228.435 182.495 225.092 182.495C221.697 182.495 218.708 183.306 216.124 184.927C213.541 186.497 211.514 188.777 210.045 191.766C208.626 194.756 207.917 198.378 207.917 202.634C207.917 208.916 209.412 213.856 212.401 217.453C215.44 220.999 219.569 222.772 224.788 222.772C228.131 222.772 231.045 221.936 233.527 220.264C236.01 218.542 237.808 215.983 238.923 212.589L245.002 214.869ZM271.262 188.955C274.859 188.955 278.025 189.74 280.761 191.31C283.548 192.881 285.726 195.161 287.297 198.15C288.867 201.088 289.653 204.61 289.653 208.713C289.653 212.817 288.867 216.363 287.297 219.352C285.726 222.291 283.548 224.545 280.761 226.116C278.025 227.687 274.859 228.472 271.262 228.472C267.716 228.472 264.549 227.687 261.763 226.116C258.976 224.545 256.798 222.291 255.227 219.352C253.657 216.363 252.871 212.817 252.871 208.713C252.871 204.61 253.657 201.088 255.227 198.15C256.798 195.161 258.976 192.881 261.763 191.31C264.549 189.74 267.716 188.955 271.262 188.955ZM271.262 194.198C267.412 194.198 264.397 195.49 262.219 198.074C260.04 200.658 258.951 204.204 258.951 208.713C258.951 213.222 260.04 216.769 262.219 219.352C264.397 221.936 267.412 223.228 271.262 223.228C275.112 223.228 278.127 221.936 280.305 219.352C282.484 216.769 283.573 213.222 283.573 208.713C283.573 204.204 282.484 200.658 280.305 198.074C278.127 195.49 275.112 194.198 271.262 194.198ZM322.165 189.715V194.958H309.474V227.712H303.394V194.958H295.795V189.715H303.394V183.331C303.394 179.937 304.433 177.175 306.51 175.048C308.587 172.92 311.703 171.856 315.857 171.856C317.174 171.856 318.416 172.008 319.581 172.312C320.746 172.616 321.658 173.046 322.317 173.604L320.721 178.543C319.505 177.783 318.061 177.403 316.389 177.403C314.211 177.403 312.513 177.935 311.297 178.999C310.081 180.013 309.474 181.659 309.474 183.939V189.715H322.165ZM352.03 189.715V194.958H339.339V227.712H333.26V194.958H325.66V189.715H333.26V183.331C333.26 179.937 334.298 177.175 336.376 175.048C338.453 172.92 341.569 171.856 345.723 171.856C347.04 171.856 348.281 172.008 349.447 172.312C350.612 172.616 351.524 173.046 352.182 173.604L350.587 178.543C349.371 177.783 347.927 177.403 346.255 177.403C344.076 177.403 342.379 177.935 341.163 178.999C339.947 180.013 339.339 181.659 339.339 183.939V189.715H352.03ZM375.016 228.472C371.419 228.472 368.202 227.687 365.365 226.116C362.578 224.545 360.4 222.291 358.829 219.352C357.258 216.363 356.473 212.817 356.473 208.713C356.473 204.61 357.258 201.088 358.829 198.15C360.4 195.161 362.553 192.881 365.289 191.31C368.024 189.74 371.14 188.955 374.636 188.955C378.182 188.955 381.197 189.715 383.679 191.234C386.212 192.754 388.138 194.832 389.455 197.466C390.772 200.05 391.431 202.963 391.431 206.205C391.431 207.067 391.405 207.852 391.355 208.561C391.304 209.271 391.228 209.904 391.127 210.461H362.477C362.781 214.463 364.022 217.579 366.2 219.808C368.379 222.038 371.267 223.152 374.864 223.152C377.65 223.152 379.905 222.62 381.627 221.556C383.401 220.492 384.819 219.048 385.883 217.225L390.671 220.036C389.252 222.62 387.2 224.672 384.515 226.192C381.881 227.712 378.714 228.472 375.016 228.472ZM374.484 194.274C371.292 194.274 368.658 195.237 366.58 197.162C364.554 199.037 363.262 201.671 362.705 205.065H385.351C385.199 201.62 384.135 198.961 382.159 197.086C380.183 195.212 377.625 194.274 374.484 194.274ZM418.876 228.472C415.279 228.472 412.062 227.687 409.225 226.116C406.438 224.545 404.26 222.291 402.689 219.352C401.119 216.363 400.333 212.817 400.333 208.713C400.333 204.61 401.119 201.088 402.689 198.15C404.26 195.161 406.413 192.881 409.149 191.31C411.884 189.74 415 188.955 418.496 188.955C422.042 188.955 425.057 189.715 427.539 191.234C430.073 192.754 431.998 194.832 433.315 197.466C434.632 200.05 435.291 202.963 435.291 206.205C435.291 207.067 435.265 207.852 435.215 208.561C435.164 209.271 435.088 209.904 434.987 210.461H406.337C406.641 214.463 407.882 217.579 410.061 219.808C412.239 222.038 415.127 223.152 418.724 223.152C421.51 223.152 423.765 222.62 425.487 221.556C427.261 220.492 428.679 219.048 429.743 217.225L434.531 220.036C433.112 222.62 431.06 224.672 428.375 226.192C425.741 227.712 422.574 228.472 418.876 228.472ZM418.344 194.274C415.152 194.274 412.518 195.237 410.441 197.162C408.414 199.037 407.122 201.671 406.565 205.065H429.211C429.059 201.62 427.995 198.961 426.019 197.086C424.044 195.212 421.485 194.274 418.344 194.274Z" fill="#38352B"/>
</svg>
